<svg xmlns="http://www.w3.org/2000/svg" width="177.93" height="46.72" viewBox="0 0 177.93 46.72">
  <g id="Groupe_453" data-name="Groupe 453" transform="translate(-174.242 -1103)">
    <g id="Groupe_452" data-name="Groupe 452" transform="translate(94 -42.345)">
      <path id="Tracé_1436" data-name="Tracé 1436" d="M0,65.75V65.7a8.554,8.554,0,0,1,8.74-8.62,9.145,9.145,0,0,1,6.55,2.29l-2.31,2.79a6.155,6.155,0,0,0-4.36-1.69,5.009,5.009,0,0,0-4.79,5.19v.05A5,5,0,0,0,8.88,71a5.83,5.83,0,0,0,3.45-1V67.62H8.64V64.45h7.24v7.24a10.818,10.818,0,0,1-7.12,2.64c-5.19,0-8.77-3.64-8.77-8.57Z" transform="translate(137.042 1103)" fill="#fff"/>
      <path id="Tracé_1437" data-name="Tracé 1437" d="M18.67,65.75V65.7a8.619,8.619,0,0,1,8.88-8.62,8.544,8.544,0,0,1,8.84,8.57v.05a8.619,8.619,0,0,1-8.88,8.62,8.544,8.544,0,0,1-8.84-8.57Zm13.89,0V65.7a5.067,5.067,0,0,0-5.05-5.24,4.984,4.984,0,0,0-5,5.19v.05a5.067,5.067,0,0,0,5.05,5.24A4.984,4.984,0,0,0,32.56,65.75Z" transform="translate(137.042 1103)" fill="#fff"/>
      <path id="Tracé_1438" data-name="Tracé 1438" d="M42.82,60.75H37.75V57.37H51.56v3.38H46.49V74.04H42.82Z" transform="translate(137.042 1103)" fill="#fff"/>
      <path id="Tracé_1439" data-name="Tracé 1439" d="M51.82,67.73v-.05a6.365,6.365,0,0,1,6.31-6.65c4.26,0,6.22,3.31,6.22,6.93,0,.29-.02.62-.05.95H55.42a2.964,2.964,0,0,0,3.12,2.5,4.194,4.194,0,0,0,3.1-1.31l2.07,1.83a6.748,6.748,0,0,1-11.89-4.22Zm9-1.07c-.21-1.62-1.17-2.72-2.69-2.72s-2.48,1.07-2.76,2.72h5.45Z" transform="translate(137.042 1103)" fill="#20e062"/>
      <path id="Tracé_1440" data-name="Tracé 1440" d="M67.45,57.36h6.5c5.24,0,8.86,3.6,8.86,8.29v.05c0,4.69-3.62,8.34-8.86,8.34h-6.5V57.37Zm6.5,13.36a4.753,4.753,0,0,0,5.03-4.98v-.05a4.792,4.792,0,0,0-5.03-5.03H71.12V70.71h2.83Z" transform="translate(137.042 1103)" fill="#20e062"/>
      <path id="Tracé_1441" data-name="Tracé 1441" d="M86.07,57.36h3.38l7.81,10.27V57.36h3.62V74.03H97.76l-8.07-10.6v10.6H86.07V57.36Z" transform="translate(137.042 1103)" fill="#20e062"/>
      <path id="Tracé_1442" data-name="Tracé 1442" d="M110.6,57.24h3.38l7.15,16.79H117.3l-1.52-3.74h-7.05l-1.52,3.74h-3.74l7.15-16.79Zm3.86,9.81-2.22-5.41-2.22,5.41h4.43Z" transform="translate(137.042 1103)" fill="#20e062"/>
    </g>
    <g id="Groupe_451" data-name="Groupe 451">
      <path id="Tracé_1443" data-name="Tracé 1443" d="M76.4,14.22l4.39-2.54a23.164,23.164,0,0,0-8.54-8.57l-2.54,4.4a18.21,18.21,0,0,1,6.68,6.71Z" transform="translate(137.042 1103)" fill="#31b4db"/>
      <path id="Tracé_1444" data-name="Tracé 1444" d="M69.71,7.51h0l2.54-4.4h0A23.134,23.134,0,0,0,60.56,0V5.07A18.268,18.268,0,0,1,69.71,7.5Z" transform="translate(137.042 1103)" fill="#36dfd2"/>
      <path id="Tracé_1445" data-name="Tracé 1445" d="M78.85,23.36h5.08A23.6,23.6,0,0,0,80.8,11.68l-4.39,2.54a18.458,18.458,0,0,1,2.45,9.14Z" transform="translate(137.042 1103)" fill="#2f9ae6"/>
      <path id="Tracé_1446" data-name="Tracé 1446" d="M78.85,23.36a18.268,18.268,0,0,1-2.43,9.15v.01l4.4,2.54v-.01a23.187,23.187,0,0,0,3.11-11.69H78.85Z" transform="translate(137.042 1103)" fill="#2c62cb"/>
      <path id="Tracé_1447" data-name="Tracé 1447" d="M69.7,39.19l2.54,4.39a23.156,23.156,0,0,0,8.56-8.52l-4.4-2.54a18.231,18.231,0,0,1-6.7,6.67Z" transform="translate(137.042 1103)" fill="#072d99"/>
      <path id="Tracé_1448" data-name="Tracé 1448" d="M60.56,41.64v5.08a23.6,23.6,0,0,0,11.68-3.13L69.7,39.2a18.458,18.458,0,0,1-9.14,2.45Z" transform="translate(137.042 1103)" fill="#2c62cb"/>
      <path id="Tracé_1449" data-name="Tracé 1449" d="M48.88,3.13l2.54,4.39a18.458,18.458,0,0,1,9.14-2.45V0A23.6,23.6,0,0,0,48.88,3.13Z" transform="translate(137.042 1103)" fill="#75f9c6"/>
      <path id="Tracé_1450" data-name="Tracé 1450" d="M44.71,14.21a18.21,18.21,0,0,1,6.71-6.68L48.88,3.14a23.164,23.164,0,0,0-8.57,8.54v.01l4.4,2.54v-.01Z" transform="translate(137.042 1103)" fill="#20e062"/>
      <path id="Tracé_1451" data-name="Tracé 1451" d="M44.71,14.22l-4.4-2.54a23.214,23.214,0,0,0-3.1,11.68h5.08a18.232,18.232,0,0,1,2.43-9.14Z" transform="translate(137.042 1103)" fill="#75f9c6"/>
      <path id="Tracé_1452" data-name="Tracé 1452" d="M42.28,23.36H37.2a23.6,23.6,0,0,0,3.13,11.68l4.39-2.54a18.458,18.458,0,0,1-2.45-9.14Z" transform="translate(137.042 1103)" fill="#36dfd2"/>
      <path id="Tracé_1453" data-name="Tracé 1453" d="M64.95,20.83a5.046,5.046,0,0,0-1.86-1.84,5.122,5.122,0,0,0-2.53-.7,5,5,0,0,0-2.55.65l2.55,4.42h-.03l-4.41-2.55a5.265,5.265,0,0,0-.69,2.55,5.114,5.114,0,0,0,.66,2.58,5.055,5.055,0,0,0,1.9,1.86,5.136,5.136,0,0,0,2.56.68,5.012,5.012,0,0,0,2.52-.67c.01,0,.02-.02.04-.03a4.968,4.968,0,0,0,1.83-1.87,5.166,5.166,0,0,0,.67-2.55,5.036,5.036,0,0,0-.66-2.53Z" transform="translate(137.042 1103)" fill="#20e062"/>
      <path id="Tracé_1454" data-name="Tracé 1454" d="M51.41,39.21l-2.54,4.4a23.187,23.187,0,0,0,11.69,3.11V41.64a18.268,18.268,0,0,1-9.15-2.43Z" transform="translate(137.042 1103)" fill="#2f9ae6"/>
      <path id="Tracé_1455" data-name="Tracé 1455" d="M44.73,32.5l-4.39,2.54a23.164,23.164,0,0,0,8.54,8.57h0l2.54-4.4h0a18.21,18.21,0,0,1-6.68-6.71Z" transform="translate(137.042 1103)" fill="#31b4db"/>
    </g>
  </g>
</svg>