<svg xmlns="http://www.w3.org/2000/svg" width="237.166" height="166.499" viewBox="0 0 237.166 166.499">
  <g id="Groupe_680" data-name="Groupe 680" transform="translate(-409.262 -336.639)">
    <path id="Tracé_982" data-name="Tracé 982" d="M181.714,191.415v-.092a16.757,16.757,0,0,1,17.117-16.884c5.876,0,9.42,1.585,12.825,4.478l-4.524,5.455a12.023,12.023,0,0,0-8.536-3.31c-5.222,0-9.373,4.616-9.373,10.167v.094c0,5.97,4.1,10.353,9.888,10.353a11.452,11.452,0,0,0,6.762-1.959v-4.663h-7.229v-6.2h14.178v14.178a21.2,21.2,0,0,1-13.945,5.176c-10.166,0-17.163-7.135-17.163-16.79" transform="translate(227.548 273.96)" fill="#2241a7"/>
    <path id="Tracé_983" data-name="Tracé 983" d="M209.779,191.415v-.092c0-9.282,7.323-16.884,17.4-16.884s17.3,7.509,17.3,16.79v.094c0,9.281-7.323,16.882-17.4,16.882s-17.3-7.508-17.3-16.79m27.191,0v-.092c0-5.6-4.1-10.26-9.888-10.26s-9.794,4.569-9.794,10.167v.094c0,5.6,4.1,10.259,9.888,10.259s9.794-4.569,9.794-10.166" transform="translate(236.04 273.96)" fill="#2241a7"/>
    <path id="Tracé_984" data-name="Tracé 984" d="M248.387,181.491h-9.933v-6.622H265.5v6.622h-9.935v26.024h-7.182Z" transform="translate(244.715 274.09)" fill="#2241a7"/>
    <path id="Tracé_985" data-name="Tracé 985" d="M259.607,193.488v-.094c0-7.135,5.084-13.011,12.359-13.011,8.348,0,12.172,6.483,12.172,13.571,0,.56-.047,1.213-.094,1.865H266.65a5.8,5.8,0,0,0,6.109,4.9,8.192,8.192,0,0,0,6.063-2.566l4.057,3.591a12.5,12.5,0,0,1-10.213,4.664c-7.509,0-13.059-5.27-13.059-12.919m17.629-2.1c-.419-3.172-2.285-5.317-5.27-5.317-2.937,0-4.849,2.1-5.41,5.317Z" transform="translate(251.116 275.758)" fill="#20e062"/>
    <path id="Tracé_986" data-name="Tracé 986" d="M283.1,174.869h12.731c10.26,0,17.35,7.042,17.35,16.23v.094c0,9.187-7.09,16.322-17.35,16.322H283.1Zm12.731,26.163c5.876,0,9.841-3.964,9.841-9.747v-.092c0-5.783-3.965-9.841-9.841-9.841h-5.55v19.68Z" transform="translate(258.224 274.09)" fill="#20e062"/>
    <path id="Tracé_987" data-name="Tracé 987" d="M311.093,174.869h6.622l15.3,20.1v-20.1h7.09v32.646h-6.11l-15.811-20.754v20.754h-7.089Z" transform="translate(266.693 274.09)" fill="#20e062"/>
    <path id="Tracé_988" data-name="Tracé 988" d="M351.215,174.689h6.623l13.991,32.881h-7.507l-2.985-7.323H347.531l-2.985,7.323h-7.322Zm7.556,19.215-4.337-10.586L350.1,193.9Z" transform="translate(274.6 274.035)" fill="#20e062"/>
    <path id="Tracé_989" data-name="Tracé 989" d="M299.591,115.065l8.6-4.968a45.446,45.446,0,0,0-16.713-16.785l-4.973,8.615a35.569,35.569,0,0,1,13.082,13.138" transform="translate(259.255 249.414)" fill="#75f9c6"/>
    <path id="Tracé_990" data-name="Tracé 990" d="M290.671,103.34h0l4.974-8.615h0a45.349,45.349,0,0,0-22.891-6.086v9.937a35.5,35.5,0,0,1,17.918,4.763" transform="translate(255.093 248)" fill="#36dfd2"/>
    <path id="Tracé_991" data-name="Tracé 991" d="M301.351,129.063h9.937a46.212,46.212,0,0,0-6.131-22.866l-8.6,4.968a36.168,36.168,0,0,1,4.8,17.9" transform="translate(262.294 253.312)" fill="#2f9ae6"/>
    <path id="Tracé_992" data-name="Tracé 992" d="M301.346,123.752a35.477,35.477,0,0,1-4.763,17.919l-.014.022,8.615,4.973.014-.021a45.335,45.335,0,0,0,6.086-22.894Z" transform="translate(262.299 258.624)" fill="#2c62cb"/>
    <path id="Tracé_993" data-name="Tracé 993" d="M286.494,150.585l4.968,8.606A45.436,45.436,0,0,0,308.231,142.5l-8.614-4.973a35.567,35.567,0,0,1-13.123,13.059" transform="translate(259.251 262.791)" fill="#2241a7"/>
    <path id="Tracé_994" data-name="Tracé 994" d="M272.753,152.35v9.937a46.2,46.2,0,0,0,22.866-6.13l-4.968-8.6a36.177,36.177,0,0,1-17.9,4.8" transform="translate(255.093 265.825)" fill="#2c62cb"/>
    <path id="Tracé_995" data-name="Tracé 995" d="M255.2,94.77l4.968,8.6a36.165,36.165,0,0,1,17.9-4.8V88.639A46.216,46.216,0,0,0,255.2,94.77" transform="translate(249.782 248)" fill="#75f9c6"/>
    <path id="Tracé_996" data-name="Tracé 996" d="M250.929,115.034a35.565,35.565,0,0,1,13.139-13.083l-4.968-8.6a45.444,45.444,0,0,0-16.786,16.714l-.012.023,8.615,4.973.012-.023" transform="translate(245.88 249.424)" fill="#20e062"/>
    <path id="Tracé_997" data-name="Tracé 997" d="M252.328,111.17l-8.615-4.973a45.332,45.332,0,0,0-6.073,22.868h9.937a35.479,35.479,0,0,1,4.75-17.895" transform="translate(244.469 253.312)" fill="#75f9c6"/>
    <path id="Tracé_998" data-name="Tracé 998" d="M247.577,123.752H237.64a46.212,46.212,0,0,0,6.131,22.866l8.6-4.968a36.168,36.168,0,0,1-4.8-17.9" transform="translate(244.469 258.624)" fill="#36dfd2"/>
    <path id="Tracé_999" data-name="Tracé 999" d="M283.676,121.1a9.9,9.9,0,0,0-3.646-3.6,10.119,10.119,0,0,0-4.946-1.368,9.849,9.849,0,0,0-5,1.277l5,8.656h-.053l-8.637-4.986a10.141,10.141,0,0,0-1.349,4.986,9.719,9.719,0,0,0,5.02,8.7,10.13,10.13,0,0,0,5.02,1.321,9.8,9.8,0,0,0,4.929-1.308c.026-.014.046-.035.07-.051a9.8,9.8,0,0,0,3.586-3.671,10.12,10.12,0,0,0,1.3-4.988,9.886,9.886,0,0,0-1.3-4.96" transform="translate(252.761 256.317)" fill="#20e062"/>
    <path id="Tracé_1000" data-name="Tracé 1000" d="M260.151,147.579l-4.973,8.615a45.356,45.356,0,0,0,22.891,6.086v-9.939a35.488,35.488,0,0,1-17.918-4.762" transform="translate(249.776 265.833)" fill="#2f9ae6"/>
    <path id="Tracé_1001" data-name="Tracé 1001" d="M250.952,137.493l-8.6,4.968a45.434,45.434,0,0,0,16.713,16.783l4.973-8.614a35.577,35.577,0,0,1-13.082-13.138" transform="translate(245.894 262.781)" fill="#75f9c6"/>
    <path id="Tracé_1002" data-name="Tracé 1002" d="M209.941,213.347v-.02a3.6,3.6,0,0,1,3.663-3.675,3.705,3.705,0,0,1,2.782,1.107l-.8.924a2.828,2.828,0,0,0-1.989-.883,2.385,2.385,0,0,0-2.345,2.506v.021a2.4,2.4,0,0,0,2.345,2.527,2.788,2.788,0,0,0,2.04-.924l.8.811a3.663,3.663,0,0,1-2.883,1.26,3.574,3.574,0,0,1-3.612-3.655" transform="translate(236.089 284.614)" fill="#2241a7"/>
    <path id="Tracé_1003" data-name="Tracé 1003" d="M215.514,213.813v-.021A2.661,2.661,0,0,1,218.133,211a2.592,2.592,0,0,1,2.567,2.884c0,.111-.01.221-.02.344h-3.939a1.5,1.5,0,0,0,1.542,1.361,1.943,1.943,0,0,0,1.451-.641l.722.641a2.714,2.714,0,0,1-2.192,1,2.674,2.674,0,0,1-2.751-2.781m3.969-.4a1.391,1.391,0,0,0-1.36-1.411,1.451,1.451,0,0,0-1.391,1.411Z" transform="translate(237.775 285.022)" fill="#2241a7"/>
    <path id="Tracé_1004" data-name="Tracé 1004" d="M220.441,211.113h1.228v.832a1.928,1.928,0,0,1,1.674-.944,1.841,1.841,0,0,1,1.91,2.061v3.41h-1.228v-3.045c0-.832-.416-1.309-1.148-1.309a1.192,1.192,0,0,0-1.207,1.33v3.025h-1.228Z" transform="translate(239.266 285.022)" fill="#2241a7"/>
    <path id="Tracé_1005" data-name="Tracé 1005" d="M225.62,215.306v-2.821h-.68V211.43h.68v-1.472h1.228v1.472h1.442v1.055h-1.442v2.629a.584.584,0,0,0,.659.669,1.658,1.658,0,0,0,.761-.182v1a2.151,2.151,0,0,1-1.106.275,1.374,1.374,0,0,1-1.542-1.574" transform="translate(240.627 284.706)" fill="#2241a7"/>
    <path id="Tracé_1006" data-name="Tracé 1006" d="M228.459,211.111h1.227v1.207a1.9,1.9,0,0,1,1.9-1.309v1.3h-.07c-1.076,0-1.828.7-1.828,2.119v2.041h-1.227Z" transform="translate(241.692 285.024)" fill="#2241a7"/>
    <path id="Tracé_1007" data-name="Tracé 1007" d="M234.842,216.464v-.66a2.167,2.167,0,0,1-1.735.772,1.716,1.716,0,0,1-1.908-1.654V214.9c0-1.187.923-1.756,2.171-1.756a4.528,4.528,0,0,1,1.482.223v-.1c0-.74-.468-1.146-1.32-1.146a3.75,3.75,0,0,0-1.533.335l-.335-.985a4.606,4.606,0,0,1,2.04-.445,2.066,2.066,0,0,1,2.354,2.263v3.177Zm.03-2.243a3.484,3.484,0,0,0-1.227-.214c-.772,0-1.228.315-1.228.832v.021c0,.507.456.791,1.036.791.811,0,1.42-.456,1.42-1.125Z" transform="translate(242.521 285.029)" fill="#2241a7"/>
    <rect id="Rectangle_1266" data-name="Rectangle 1266" width="1.228" height="7.408" transform="translate(480.107 494.086)" fill="#2241a7"/>
    <path id="Tracé_1008" data-name="Tracé 1008" d="M238.29,209.561h1.32v1.166h-1.32Zm.051,1.988h1.228v5.359h-1.228Z" transform="translate(244.666 284.586)" fill="#2241a7"/>
    <path id="Tracé_1009" data-name="Tracé 1009" d="M240.314,215.6l3.1-3.512h-2.984v-1h4.546v.843l-3.095,3.51h3.095v1.006h-4.658Z" transform="translate(245.278 285.048)" fill="#2241a7"/>
    <path id="Tracé_1010" data-name="Tracé 1010" d="M244.517,213.813v-.021A2.661,2.661,0,0,1,247.136,211a2.592,2.592,0,0,1,2.567,2.884c0,.111-.01.221-.021.344h-3.938a1.5,1.5,0,0,0,1.542,1.361,1.943,1.943,0,0,0,1.451-.641l.722.641a2.712,2.712,0,0,1-2.192,1,2.674,2.674,0,0,1-2.751-2.781m3.969-.4a1.391,1.391,0,0,0-1.36-1.411,1.451,1.451,0,0,0-1.391,1.411Z" transform="translate(246.55 285.022)" fill="#2241a7"/>
    <path id="Tracé_1011" data-name="Tracé 1011" d="M249.234,214.253v-.021a2.558,2.558,0,0,1,2.487-2.781,2.217,2.217,0,0,1,1.826.944v-2.883h1.228v7.409h-1.228v-.894a2.146,2.146,0,0,1-1.826,1.006,2.569,2.569,0,0,1-2.487-2.781m4.334,0v-.021a1.608,1.608,0,0,0-1.553-1.714,1.57,1.57,0,0,0-1.544,1.714v.021a1.6,1.6,0,0,0,1.544,1.714,1.614,1.614,0,0,0,1.553-1.714" transform="translate(247.977 284.572)" fill="#2241a7"/>
    <path id="Tracé_1012" data-name="Tracé 1012" d="M257.011,209.561h1.319v1.166h-1.319Zm.051,1.988h1.227v5.359h-1.227Z" transform="translate(250.33 284.586)" fill="#2241a7"/>
    <path id="Tracé_1013" data-name="Tracé 1013" d="M259.221,211.113h1.228v.832a1.928,1.928,0,0,1,1.674-.944,1.841,1.841,0,0,1,1.91,2.061v3.41H262.8v-3.045c0-.832-.415-1.309-1.148-1.309a1.192,1.192,0,0,0-1.207,1.33v3.025h-1.228Z" transform="translate(250.999 285.022)" fill="#2241a7"/>
    <path id="Tracé_1014" data-name="Tracé 1014" d="M264.4,215.306v-2.821h-.68V211.43h.68v-1.472h1.228v1.472h1.442v1.055h-1.442v2.629a.584.584,0,0,0,.659.669,1.658,1.658,0,0,0,.761-.182v1a2.151,2.151,0,0,1-1.106.275,1.374,1.374,0,0,1-1.542-1.574" transform="translate(252.36 284.706)" fill="#2241a7"/>
    <path id="Tracé_1015" data-name="Tracé 1015" d="M266.9,213.813v-.021A2.661,2.661,0,0,1,269.514,211a2.592,2.592,0,0,1,2.567,2.884c0,.111-.01.221-.021.344h-3.938a1.5,1.5,0,0,0,1.542,1.361,1.943,1.943,0,0,0,1.451-.641l.722.641a2.713,2.713,0,0,1-2.192,1,2.674,2.674,0,0,1-2.751-2.781m3.969-.4a1.391,1.391,0,0,0-1.36-1.411,1.451,1.451,0,0,0-1.391,1.411Z" transform="translate(253.321 285.022)" fill="#2241a7"/>
    <path id="Tracé_1016" data-name="Tracé 1016" d="M271.823,211.111h1.227v1.207a1.9,1.9,0,0,1,1.9-1.309v1.3h-.07c-1.076,0-1.827.7-1.827,2.119v2.041h-1.227Z" transform="translate(254.812 285.024)" fill="#2241a7"/>
    <path id="Tracé_1017" data-name="Tracé 1017" d="M278.206,216.464v-.66a2.167,2.167,0,0,1-1.735.772,1.716,1.716,0,0,1-1.908-1.654V214.9c0-1.187.924-1.756,2.171-1.756a4.528,4.528,0,0,1,1.482.223v-.1c0-.74-.468-1.146-1.32-1.146a3.749,3.749,0,0,0-1.533.335l-.335-.985a4.606,4.606,0,0,1,2.04-.445,2.066,2.066,0,0,1,2.354,2.263v3.177Zm.03-2.243a3.484,3.484,0,0,0-1.227-.214c-.772,0-1.228.315-1.228.832v.021c0,.507.456.791,1.036.791.811,0,1.42-.456,1.42-1.125Z" transform="translate(255.641 285.029)" fill="#2241a7"/>
    <path id="Tracé_1018" data-name="Tracé 1018" d="M279.186,213.823v-.02a2.764,2.764,0,0,1,2.781-2.8,2.676,2.676,0,0,1,2.141.923l-.761.822a1.806,1.806,0,0,0-1.391-.669,1.608,1.608,0,0,0-1.542,1.7v.022a1.631,1.631,0,0,0,1.6,1.725,1.886,1.886,0,0,0,1.39-.67l.741.731a2.81,2.81,0,0,1-4.963-1.766" transform="translate(257.04 285.022)" fill="#2241a7"/>
    <path id="Tracé_1019" data-name="Tracé 1019" d="M284.21,215.306v-2.821h-.68V211.43h.68v-1.472h1.228v1.472h1.441v1.055h-1.441v2.629a.584.584,0,0,0,.659.669,1.658,1.658,0,0,0,.761-.182v1a2.154,2.154,0,0,1-1.106.275,1.374,1.374,0,0,1-1.542-1.574" transform="translate(258.354 284.706)" fill="#2241a7"/>
    <path id="Tracé_1020" data-name="Tracé 1020" d="M287.064,209.561h1.319v1.166h-1.319Zm.051,1.988h1.227v5.359h-1.227Z" transform="translate(259.423 284.586)" fill="#2241a7"/>
    <path id="Tracé_1021" data-name="Tracé 1021" d="M288.885,211.087H290.2l1.441,3.938,1.452-3.938h1.288l-2.192,5.4h-1.106Z" transform="translate(259.974 285.048)" fill="#2241a7"/>
    <path id="Tracé_1022" data-name="Tracé 1022" d="M293.446,213.813v-.021A2.661,2.661,0,0,1,296.065,211a2.592,2.592,0,0,1,2.567,2.884c0,.111-.01.221-.02.344h-3.939a1.5,1.5,0,0,0,1.542,1.361,1.943,1.943,0,0,0,1.451-.641l.722.641a2.714,2.714,0,0,1-2.192,1,2.674,2.674,0,0,1-2.751-2.781m3.969-.4a1.391,1.391,0,0,0-1.36-1.411,1.451,1.451,0,0,0-1.391,1.411Z" transform="translate(261.354 285.022)" fill="#2241a7"/>
    <path id="Tracé_1023" data-name="Tracé 1023" d="M300.762,217.476l.457-.924a3.483,3.483,0,0,0,1.907.569,1.5,1.5,0,0,0,1.7-1.644v-.417a2.245,2.245,0,0,1-1.887.985,2.408,2.408,0,0,1-2.436-2.507v-.02A2.418,2.418,0,0,1,302.935,211a2.314,2.314,0,0,1,1.877.913v-.8h1.228v4.262a2.742,2.742,0,0,1-.68,2.02,3.018,3.018,0,0,1-2.2.72,4.611,4.611,0,0,1-2.4-.64m4.07-3.938v-.02a1.5,1.5,0,0,0-1.573-1.482,1.448,1.448,0,0,0-1.523,1.472v.021a1.462,1.462,0,0,0,1.523,1.481,1.5,1.5,0,0,0,1.573-1.472" transform="translate(263.488 285.022)" fill="#2241a7"/>
    <path id="Tracé_1024" data-name="Tracé 1024" d="M305.878,214.5v-3.41H307.1v3.045c0,.832.417,1.308,1.149,1.308a1.191,1.191,0,0,0,1.207-1.329v-3.025h1.227v5.359H309.46v-.832a1.932,1.932,0,0,1-1.676.944,1.84,1.84,0,0,1-1.906-2.061" transform="translate(265.116 285.048)" fill="#2241a7"/>
    <path id="Tracé_1025" data-name="Tracé 1025" d="M310.766,209.561h1.32v1.166h-1.32Zm.049,1.988h1.227v5.359h-1.227Z" transform="translate(266.594 284.586)" fill="#2241a7"/>
    <path id="Tracé_1026" data-name="Tracé 1026" d="M312.766,214.253v-.021a2.558,2.558,0,0,1,2.487-2.781,2.217,2.217,0,0,1,1.826.944v-2.883h1.228v7.409h-1.228v-.894a2.148,2.148,0,0,1-1.826,1.006,2.569,2.569,0,0,1-2.487-2.781m4.332,0v-.021a1.607,1.607,0,0,0-1.553-1.714A1.57,1.57,0,0,0,314,214.232v.021a1.594,1.594,0,0,0,1.542,1.714,1.612,1.612,0,0,0,1.553-1.714" transform="translate(267.2 284.572)" fill="#2241a7"/>
    <path id="Tracé_1027" data-name="Tracé 1027" d="M321.554,216.464v-.66a2.167,2.167,0,0,1-1.735.772,1.716,1.716,0,0,1-1.908-1.654V214.9c0-1.187.923-1.756,2.171-1.756a4.528,4.528,0,0,1,1.482.223v-.1c0-.74-.468-1.146-1.32-1.146a3.749,3.749,0,0,0-1.533.335l-.335-.985a4.606,4.606,0,0,1,2.04-.445,2.066,2.066,0,0,1,2.354,2.263v3.177Zm.03-2.243a3.484,3.484,0,0,0-1.227-.214c-.772,0-1.228.315-1.228.832v.021c0,.507.456.791,1.036.791.812,0,1.42-.456,1.42-1.125Z" transform="translate(268.756 285.029)" fill="#2241a7"/>
    <path id="Tracé_1028" data-name="Tracé 1028" d="M322.761,211.113h1.227v.832a1.929,1.929,0,0,1,1.675-.944,1.841,1.841,0,0,1,1.908,2.061v3.41h-1.228v-3.045c0-.832-.417-1.309-1.146-1.309a1.193,1.193,0,0,0-1.209,1.33v3.025h-1.227Z" transform="translate(270.224 285.022)" fill="#2241a7"/>
    <path id="Tracé_1029" data-name="Tracé 1029" d="M327.36,213.823v-.02a2.764,2.764,0,0,1,2.781-2.8,2.676,2.676,0,0,1,2.141.923l-.761.822a1.8,1.8,0,0,0-1.391-.669,1.608,1.608,0,0,0-1.542,1.7v.022a1.631,1.631,0,0,0,1.6,1.725,1.886,1.886,0,0,0,1.39-.67l.741.731a2.81,2.81,0,0,1-4.963-1.766" transform="translate(271.615 285.022)" fill="#2241a7"/>
    <path id="Tracé_1030" data-name="Tracé 1030" d="M331.688,213.813v-.021A2.661,2.661,0,0,1,334.307,211a2.592,2.592,0,0,1,2.567,2.884c0,.111-.01.221-.021.344h-3.938a1.5,1.5,0,0,0,1.542,1.361,1.943,1.943,0,0,0,1.451-.641l.722.641a2.712,2.712,0,0,1-2.192,1,2.674,2.674,0,0,1-2.751-2.781m3.969-.4a1.391,1.391,0,0,0-1.36-1.411,1.451,1.451,0,0,0-1.391,1.411Z" transform="translate(272.925 285.022)" fill="#2241a7"/>
  </g>
</svg>
