<?xml version="1.0" encoding="UTF-8" standalone="no"?>
<!-- Created with Inkscape (http://www.inkscape.org/) -->

<svg
   width="67.341858mm"
   height="23.353104mm"
   viewBox="0 0 67.341858 23.353104"
   version="1.1"
   id="svg3568"
   inkscape:version="1.2.2 (b0a8486541, 2022-12-01)"
   sodipodi:docname="DFO_logo_sq.svg"
   inkscape:export-filename="DFO_logo.png"
   inkscape:export-xdpi="300"
   inkscape:export-ydpi="300"
   xmlns:inkscape="http://www.inkscape.org/namespaces/inkscape"
   xmlns:sodipodi="http://sodipodi.sourceforge.net/DTD/sodipodi-0.dtd"
   xmlns="http://www.w3.org/2000/svg"
   xmlns:svg="http://www.w3.org/2000/svg"
   xmlns:rdf="http://www.w3.org/1999/02/22-rdf-syntax-ns#"
   xmlns:cc="http://creativecommons.org/ns#"
   xmlns:dc="http://purl.org/dc/elements/1.1/">
  <title
     id="title4221">DFO logo</title>
  <defs
     id="defs3562" />
  <sodipodi:namedview
     id="base"
     pagecolor="#ffffff"
     bordercolor="#666666"
     borderopacity="1.0"
     inkscape:pageopacity="0.0"
     inkscape:pageshadow="2"
     inkscape:zoom="1.4"
     inkscape:cx="-302.85714"
     inkscape:cy="573.57143"
     inkscape:document-units="mm"
     inkscape:current-layer="layer1"
     showgrid="false"
     inkscape:pagecheckerboard="true"
     inkscape:window-width="1920"
     inkscape:window-height="1043"
     inkscape:window-x="838"
     inkscape:window-y="2160"
     inkscape:window-maximized="1"
     inkscape:showpageshadow="2"
     inkscape:deskcolor="#d1d1d1" />
  <metadata
     id="metadata3565">
    <rdf:RDF>
      <cc:Work
         rdf:about="">
        <dc:format>image/svg+xml</dc:format>
        <dc:type
           rdf:resource="http://purl.org/dc/dcmitype/StillImage" />
        <dc:title>DFO logo</dc:title>
      </cc:Work>
    </rdf:RDF>
  </metadata>
  <g
     inkscape:label="Layer 1"
     inkscape:groupmode="layer"
     id="layer1"
     transform="translate(0.37674514,-0.65360497)">
    <g
       transform="translate(120.33157,-91.427827)"
       style="display:inline;opacity:1"
       id="g3500">
      <g
         transform="matrix(1.131088,0,0,1.131088,8.3259543,-14.712366)"
         id="g10824">
        <path
           style="fill:#ffffff;stroke-width:0.264583"
           inkscape:connector-curvature="0"
           id="Tracé_2292"
           data-name="Tracé 2292"
           d="m -92.771761,94.515513 v 2.878138 h 0.383381 v -1.316038 h 1.322917 v -0.326231 h -1.322917 v -0.909638 h 1.504686 v -0.326231 z" />
        <path
           style="fill:#ffffff;stroke-width:0.264583"
           inkscape:connector-curvature="0"
           id="Tracé_2293"
           data-name="Tracé 2293"
           d="m -90.498461,94.938846 h 0.342371 v -0.423333 h -0.343959 z m 0,2.45454 h 0.342371 v -2.0828 h -0.343959 z" />
        <path
           style="fill:#ffffff;stroke-width:0.264583"
           inkscape:connector-curvature="0"
           id="Tracé_2294"
           data-name="Tracé 2294"
           d="m -89.488811,95.425151 a 0.49529999,0.49529999 0 0 0 -0.217488,0.429154 0.47624999,0.47624999 0 0 0 0.160338,0.37756 1.2379854,1.2379854 0 0 0 0.549275,0.217488 1.5875,1.5875 0 0 1 0.5207,0.15875 0.24976666,0.24976666 0 0 1 0.125677,0.217487 0.26220208,0.26220208 0 0 1 -0.125677,0.234686 0.88714791,0.88714791 0 0 1 -0.783961,-0.02302 0.3683,0.3683 0 0 1 -0.148695,-0.303213 h -0.343959 a 0.65801874,0.65801874 0 0 0 0.246063,0.532077 1.0239375,1.0239375 0 0 0 0.635,0.177536 1.0472208,1.0472208 0 0 0 0.646377,-0.177536 0.56329791,0.56329791 0 0 0 0.240506,-0.480483 0.46857708,0.46857708 0 0 0 -0.160602,-0.370681 0.96572915,0.96572915 0 0 0 -0.457729,-0.205846 l -0.320411,-0.07435 a 0.99694999,0.99694999 0 0 1 -0.32041,-0.114565 0.22198541,0.22198541 0 0 1 -0.102923,-0.188912 0.21457708,0.21457708 0 0 1 0.1143,-0.194469 0.63685208,0.63685208 0 0 1 0.331788,-0.07435 0.55985833,0.55985833 0 0 1 0.332052,0.09155 0.34395833,0.34395833 0 0 1 0.148695,0.25744 h 0.343959 a 0.63499999,0.63499999 0 0 0 -0.228071,-0.480484 0.97154999,0.97154999 0 0 0 -0.623623,-0.166158 0.94165207,0.94165207 0 0 0 -0.560652,0.160338" />
        <path
           style="fill:#ffffff;stroke-width:0.264583"
           inkscape:connector-curvature="0"
           id="Tracé_2295"
           data-name="Tracé 2295"
           d="m -87.606301,94.515513 v 2.878138 h 0.343959 v -1.190625 a 0.65828333,0.65828333 0 0 1 0.159543,-0.457465 0.57943749,0.57943749 0 0 1 0.451909,-0.183092 0.41618958,0.41618958 0 0 1 0.314854,0.120386 0.39158333,0.39158333 0 0 1 0.1143,0.286014 v 1.424782 h 0.343958 v -1.38483 a 0.78951666,0.78951666 0 0 0 -0.171714,-0.549275 0.70088124,0.70088124 0 0 0 -0.549275,-0.194468 0.90619791,0.90619791 0 0 0 -0.406136,0.09154 0.52228749,0.52228749 0 0 0 -0.251883,0.264584 h -0.0056 v -1.105694 z" />
        <path
           style="fill:#ffffff;stroke-width:0.264583"
           inkscape:connector-curvature="0"
           id="Tracé_2296"
           data-name="Tracé 2296"
           d="m -85.205472,95.574111 a 1.1001375,1.1001375 0 0 0 -0.274637,0.767292 1.4268979,1.4268979 0 0 0 0.108744,0.543454 0.86359999,0.86359999 0 0 0 0.337608,0.411956 0.99800832,0.99800832 0 0 0 0.555625,0.148696 0.90117082,0.90117082 0 0 0 0.583671,-0.183092 0.85328124,0.85328124 0 0 0 0.303212,-0.532077 h -0.337608 a 0.49979791,0.49979791 0 0 1 -0.177271,0.309033 0.57467499,0.57467499 0 0 1 -0.360362,0.102923 0.61409791,0.61409791 0 0 1 -0.474927,-0.183091 0.67177707,0.67177707 0 0 1 -0.171715,-0.480484 v -0.02355 h 1.556279 v -0.03995 a 1.3319125,1.3319125 0 0 0 -0.246062,-0.829733 0.83132082,0.83132082 0 0 0 -0.697971,-0.32041 0.90699166,0.90699166 0 0 0 -0.703792,0.309033 m 0.274638,0.148696 a 0.57837916,0.57837916 0 0 1 0.406135,-0.160338 0.55932916,0.55932916 0 0 1 0.417777,0.171715 0.62177083,0.62177083 0 0 1 0.188913,0.417777 h -1.195917 a 0.62441666,0.62441666 0 0 1 0.183092,-0.429154" />
        <path
           style="fill:#ffffff;stroke-width:0.264583"
           inkscape:connector-curvature="0"
           id="Tracé_2297"
           data-name="Tracé 2297"
           d="m -82.589007,95.379378 a 0.93053957,0.93053957 0 0 0 -0.291042,0.372004 h -0.01138 v -0.440796 h -0.32041 v 2.0828 h 0.343958 v -0.93345 a 0.90963749,0.90963749 0 0 1 0.183092,-0.629444 0.71913749,0.71913749 0 0 1 0.566473,-0.205846 v -0.359833 a 0.08122708,0.08122708 0 0 0 -0.02276,-0.0056 h -0.02461 a 0.73316041,0.73316041 0 0 0 -0.423333,0.120121" />
        <path
           style="fill:#ffffff;stroke-width:0.264583"
           inkscape:connector-curvature="0"
           id="Tracé_2298"
           data-name="Tracé 2298"
           d="m -81.843147,94.938846 h 0.343959 v -0.423333 h -0.343959 z m 0,2.45454 h 0.343959 v -2.0828 h -0.343959 z" />
        <path
           style="fill:#ffffff;stroke-width:0.264583"
           inkscape:connector-curvature="0"
           id="Tracé_2299"
           data-name="Tracé 2299"
           d="m -80.804922,95.574111 a 1.1001375,1.1001375 0 0 0 -0.274637,0.767292 1.4268979,1.4268979 0 0 0 0.108744,0.543454 0.86359999,0.86359999 0 0 0 0.337608,0.411956 0.99800832,0.99800832 0 0 0 0.555625,0.148696 0.90117082,0.90117082 0 0 0 0.583671,-0.183092 0.85328124,0.85328124 0 0 0 0.303212,-0.532077 h -0.337608 a 0.49979791,0.49979791 0 0 1 -0.177271,0.309033 0.57467499,0.57467499 0 0 1 -0.360362,0.102923 0.61409791,0.61409791 0 0 1 -0.474928,-0.183091 0.67177707,0.67177707 0 0 1 -0.171714,-0.480484 v -0.02355 h 1.556279 v -0.03995 a 1.3319125,1.3319125 0 0 0 -0.246062,-0.829733 0.83132082,0.83132082 0 0 0 -0.699559,-0.32041 0.90699166,0.90699166 0 0 0 -0.703791,0.309033 m 0.274637,0.148696 a 0.57837916,0.57837916 0 0 1 0.406135,-0.160338 0.55932916,0.55932916 0 0 1 0.417778,0.171715 0.62177083,0.62177083 0 0 1 0.188912,0.417777 h -1.195917 a 0.62441666,0.62441666 0 0 1 0.183092,-0.429154" />
        <path
           style="fill:#ffffff;stroke-width:0.264583"
           inkscape:connector-curvature="0"
           id="Tracé_2300"
           data-name="Tracé 2300"
           d="m -78.669734,95.425151 a 0.49529999,0.49529999 0 0 0 -0.217488,0.429154 0.47624999,0.47624999 0 0 0 0.160338,0.37756 1.2379854,1.2379854 0 0 0 0.549275,0.217488 1.5875,1.5875 0 0 1 0.5207,0.15875 0.24976666,0.24976666 0 0 1 0.125677,0.217487 0.26220208,0.26220208 0 0 1 -0.125677,0.234686 0.88714791,0.88714791 0 0 1 -0.783961,-0.02302 0.3683,0.3683 0 0 1 -0.148695,-0.303213 h -0.343959 a 0.65801874,0.65801874 0 0 0 0.246063,0.532077 1.0239375,1.0239375 0 0 0 0.635,0.177536 1.0472208,1.0472208 0 0 0 0.646377,-0.177536 0.56329791,0.56329791 0 0 0 0.240506,-0.480483 0.46857708,0.46857708 0 0 0 -0.160337,-0.372004 0.96572915,0.96572915 0 0 0 -0.45773,-0.205846 l -0.32041,-0.07435 a 0.99694999,0.99694999 0 0 1 -0.32041,-0.114564 0.22198541,0.22198541 0 0 1 -0.102923,-0.188913 0.21457708,0.21457708 0 0 1 0.1143,-0.194469 0.63685208,0.63685208 0 0 1 0.331787,-0.07435 0.55985833,0.55985833 0 0 1 0.332052,0.09155 0.34395833,0.34395833 0 0 1 0.148696,0.25744 h 0.343958 a 0.63499999,0.63499999 0 0 0 -0.229129,-0.480484 0.97154999,0.97154999 0 0 0 -0.623623,-0.166158 0.94165207,0.94165207 0 0 0 -0.560652,0.160338" />
        <path
           style="fill:#ffffff;stroke-width:0.264583"
           inkscape:connector-curvature="0"
           id="Tracé_2301"
           data-name="Tracé 2301"
           d="m -75.369057,95.492619 a 0.62282916,0.62282916 0 0 0 -0.238125,0.510117 h 0.334433 a 0.37808958,0.37808958 0 0 1 0.135996,-0.294746 0.61938958,0.61938958 0 0 1 0.379942,-0.09631 0.56091666,0.56091666 0 0 1 0.345545,0.08493 0.3000375,0.3000375 0 0 1 0.113507,0.255058 0.19420416,0.19420416 0 0 1 -0.07937,0.170127 0.70590832,0.70590832 0 0 1 -0.300567,0.08493 1.7234958,1.7234958 0 0 0 -0.838729,0.249502 0.55879999,0.55879999 0 0 0 -0.175683,0.436298 0.52916666,0.52916666 0 0 0 0.181504,0.430741 0.75697291,0.75697291 0 0 0 0.504296,0.153194 1.0220854,1.0220854 0 0 0 0.407987,-0.07937 0.9458854,0.9458854 0 0 0 0.3175,-0.243681 0.34395833,0.34395833 0 0 0 0.07355,0.243681 0.27966458,0.27966458 0 0 0 0.215371,0.07937 0.46090416,0.46090416 0 0 0 0.13044,-0.0172 0.71702082,0.71702082 0 0 0 0.107685,-0.03969 v -0.266171 a 0.15689791,0.15689791 0 0 1 -0.05106,0.01693 0.24262291,0.24262291 0 0 1 -0.05106,0.0056 c -0.07223,0 -0.107686,-0.03969 -0.107686,-0.119062 v -1.190625 a 0.49450624,0.49450624 0 0 0 -0.175683,-0.396875 0.90831457,0.90831457 0 0 0 -0.595048,-0.153194 1.019175,1.019175 0 0 0 -0.635,0.175684 m 0.147373,1.127918 a 0.67574582,0.67574582 0 0 1 0.334433,-0.124618 c 0.150019,-0.02276 0.271992,-0.03969 0.362744,-0.05106 a 0.49080208,0.49080208 0 0 0 0.220927,-0.08493 v 0.357716 a 0.42068749,0.42068749 0 0 1 -0.169862,0.3175 0.69241457,0.69241457 0 0 1 -0.459317,0.141552 0.47624999,0.47624999 0 0 1 -0.294481,-0.07937 0.2794,0.2794 0 0 1 -0.102129,-0.226483 0.29792083,0.29792083 0 0 1 0.107685,-0.249502" />
        <path
           style="fill:#ffffff;stroke-width:0.264583"
           inkscape:connector-curvature="0"
           id="Tracé_2302"
           data-name="Tracé 2302"
           d="m -72.828793,95.407688 a 0.74083332,0.74083332 0 0 0 -0.277812,0.283369 h -0.01032 v -0.328613 h -0.3175 v 2.06375 h 0.33999 v -1.179777 a 0.64981666,0.64981666 0 0 1 0.15875,-0.453231 0.57282291,0.57282291 0 0 1 0.447675,-0.181504 0.41195624,0.41195624 0 0 1 0.311679,0.119062 0.38787916,0.38787916 0 0 1 0.113506,0.283369 v 1.411288 h 0.33999 v -1.3716 a 0.78131457,0.78131457 0 0 0 -0.170127,-0.543984 0.69347291,0.69347291 0 0 0 -0.543984,-0.192881 0.80512707,0.80512707 0 0 0 -0.391054,0.09075" />
        <path
           style="fill:#ffffff;stroke-width:0.264583"
           inkscape:connector-curvature="0"
           id="Tracé_2303"
           data-name="Tracé 2303"
           d="m -69.802753,94.544882 v 1.059921 h -0.0069 a 0.64875833,0.64875833 0 0 0 -0.283369,-0.232569 0.90169999,0.90169999 0 0 0 -0.385498,-0.08493 0.85963124,0.85963124 0 0 0 -0.690033,0.299508 1.1490854,1.1490854 0 0 0 -0.249502,0.770996 1.1535833,1.1535833 0 0 0 0.260879,0.787664 0.86465832,0.86465832 0 0 0 0.691356,0.300302 0.91810416,0.91810416 0 0 0 0.402431,-0.08493 0.54001458,0.54001458 0 0 0 0.255059,-0.243681 h 0.0056 v 0.277812 h 0.33999 v -2.850091 z m -1.093788,1.253596 a 0.52916666,0.52916666 0 0 1 0.453496,-0.215371 0.57097083,0.57097083 0 0 1 0.481542,0.215371 0.88979374,0.88979374 0 0 1 0.170127,0.566737 0.91043124,0.91043124 0 0 1 -0.164306,0.566738 0.55033333,0.55033333 0 0 1 -0.464873,0.21537 0.56620833,0.56620833 0 0 1 -0.464608,-0.21537 0.85698541,0.85698541 0 0 1 -0.170128,-0.549805 0.96281874,0.96281874 0 0 1 0.15875,-0.58367" />
        <path
           style="fill:#ffffff;stroke-width:0.264583"
           inkscape:connector-curvature="0"
           id="Tracé_2304"
           data-name="Tracé 2304"
           d="m -67.578666,94.843067 a 1.571625,1.571625 0 0 0 -0.368564,1.071034 1.7383125,1.7383125 0 0 0 0.164571,0.765175 1.2864042,1.2864042 0 0 0 0.47625,0.538427 1.4702896,1.4702896 0 0 0 1.445154,-0.0056 1.2504208,1.2504208 0 0 0 0.47625,-0.538427 1.7499541,1.7499541 0 0 0 0.164306,-0.759618 1.6991541,1.6991541 0 0 0 -0.170127,-0.759355 1.2633854,1.2633854 0 0 0 -0.470429,-0.544248 1.3446125,1.3446125 0 0 0 -0.725752,-0.192616 1.2554479,1.2554479 0 0 0 -0.991659,0.425185 m 0.271992,0.232304 a 0.86201249,0.86201249 0 0 1 0.719667,-0.335227 0.87074374,0.87074374 0 0 1 0.725487,0.334434 1.3136562,1.3136562 0 0 1 0.260879,0.838729 1.3152437,1.3152437 0 0 1 -0.2667,0.845344 0.86756874,0.86756874 0 0 1 -0.719931,0.328612 0.91492916,0.91492916 0 0 1 -0.52705,-0.152929 0.92418957,0.92418957 0 0 1 -0.340519,-0.425186 1.5345833,1.5345833 0 0 1 -0.113241,-0.595047 1.3229166,1.3229166 0 0 1 0.260614,-0.83873" />
        <path
           style="fill:#ffffff;stroke-width:0.264583"
           inkscape:connector-curvature="0"
           id="Tracé_2305"
           data-name="Tracé 2305"
           d="m -64.678303,95.528867 a 1.2075583,1.2075583 0 0 0 -0.248444,0.804863 1.1416771,1.1416771 0 0 0 0.243152,0.770731 0.85169374,0.85169374 0 0 0 0.680244,0.283369 0.82020832,0.82020832 0 0 0 0.588698,-0.209815 0.9760479,0.9760479 0 0 0 0.275431,-0.595048 h -0.329406 a 0.64108541,0.64108541 0 0 1 -0.167481,0.374121 0.51143958,0.51143958 0 0 1 -0.372534,0.13044 0.50270833,0.50270833 0 0 1 -0.421216,-0.203994 0.91360624,0.91360624 0 0 1 -0.151342,-0.549804 1.0030354,1.0030354 0 0 1 0.151342,-0.595048 0.53101874,0.53101874 0 0 1 0.459052,-0.215371 0.47624999,0.47624999 0 0 1 0.3175,0.107685 0.48630416,0.48630416 0 0 1 0.167216,0.305859 h 0.334963 a 0.73501249,0.73501249 0 0 0 -0.264583,-0.52705 0.89799582,0.89799582 0 0 0 -0.582084,-0.18124 0.83449582,0.83449582 0 0 0 -0.680508,0.300302" />
        <path
           style="fill:#ffffff;stroke-width:0.264583"
           inkscape:connector-curvature="0"
           id="Tracé_2306"
           data-name="Tracé 2306"
           d="m -62.644186,95.593426 a 1.0892896,1.0892896 0 0 0 -0.271992,0.759354 1.4097,1.4097 0 0 0 0.107685,0.538427 0.85592707,0.85592707 0 0 0 0.334169,0.408252 0.9903354,0.9903354 0 0 0 0.549804,0.147373 0.89217499,0.89217499 0 0 0 0.578115,-0.181504 0.84666666,0.84666666 0 0 0 0.300302,-0.52705 h -0.334169 a 0.49794583,0.49794583 0 0 1 -0.175683,0.306123 0.56911874,0.56911874 0 0 1 -0.357188,0.101864 0.60854166,0.60854166 0 0 1 -0.470429,-0.181239 0.66648541,0.66648541 0 0 1 -0.169862,-0.47625 v -0.02249 h 1.541462 v -0.03969 a 1.3210646,1.3210646 0 0 0 -0.243681,-0.821795 0.82364791,0.82364791 0 0 0 -0.691356,-0.3175 0.89958332,0.89958332 0 0 0 -0.697177,0.306123 m 0.271991,0.147372 a 0.57282291,0.57282291 0 0 1 0.402431,-0.15875 0.55350833,0.55350833 0 0 1 0.413809,0.170128 0.61489166,0.61489166 0 0 1 0.186796,0.413808 h -1.184275 a 0.61806666,0.61806666 0 0 1 0.181239,-0.425186" />
        <path
           style="fill:#ffffff;stroke-width:0.264583"
           inkscape:connector-curvature="0"
           id="Tracé_2307"
           data-name="Tracé 2307"
           d="m -60.43518,95.462986 a 0.62282916,0.62282916 0 0 0 -0.238125,0.510117 h 0.335756 a 0.37808958,0.37808958 0 0 1 0.135996,-0.294746 0.61938958,0.61938958 0 0 1 0.379941,-0.09631 0.56091666,0.56091666 0 0 1 0.345546,0.08493 0.3000375,0.3000375 0 0 1 0.113507,0.255058 0.19420416,0.19420416 0 0 1 -0.07938,0.170127 0.70590832,0.70590832 0 0 1 -0.300567,0.08493 1.7234958,1.7234958 0 0 0 -0.838729,0.249502 0.55879999,0.55879999 0 0 0 -0.175684,0.436298 0.52916666,0.52916666 0 0 0 0.181505,0.430742 0.75697291,0.75697291 0 0 0 0.504295,0.153194 1.0220854,1.0220854 0 0 0 0.407988,-0.07937 0.9458854,0.9458854 0 0 0 0.3175,-0.243681 0.34395833,0.34395833 0 0 0 0.07355,0.243681 0.27966458,0.27966458 0 0 0 0.215371,0.07937 0.46090416,0.46090416 0 0 0 0.130439,-0.0172 0.71702082,0.71702082 0 0 0 0.107686,-0.03969 v -0.26617 a 0.15689791,0.15689791 0 0 1 -0.05107,0.01693 0.24262291,0.24262291 0 0 1 -0.05106,0.0056 c -0.07223,0 -0.107686,-0.03969 -0.107686,-0.119062 v -1.190625 a 0.49450624,0.49450624 0 0 0 -0.175683,-0.396875 0.90831457,0.90831457 0 0 0 -0.595048,-0.153194 1.019175,1.019175 0 0 0 -0.635,0.175683 m 0.147373,1.127919 a 0.67574582,0.67574582 0 0 1 0.334433,-0.124619 c 0.150019,-0.02275 0.271992,-0.03969 0.362744,-0.05106 a 0.49106666,0.49106666 0 0 0 0.220927,-0.08493 v 0.357717 a 0.42068749,0.42068749 0 0 1 -0.169862,0.3175 0.69241457,0.69241457 0 0 1 -0.459317,0.141552 0.47624999,0.47624999 0 0 1 -0.294481,-0.07937 0.2794,0.2794 0 0 1 -0.102129,-0.226483 0.29792083,0.29792083 0 0 1 0.107685,-0.249502" />
        <path
           style="fill:#ffffff;stroke-width:0.264583"
           inkscape:connector-curvature="0"
           id="Tracé_2308"
           data-name="Tracé 2308"
           d="m -57.776912,95.319053 a 0.74083332,0.74083332 0 0 0 -0.277812,0.283368 h -0.01111 v -0.328612 h -0.3175 v 2.06375 h 0.33999 v -1.179777 a 0.64981666,0.64981666 0 0 1 0.15875,-0.453231 0.57282291,0.57282291 0 0 1 0.447675,-0.181505 0.41195624,0.41195624 0 0 1 0.311679,0.119063 0.38787916,0.38787916 0 0 1 0.113506,0.283369 v 1.411287 h 0.33999 v -1.3716 a 0.78131457,0.78131457 0 0 0 -0.170127,-0.543983 0.69347291,0.69347291 0 0 0 -0.543983,-0.192881 0.80486249,0.80486249 0 0 0 -0.391055,0.09075" />
        <path
           style="fill:#ffffff;stroke-width:0.264583"
           inkscape:connector-curvature="0"
           id="Tracé_2309"
           data-name="Tracé 2309"
           d="m -56.033572,95.387051 a 0.49053749,0.49053749 0 0 0 -0.215371,0.425185 0.47228124,0.47228124 0 0 0 0.15875,0.373856 1.22555,1.22555 0 0 0 0.543983,0.215371 1.5726833,1.5726833 0 0 1 0.515673,0.15875 0.24712083,0.24712083 0 0 1 0.124884,0.215371 0.25929166,0.25929166 0 0 1 -0.124884,0.232304 0.87973957,0.87973957 0 0 1 -0.776287,-0.02249 0.365125,0.365125 0 0 1 -0.147373,-0.300566 h -0.33999 a 0.65246249,0.65246249 0 0 0 0.243682,0.527314 1.0144125,1.0144125 0 0 0 0.628914,0.175684 1.0395479,1.0395479 0 0 0 0.640556,-0.175684 0.55879999,0.55879999 0 0 0 0.238125,-0.47625 0.46381458,0.46381458 0 0 0 -0.15875,-0.3683 0.95567499,0.95567499 0 0 0 -0.453495,-0.203993 l -0.3175,-0.07382 a 0.98424999,0.98424999 0 0 1 -0.3175,-0.113242 0.22013333,0.22013333 0 0 1 -0.101865,-0.18706 0.21166666,0.21166666 0 0 1 0.113242,-0.192617 0.62838541,0.62838541 0 0 1 0.328612,-0.07382 0.55562499,0.55562499 0 0 1 0.328877,0.09075 0.34157708,0.34157708 0 0 1 0.147373,0.255059 h 0.33999 a 0.62997291,0.62997291 0 0 0 -0.226748,-0.47625 0.96440624,0.96440624 0 0 0 -0.617802,-0.164306 0.9331854,0.9331854 0 0 0 -0.555625,0.15875" />
        <path
           style="fill:#ffffff;stroke-width:0.264583"
           inkscape:connector-curvature="0"
           id="Tracé_2310"
           data-name="Tracé 2310"
           d="m -92.402932,99.334369 a 1.5946437,1.5946437 0 0 0 -0.362744,1.082411 1.5951729,1.5951729 0 0 0 0.351367,1.08267 1.2276667,1.2276667 0 0 0 0.969169,0.40244 1.2035896,1.2035896 0 0 0 0.84455,-0.29475 1.2940771,1.2940771 0 0 0 0.385233,-0.84455 h -0.379677 a 0.91678124,0.91678124 0 0 1 -0.249238,0.60087 0.77522916,0.77522916 0 0 1 -0.572558,0.22093 0.86307082,0.86307082 0 0 1 -0.719667,-0.32306 1.3861521,1.3861521 0 0 1 -0.249502,-0.87313 1.2829646,1.2829646 0 0 1 0.255059,-0.827347 0.94482707,0.94482707 0 0 1 1.235604,-0.164307 0.72072499,0.72072499 0 0 1 0.271992,0.447675 h 0.379677 a 1.0038292,1.0038292 0 0 0 -0.379677,-0.680243 1.3758333,1.3758333 0 0 0 -1.779588,0.170127" />
        <path
           style="fill:#ffffff;stroke-width:0.264583"
           inkscape:connector-curvature="0"
           id="Tracé_2311"
           data-name="Tracé 2311"
           d="m -89.589088,99.901107 a 0.62282916,0.62282916 0 0 0 -0.238125,0.510113 h 0.334433 a 0.37808958,0.37808958 0 0 1 0.135996,-0.29474 0.61938958,0.61938958 0 0 1 0.379942,-0.0963 0.56091666,0.56091666 0 0 1 0.345545,0.0849 0.3000375,0.3000375 0 0 1 0.113507,0.25506 0.19420416,0.19420416 0 0 1 -0.07937,0.17013 0.70590832,0.70590832 0 0 1 -0.300567,0.0849 1.7234958,1.7234958 0 0 0 -0.838729,0.2495 0.55879999,0.55879999 0 0 0 -0.175683,0.4363 0.52916666,0.52916666 0 0 0 0.181504,0.43074 0.75697291,0.75697291 0 0 0 0.504296,0.15319 1.0220854,1.0220854 0 0 0 0.407987,-0.0794 0.9458854,0.9458854 0 0 0 0.3175,-0.24368 0.34395833,0.34395833 0 0 0 0.07355,0.24368 0.27966458,0.27966458 0 0 0 0.215371,0.0794 0.46090416,0.46090416 0 0 0 0.13044,-0.0172 0.71702082,0.71702082 0 0 0 0.107685,-0.0397 v -0.26617 a 0.15689791,0.15689791 0 0 1 -0.05107,0.0169 0.24262291,0.24262291 0 0 1 -0.05106,0.006 c -0.07223,0 -0.107686,-0.0397 -0.107686,-0.11907 v -1.19062 a 0.49450624,0.49450624 0 0 0 -0.175683,-0.396877 0.90831457,0.90831457 0 0 0 -0.595048,-0.153193 1.019175,1.019175 0 0 0 -0.635,0.175683 m 0.147373,1.127917 a 0.67574582,0.67574582 0 0 1 0.334433,-0.12462 c 0.150019,-0.0228 0.271992,-0.0397 0.362744,-0.0511 a 0.49080208,0.49080208 0 0 0 0.220927,-0.0849 v 0.35692 a 0.42068749,0.42068749 0 0 1 -0.169862,0.3175 0.69241457,0.69241457 0 0 1 -0.459317,0.14155 0.47624999,0.47624999 0 0 1 -0.294481,-0.0794 0.2794,0.2794 0 0 1 -0.102129,-0.22649 0.29792083,0.29792083 0 0 1 0.107685,-0.2495" />
        <path
           style="fill:#ffffff;stroke-width:0.264583"
           inkscape:connector-curvature="0"
           id="Tracé_2312"
           data-name="Tracé 2312"
           d="m -87.049088,99.816176 a 0.74083332,0.74083332 0 0 0 -0.277813,0.283364 h -0.01111 v -0.328608 h -0.3175 v 2.063748 h 0.339989 v -1.17978 a 0.64981666,0.64981666 0 0 1 0.15875,-0.45323 0.57282291,0.57282291 0 0 1 0.447675,-0.1815 0.41195624,0.41195624 0 0 1 0.311679,0.11906 0.38787916,0.38787916 0 0 1 0.113507,0.28337 v 1.41129 h 0.339989 v -1.3716 a 0.78131457,0.78131457 0 0 0 -0.170127,-0.543985 0.69347291,0.69347291 0 0 0 -0.543983,-0.192882 0.80512707,0.80512707 0 0 0 -0.391054,0.09075" />
        <path
           style="fill:#ffffff;stroke-width:0.264583"
           inkscape:connector-curvature="0"
           id="Tracé_2313"
           data-name="Tracé 2313"
           d="m -85.226374,99.901107 a 0.62282916,0.62282916 0 0 0 -0.238125,0.510113 h 0.335492 a 0.37808958,0.37808958 0 0 1 0.135996,-0.29474 0.61938958,0.61938958 0 0 1 0.379941,-0.0963 0.56091666,0.56091666 0 0 1 0.345546,0.0849 0.3000375,0.3000375 0 0 1 0.113507,0.25506 0.19420416,0.19420416 0 0 1 -0.07937,0.17013 0.70590832,0.70590832 0 0 1 -0.300567,0.0849 1.7234958,1.7234958 0 0 0 -0.838729,0.2495 0.55879999,0.55879999 0 0 0 -0.175684,0.4363 0.52916666,0.52916666 0 0 0 0.181505,0.43074 0.75697291,0.75697291 0 0 0 0.502443,0.15213 1.0220854,1.0220854 0 0 0 0.407988,-0.0794 0.9458854,0.9458854 0 0 0 0.3175,-0.24368 0.34395833,0.34395833 0 0 0 0.07355,0.24368 0.27966458,0.27966458 0 0 0 0.215371,0.0794 0.46090416,0.46090416 0 0 0 0.130439,-0.0172 0.71675624,0.71675624 0 0 0 0.107686,-0.0397 v -0.26511 a 0.15689791,0.15689791 0 0 1 -0.05107,0.0169 0.24262291,0.24262291 0 0 1 -0.05106,0.006 c -0.07223,0 -0.107686,-0.0397 -0.107686,-0.11907 v -1.19062 a 0.49450624,0.49450624 0 0 0 -0.175683,-0.396877 0.90831457,0.90831457 0 0 0 -0.595048,-0.153193 1.019175,1.019175 0 0 0 -0.635,0.175683 m 0.147373,1.127917 a 0.67574582,0.67574582 0 0 1 0.334433,-0.12462 c 0.150019,-0.0228 0.271992,-0.0397 0.362744,-0.0511 a 0.49080208,0.49080208 0 0 0 0.220927,-0.0849 v 0.35692 a 0.42068749,0.42068749 0 0 1 -0.169862,0.3175 0.69241457,0.69241457 0 0 1 -0.459317,0.14155 0.47624999,0.47624999 0 0 1 -0.294481,-0.0794 0.2794,0.2794 0 0 1 -0.10213,-0.22649 0.29792083,0.29792083 0 0 1 0.107686,-0.2495" />
        <path
           style="fill:#ffffff;stroke-width:0.264583"
           inkscape:connector-curvature="0"
           id="Tracé_2314"
           data-name="Tracé 2314"
           d="m -81.791024,98.983003 v 1.059917 h -0.0042 a 0.64875833,0.64875833 0 0 0 -0.283369,-0.232565 0.90169999,0.90169999 0 0 0 -0.385498,-0.08493 0.85963124,0.85963124 0 0 0 -0.691356,0.300305 1.1490854,1.1490854 0 0 0 -0.249502,0.77099 1.1538479,1.1538479 0 0 0 0.260879,0.78767 0.86465832,0.86465832 0 0 0 0.690033,0.2995 0.91810416,0.91810416 0 0 0 0.402432,-0.0849 0.54001458,0.54001458 0 0 0 0.255058,-0.24368 h 0.0056 v 0.27781 h 0.339725 v -2.850085 z m -1.093787,1.252537 a 0.52916666,0.52916666 0 0 1 0.453496,-0.21537 0.57097083,0.57097083 0 0 1 0.481541,0.21537 0.88979374,0.88979374 0 0 1 0.170127,0.56674 0.91043124,0.91043124 0 0 1 -0.164306,0.56674 0.55033333,0.55033333 0 0 1 -0.464873,0.21537 0.56620833,0.56620833 0 0 1 -0.464608,-0.21537 0.85698541,0.85698541 0 0 1 -0.170127,-0.54981 0.96281874,0.96281874 0 0 1 0.15875,-0.58367" />
        <path
           style="fill:#ffffff;stroke-width:0.264583"
           inkscape:connector-curvature="0"
           id="Tracé_2315"
           data-name="Tracé 2315"
           d="m -80.717609,99.901107 a 0.62282916,0.62282916 0 0 0 -0.238125,0.510113 h 0.334433 a 0.37808958,0.37808958 0 0 1 0.135996,-0.29474 0.61938958,0.61938958 0 0 1 0.379942,-0.0963 0.56091666,0.56091666 0 0 1 0.345545,0.0849 0.3000375,0.3000375 0 0 1 0.113507,0.25506 0.19420416,0.19420416 0 0 1 -0.07937,0.17013 0.70590832,0.70590832 0 0 1 -0.300567,0.0849 1.7234958,1.7234958 0 0 0 -0.838729,0.2495 0.55879999,0.55879999 0 0 0 -0.175683,0.4363 0.52916666,0.52916666 0 0 0 0.181504,0.43074 0.75697291,0.75697291 0 0 0 0.504296,0.15319 1.0220854,1.0220854 0 0 0 0.407987,-0.0794 0.9458854,0.9458854 0 0 0 0.3175,-0.24368 0.34395833,0.34395833 0 0 0 0.07355,0.24368 0.27966458,0.27966458 0 0 0 0.215371,0.0794 0.46090416,0.46090416 0 0 0 0.13044,-0.0172 0.71675624,0.71675624 0 0 0 0.107685,-0.0397 v -0.26617 a 0.15689791,0.15689791 0 0 1 -0.05106,0.0169 0.24262291,0.24262291 0 0 1 -0.05106,0.006 c -0.07223,0 -0.107686,-0.0397 -0.107686,-0.11907 v -1.19062 a 0.49450624,0.49450624 0 0 0 -0.175683,-0.396877 0.90831457,0.90831457 0 0 0 -0.595048,-0.153193 1.019175,1.019175 0 0 0 -0.635,0.175683 m 0.147373,1.127917 a 0.67574582,0.67574582 0 0 1 0.334433,-0.12462 c 0.150019,-0.0228 0.271992,-0.0397 0.362744,-0.0511 a 0.49212499,0.49212499 0 0 0 0.220927,-0.0849 v 0.35692 a 0.42068749,0.42068749 0 0 1 -0.169862,0.3175 0.69241457,0.69241457 0 0 1 -0.459317,0.14155 0.47624999,0.47624999 0 0 1 -0.294481,-0.0794 0.2794,0.2794 0 0 1 -0.102129,-0.22649 0.29792083,0.29792083 0 0 1 0.107685,-0.2495" />
      </g>
      <g
         transform="matrix(1.131088,0,0,1.131088,8.6094365,-12.167254)"
         id="g11086">
        <path
           style="fill:#ffffff;stroke-width:0.264583"
           inkscape:connector-curvature="0"
           id="Tracé_2316"
           data-name="Tracé 2316"
           d="m -92.790168,105.47686 v 2.82469 h 0.376237 v -1.15676 h 0.904346 a 0.83264374,0.83264374 0 0 0 0.589492,-0.20796 0.79666041,0.79666041 0 0 0 0.230187,-0.62336 0.80115832,0.80115832 0 0 0 -0.230187,-0.62336 0.86598124,0.86598124 0 0 0 -0.617802,-0.21325 z m 0.376237,1.35334 v -1.03187 h 0.752475 a 0.67098332,0.67098332 0 0 1 0.443707,0.12911 0.47783749,0.47783749 0 0 1 0.157162,0.38735 0.48074791,0.48074791 0 0 1 -0.157162,0.39317 0.64611249,0.64611249 0 0 1 -0.421217,0.12356 z" />
        <path
           style="fill:#ffffff;stroke-width:0.264583"
           inkscape:connector-curvature="0"
           id="Tracé_2317"
           data-name="Tracé 2317"
           d="m -90.127137,106.51561 a 1.0802937,1.0802937 0 0 0 -0.269346,0.75248 1.4022916,1.4022916 0 0 0 0.105833,0.53366 0.84851874,0.84851874 0 0 0 0.331259,0.40428 0.97895832,0.97895832 0 0 0 0.544777,0.14605 0.88423749,0.88423749 0 0 0 0.572823,-0.17991 0.83952291,0.83952291 0 0 0 0.299508,-0.52202 h -0.331523 a 0.49106666,0.49106666 0 0 1 -0.174096,0.30321 0.56435624,0.56435624 0 0 1 -0.353748,0.10107 0.60298541,0.60298541 0 0 1 -0.465931,-0.17965 0.66145832,0.66145832 0 0 1 -0.168539,-0.47176 v -0.0225 h 1.527439 v -0.0394 a 1.3081,1.3081 0 0 0 -0.241564,-0.81412 0.81571041,0.81571041 0 0 0 -0.685007,-0.31459 0.89085207,0.89085207 0 0 0 -0.690827,0.30321 m 0.269611,0.14605 a 0.56700208,0.56700208 0 0 1 0.398727,-0.15716 0.54742291,0.54742291 0 0 1 0.409839,0.16854 0.60854166,0.60854166 0 0 1 0.185209,0.40984 h -1.174486 a 0.61330416,0.61330416 0 0 1 0.179652,-0.42122 m 0.247121,-1.25227 -0.409839,0.56145 h 0.308768 l 0.275167,-0.37624 0.26961,0.37624 h 0.336815 l -0.40984,-0.56145 z" />
        <path
           style="fill:#ffffff;stroke-width:0.264583"
           inkscape:connector-curvature="0"
           id="Tracé_2318"
           data-name="Tracé 2318"
           d="m -88.014439,106.51006 a 1.1578167,1.1578167 0 0 0 -0.258498,0.79745 1.0964333,1.0964333 0 0 0 0.252942,0.76359 0.90804999,0.90804999 0 0 0 0.707495,0.28098 0.87894582,0.87894582 0 0 0 0.612246,-0.20796 0.94932499,0.94932499 0 0 0 0.286279,-0.58949 h -0.343958 a 0.62282916,0.62282916 0 0 1 -0.174096,0.37042 0.54795208,0.54795208 0 0 1 -0.387614,0.12911 0.53260624,0.53260624 0 0 1 -0.437886,-0.20214 0.87444791,0.87444791 0 0 1 -0.15875,-0.54477 0.9601729,0.9601729 0 0 1 0.15875,-0.58976 0.56276874,0.56276874 0 0 1 0.47625,-0.21326 0.50932291,0.50932291 0 0 1 0.331259,0.10584 0.47624999,0.47624999 0 0 1 0.17436,0.30321 h 0.350044 a 0.71649166,0.71649166 0 0 0 -0.274902,-0.52229 0.96572915,0.96572915 0 0 0 -0.60669,-0.17965 0.88688332,0.88688332 0 0 0 -0.707496,0.29766" />
        <path
           style="fill:#ffffff;stroke-width:0.264583"
           inkscape:connector-curvature="0"
           id="Tracé_2319"
           data-name="Tracé 2319"
           d="m -86.036943,105.47686 v 2.82469 h 0.336814 v -1.16814 a 0.64505416,0.64505416 0 0 1 0.15875,-0.44979 0.56753124,0.56753124 0 0 1 0.443442,-0.17965 0.40878124,0.40878124 0 0 1 0.309033,0.118 0.384175,0.384175 0 0 1 0.112184,0.28073 v 1.39832 h 0.337079 v -1.35837 a 0.77496457,0.77496457 0 0 0 -0.16854,-0.53922 0.68791666,0.68791666 0 0 0 -0.538956,-0.19103 0.88926457,0.88926457 0 0 0 -0.398727,0.09 0.51249791,0.51249791 0 0 0 -0.247121,0.25823 h -0.0058 v -1.08479 z" />
        <path
           style="fill:#ffffff;stroke-width:0.264583"
           inkscape:connector-curvature="0"
           id="Tracé_2320"
           data-name="Tracé 2320"
           d="m -83.680829,106.51561 a 1.0805583,1.0805583 0 0 0 -0.26961,0.75248 1.4022916,1.4022916 0 0 0 0.105833,0.53366 0.84851874,0.84851874 0 0 0 0.331258,0.40428 0.97895832,0.97895832 0 0 0 0.544778,0.14605 0.88423749,0.88423749 0 0 0 0.572822,-0.17991 0.83952291,0.83952291 0 0 0 0.297657,-0.52202 h -0.331523 a 0.49212499,0.49212499 0 0 1 -0.174096,0.30321 0.56435624,0.56435624 0 0 1 -0.353748,0.10107 0.60219166,0.60219166 0 0 1 -0.465931,-0.17992 0.65934166,0.65934166 0 0 1 -0.16854,-0.47149 v -0.0225 h 1.52744 v -0.0394 a 1.3081,1.3081 0 0 0 -0.241565,-0.81412 0.81571041,0.81571041 0 0 0 -0.685006,-0.31459 0.89085207,0.89085207 0 0 0 -0.690827,0.30321 m 0.26961,0.14605 a 0.56647291,0.56647291 0 0 1 0.398727,-0.15716 0.54848124,0.54848124 0 0 1 0.40984,0.16828 0.61039374,0.61039374 0 0 1 0.185208,0.4101 h -1.173691 a 0.61330416,0.61330416 0 0 1 0.179652,-0.42122" />
        <path
           style="fill:#ffffff;stroke-width:0.264583"
           inkscape:connector-curvature="0"
           id="Tracé_2321"
           data-name="Tracé 2321"
           d="m -81.583741,106.36956 a 0.48603958,0.48603958 0 0 0 -0.213519,0.42122 0.46910624,0.46910624 0 0 0 0.15875,0.37042 1.2170833,1.2170833 0 0 0 0.538956,0.21325 1.5610416,1.5610416 0 0 1 0.511175,0.15716 0.24553333,0.24553333 0 0 1 0.123561,0.21352 0.25770416,0.25770416 0 0 1 -0.123561,0.23019 0.87312499,0.87312499 0 0 1 -0.769408,-0.0225 0.36115625,0.36115625 0 0 1 -0.14605,-0.29766 h -0.336815 a 0.64637708,0.64637708 0 0 0 0.2413,0.52229 1.0054167,1.0054167 0 0 0 0.623359,0.17409 1.0287,1.0287 0 0 0 0.635,-0.17409 0.55324374,0.55324374 0 0 0 0.235743,-0.47175 0.45958124,0.45958124 0 0 0 -0.157162,-0.36486 0.9490604,0.9490604 0 0 0 -0.449792,-0.20215 l -0.315912,-0.0728 a 0.97710624,0.97710624 0 0 1 -0.314325,-0.11244 0.21775208,0.21775208 0 0 1 -0.101071,-0.18521 0.21166666,0.21166666 0 0 1 0.112183,-0.19103 0.62653333,0.62653333 0 0 1 0.325702,-0.073 0.54874583,0.54874583 0 0 1 0.325702,0.09 0.33760833,0.33760833 0 0 1 0.14605,0.25268 h 0.336815 a 0.62256458,0.62256458 0 0 0 -0.224631,-0.47176 0.9554104,0.9554104 0 0 0 -0.611982,-0.16271 0.92392499,0.92392499 0 0 0 -0.550333,0.15716" />
        <path
           style="fill:#ffffff;stroke-width:0.264583"
           inkscape:connector-curvature="0"
           id="Tracé_2322"
           data-name="Tracé 2322"
           d="m -78.481502,106.51561 a 1.0805583,1.0805583 0 0 0 -0.26961,0.75248 1.4022916,1.4022916 0 0 0 0.105833,0.53366 0.84851874,0.84851874 0 0 0 0.331259,0.40428 0.97895832,0.97895832 0 0 0 0.544777,0.14605 0.88423749,0.88423749 0 0 0 0.572822,-0.17991 0.83952291,0.83952291 0 0 0 0.297657,-0.52202 h -0.331523 a 0.49212499,0.49212499 0 0 1 -0.174096,0.30321 0.56435624,0.56435624 0 0 1 -0.353748,0.10107 0.60219166,0.60219166 0 0 1 -0.465931,-0.17992 0.65934166,0.65934166 0 0 1 -0.16854,-0.47149 v -0.0225 h 1.52744 v -0.0394 a 1.3081,1.3081 0 0 0 -0.241565,-0.81412 0.81571041,0.81571041 0 0 0 -0.685006,-0.31459 0.89085207,0.89085207 0 0 0 -0.690827,0.30321 m 0.26961,0.14605 a 0.56647291,0.56647291 0 0 1 0.398727,-0.15716 0.54848124,0.54848124 0 0 1 0.40984,0.16828 0.61039374,0.61039374 0 0 1 0.185208,0.4101 h -1.173691 a 0.61330416,0.61330416 0 0 1 0.179652,-0.42122" />
        <path
           style="fill:#ffffff;stroke-width:0.264583"
           inkscape:connector-curvature="0"
           id="Tracé_2323"
           data-name="Tracé 2323"
           d="m -76.386002,105.64513 v 0.61198 h -0.348191 v 0.29766 h 0.348191 v 1.31974 a 0.46804791,0.46804791 0 0 0 0.09551,0.33126 0.52599166,0.52599166 0 0 0 0.370416,0.0955 h 0.280723 v -0.29766 h -0.09525 c -0.07594,0 -0.146314,-10e-4 -0.213254,-0.006 -0.06694,-0.004 -0.101335,-0.0617 -0.101335,-0.16271 v -1.28059 h 0.409839 v -0.29766 h -0.409839 v -0.61198 z" />
        <path
           style="fill:#ffffff;stroke-width:0.264583"
           inkscape:connector-curvature="0"
           id="Tracé_2324"
           data-name="Tracé 2324"
           d="m -73.981204,105.83061 a 1.5578666,1.5578666 0 0 0 -0.36486,1.06124 1.7242896,1.7242896 0 0 0 0.162718,0.7583 1.2784667,1.2784667 0 0 0 0.471753,0.5334 1.4575896,1.4575896 0 0 0 1.431925,-0.006 1.2393083,1.2393083 0 0 0 0.471752,-0.53446 1.7298458,1.7298458 0 0 0 0.162983,-0.75248 1.6880416,1.6880416 0 0 0 -0.16854,-0.75247 1.2514792,1.2514792 0 0 0 -0.466195,-0.53896 1.3287375,1.3287375 0 0 0 -0.718873,-0.19103 1.2435417,1.2435417 0 0 0 -0.982663,0.42122 m 0.269611,0.23019 a 0.85381041,0.85381041 0 0 1 0.713052,-0.33126 0.86307082,0.86307082 0 0 1 0.718873,0.33126 1.30175,1.30175 0 0 1 0.258497,0.83105 1.3033375,1.3033375 0 0 1 -0.264583,0.83688 0.85963124,0.85963124 0 0 1 -0.714375,0.3257 0.89693749,0.89693749 0 0 1 -0.857779,-0.57203 1.524,1.524 0 0 1 -0.112183,-0.58975 1.3102167,1.3102167 0 0 1 0.258233,-0.83106" />
        <path
           style="fill:#ffffff;stroke-width:0.264583"
           inkscape:connector-curvature="0"
           id="Tracé_2325"
           data-name="Tracé 2325"
           d="m -71.033481,106.51006 a 1.196975,1.196975 0 0 0 -0.246062,0.79745 1.1310937,1.1310937 0 0 0 0.24077,0.76359 0.84402082,0.84402082 0 0 0 0.673894,0.28098 0.81227082,0.81227082 0 0 0 0.582083,-0.20796 0.96837499,0.96837499 0 0 0 0.272786,-0.58949 h -0.326231 a 0.63499999,0.63499999 0 0 1 -0.165894,0.37042 0.50588333,0.50588333 0 0 1 -0.369094,0.12911 0.49741666,0.49741666 0 0 1 -0.416983,-0.20214 0.90593332,0.90593332 0 0 1 -0.149754,-0.54477 0.99589165,0.99589165 0 0 1 0.149754,-0.58976 0.52572708,0.52572708 0 0 1 0.454554,-0.21326 0.47042916,0.47042916 0 0 1 0.315383,0.10584 0.48154166,0.48154166 0 0 1 0.165894,0.30321 h 0.331523 a 0.72786874,0.72786874 0 0 0 -0.261938,-0.52229 0.88873541,0.88873541 0 0 0 -0.577585,-0.17965 0.82629374,0.82629374 0 0 0 -0.673894,0.29766" />
        <path
           style="fill:#ffffff;stroke-width:0.264583"
           inkscape:connector-curvature="0"
           id="Tracé_2326"
           data-name="Tracé 2326"
           d="m -69.004391,106.53043 a 1.0805583,1.0805583 0 0 0 -0.269611,0.75247 1.4022916,1.4022916 0 0 0 0.105833,0.53367 0.84851874,0.84851874 0 0 0 0.331259,0.40428 0.97895832,0.97895832 0 0 0 0.544777,0.14605 0.88423749,0.88423749 0 0 0 0.572823,-0.17992 0.83793541,0.83793541 0 0 0 0.297391,-0.52202 h -0.331258 a 0.49212499,0.49212499 0 0 1 -0.174096,0.30321 0.56435624,0.56435624 0 0 1 -0.353748,0.10108 0.60404374,0.60404374 0 0 1 -0.466195,-0.17966 0.66145832,0.66145832 0 0 1 -0.168275,-0.47175 v -0.0225 h 1.527439 v -0.0394 a 1.3081,1.3081 0 0 0 -0.241564,-0.81412 0.81571041,0.81571041 0 0 0 -0.685007,-0.31459 0.89085207,0.89085207 0 0 0 -0.690827,0.30321 m 0.269611,0.14605 a 0.56647291,0.56647291 0 0 1 0.398727,-0.15716 0.54848124,0.54848124 0 0 1 0.409839,0.16827 0.61039374,0.61039374 0 0 1 0.185209,0.41011 h -1.173692 a 0.61330416,0.61330416 0 0 1 0.179652,-0.42122 m 0.579702,-1.25227 -0.343958,0.56144 h 0.252677 l 0.52361,-0.56144 z" />
        <path
           style="fill:#ffffff;stroke-width:0.264583"
           inkscape:connector-curvature="0"
           id="Tracé_2327"
           data-name="Tracé 2327"
           d="m -66.712041,106.3865 a 0.61647916,0.61647916 0 0 0 -0.235744,0.50561 h 0.331258 a 0.37438541,0.37438541 0 0 1 0.134673,-0.29104 0.61303958,0.61303958 0 0 1 0.376238,-0.0955 0.55562499,0.55562499 0 0 1 0.343958,0.0841 0.29765625,0.29765625 0 0 1 0.112448,0.25294 0.19182291,0.19182291 0 0 1 -0.07937,0.16828 0.69744166,0.69744166 0 0 1 -0.297392,0.0844 1.7134416,1.7134416 0 0 0 -0.831321,0.24686 0.55562499,0.55562499 0 0 0 -0.174096,0.43259 0.52387499,0.52387499 0 0 0 0.179917,0.42677 0.75088749,0.75088749 0 0 0 0.499798,0.15161 1.0154708,1.0154708 0 0 0 0.404283,-0.0794 0.9284229,0.9284229 0 0 0 0.314325,-0.24157 0.34051875,0.34051875 0 0 0 0.07302,0.24157 0.27728333,0.27728333 0 0 0 0.213519,0.0794 0.45164374,0.45164374 0 0 0 0.129117,-0.0169 0.70326249,0.70326249 0 0 0 0.105833,-0.0392 v -0.26459 a 0.1539875,0.1539875 0 0 1 -0.05053,0.0169 0.238125,0.238125 0 0 1 -0.05054,0.006 c -0.0717,0 -0.105833,-0.0394 -0.105833,-0.118 v -1.17978 a 0.49159583,0.49159583 0 0 0 -0.174096,-0.39317 0.90143541,0.90143541 0 0 0 -0.589756,-0.1516 1.0101792,1.0101792 0 0 0 -0.628915,0.17409 m 0.14605,1.1176 a 0.66992499,0.66992499 0 0 1 0.331259,-0.12356 c 0.14896,-0.0225 0.26961,-0.0394 0.359568,-0.0505 a 0.48392291,0.48392291 0 0 0 0.218546,-0.0833 v 0.35295 a 0.41671874,0.41671874 0 0 1 -0.168275,0.31433 0.68579999,0.68579999 0 0 1 -0.455083,0.14049 0.47624999,0.47624999 0 0 1 -0.291042,-0.0794 0.27675416,0.27675416 0 0 1 -0.101071,-0.22463 0.29474583,0.29474583 0 0 1 0.105834,-0.24712" />
        <path
           style="fill:#ffffff;stroke-width:0.264583"
           inkscape:connector-curvature="0"
           id="Tracé_2328"
           data-name="Tracé 2328"
           d="m -64.195325,106.30236 a 0.73501249,0.73501249 0 0 0 -0.275166,0.28072 h -0.01111 v -0.3257 h -0.31459 v 2.04417 h 0.336815 v -1.16814 a 0.64505416,0.64505416 0 0 1 0.15875,-0.44979 0.56753124,0.56753124 0 0 1 0.443442,-0.17965 0.40878124,0.40878124 0 0 1 0.309033,0.118 0.384175,0.384175 0 0 1 0.112183,0.28073 v 1.39832 h 0.337079 v -1.35837 a 0.77496457,0.77496457 0 0 0 -0.168539,-0.53922 0.68791666,0.68791666 0 0 0 -0.539221,-0.19103 0.79798332,0.79798332 0 0 0 -0.38735,0.09" />
        <path
           style="fill:#ffffff;stroke-width:0.264583"
           inkscape:connector-curvature="0"
           id="Tracé_2329"
           data-name="Tracé 2329"
           d="m -62.468125,106.36956 a 0.48656874,0.48656874 0 0 0 -0.213519,0.42122 0.46989999,0.46989999 0 0 0 0.15875,0.37042 1.2170833,1.2170833 0 0 0 0.539221,0.21325 1.5610416,1.5610416 0 0 1 0.510911,0.15716 0.24553333,0.24553333 0 0 1 0.12356,0.21352 0.25770416,0.25770416 0 0 1 -0.12356,0.23019 0.87312499,0.87312499 0 0 1 -0.769409,-0.0225 0.36274375,0.36274375 0 0 1 -0.14605,-0.29766 h -0.336814 a 0.64637708,0.64637708 0 0 0 0.2413,0.52229 1.0054167,1.0054167 0 0 0 0.623358,0.17409 1.0302875,1.0302875 0 0 0 0.635,-0.17409 0.55377291,0.55377291 0 0 0 0.235479,-0.47175 0.45958124,0.45958124 0 0 0 -0.157162,-0.36486 0.94932499,0.94932499 0 0 0 -0.449792,-0.20215 l -0.31459,-0.073 a 0.97895832,0.97895832 0 0 1 -0.314589,-0.11244 0.21775208,0.21775208 0 0 1 -0.101071,-0.18521 0.21166666,0.21166666 0 0 1 0.112183,-0.19103 0.62785624,0.62785624 0 0 1 0.325702,-0.073 0.54768749,0.54768749 0 0 1 0.325703,0.09 0.33760833,0.33760833 0 0 1 0.14605,0.25268 h 0.336814 a 0.62256458,0.62256458 0 0 0 -0.224631,-0.47176 0.9554104,0.9554104 0 0 0 -0.611981,-0.16271 0.92392499,0.92392499 0 0 0 -0.550334,0.15716" />
        <g
           id="g11063"
           transform="translate(-0.09449405)">
          <path
             d="m -92.320533,110.26793 a 1.5806208,1.5806208 0 0 0 -0.359304,1.07262 1.5803562,1.5803562 0 0 0 0.348192,1.07262 1.2154958,1.2154958 0 0 0 0.960173,0.39873 1.190625,1.190625 0 0 0 0.836612,-0.29104 1.2832292,1.2832292 0 0 0 0.382058,-0.83662 h -0.376237 a 0.90857916,0.90857916 0 0 1 -0.247121,0.59505 0.76729166,0.76729166 0 0 1 -0.567267,0.21908 0.85486874,0.85486874 0 0 1 -0.713052,-0.32015 1.3713354,1.3713354 0 0 1 -0.24712,-0.86466 1.27,1.27 0 0 1 0.252677,-0.8202 0.9363604,0.9363604 0 0 1 1.224227,-0.16299 0.71622707,0.71622707 0 0 1 0.269345,0.44371 h 0.376503 a 0.99562707,0.99562707 0 0 0 -0.376503,-0.67389 1.3636625,1.3636625 0 0 0 -1.763183,0.16854"
             data-name="Tracé 2330"
             id="Tracé_2330"
             inkscape:connector-curvature="0"
             style="fill:#ffffff;stroke-width:0.264583" />
          <path
             d="m -89.532354,110.82938 a 0.61647916,0.61647916 0 0 0 -0.235743,0.50561 h 0.331258 a 0.37438541,0.37438541 0 0 1 0.134673,-0.29104 0.61303958,0.61303958 0 0 1 0.376237,-0.0955 0.55562499,0.55562499 0 0 1 0.343959,0.0841 0.29765625,0.29765625 0 0 1 0.112448,0.25295 0.19182291,0.19182291 0 0 1 -0.07937,0.16827 0.69744166,0.69744166 0 0 1 -0.297392,0.0844 1.7134416,1.7134416 0 0 0 -0.831321,0.24686 0.55562499,0.55562499 0 0 0 -0.174096,0.43259 0.52387499,0.52387499 0 0 0 0.179917,0.42678 0.75088749,0.75088749 0 0 0 0.499798,0.1516 1.0154708,1.0154708 0 0 0 0.404283,-0.0794 0.9284229,0.9284229 0 0 0 0.314325,-0.24157 0.34051875,0.34051875 0 0 0 0.07302,0.24157 0.27728333,0.27728333 0 0 0 0.213519,0.0794 0.45164374,0.45164374 0 0 0 0.129117,-0.0169 0.70326249,0.70326249 0 0 0 0.105833,-0.0392 v -0.26458 a 0.1539875,0.1539875 0 0 1 -0.05054,0.0169 0.238125,0.238125 0 0 1 -0.05053,0.006 c -0.0717,0 -0.105833,-0.0394 -0.105833,-0.11801 v -1.17977 a 0.49159583,0.49159583 0 0 0 -0.174096,-0.39317 0.90143541,0.90143541 0 0 0 -0.589756,-0.15161 1.0101792,1.0101792 0 0 0 -0.628915,0.1741 m 0.14605,1.11759 a 0.66992499,0.66992499 0 0 1 0.331258,-0.12356 c 0.148961,-0.0225 0.269611,-0.0394 0.359569,-0.0505 a 0.48392291,0.48392291 0 0 0 0.218811,-0.0841 v 0.35375 a 0.41671874,0.41671874 0 0 1 -0.168275,0.31432 0.68579999,0.68579999 0 0 1 -0.455084,0.1405 0.47624999,0.47624999 0 0 1 -0.291041,-0.0794 0.27675416,0.27675416 0 0 1 -0.101071,-0.22463 0.29474583,0.29474583 0 0 1 0.105833,-0.24712"
             data-name="Tracé 2331"
             id="Tracé_2331"
             inkscape:connector-curvature="0"
             style="fill:#ffffff;stroke-width:0.264583" />
          <path
             d="m -87.015637,110.74524 a 0.73501249,0.73501249 0 0 0 -0.275167,0.28072 h -0.01111 v -0.3257 h -0.314325 v 2.04417 h 0.336814 v -1.16814 a 0.64505416,0.64505416 0 0 1 0.15875,-0.44979 0.56753124,0.56753124 0 0 1 0.443442,-0.17965 0.40878124,0.40878124 0 0 1 0.309033,0.118 0.384175,0.384175 0 0 1 0.112184,0.28073 v 1.39832 h 0.337079 v -1.35837 a 0.77496457,0.77496457 0 0 0 -0.16854,-0.53922 0.68791666,0.68791666 0 0 0 -0.538956,-0.19103 0.79851249,0.79851249 0 0 0 -0.387615,0.09"
             data-name="Tracé 2332"
             id="Tracé_2332"
             inkscape:connector-curvature="0"
             style="fill:#ffffff;stroke-width:0.264583" />
          <path
             d="m -85.208533,110.82938 a 0.61647916,0.61647916 0 0 0 -0.235744,0.50561 h 0.331259 a 0.37438541,0.37438541 0 0 1 0.134673,-0.29104 0.61303958,0.61303958 0 0 1 0.376237,-0.0955 0.55562499,0.55562499 0 0 1 0.343958,0.0841 0.29765625,0.29765625 0 0 1 0.112448,0.25295 0.19182291,0.19182291 0 0 1 -0.07937,0.16827 0.69744166,0.69744166 0 0 1 -0.297391,0.0844 1.7134416,1.7134416 0 0 0 -0.831321,0.24686 0.55562499,0.55562499 0 0 0 -0.174096,0.43259 0.52387499,0.52387499 0 0 0 0.179917,0.42678 0.75088749,0.75088749 0 0 0 0.499798,0.1516 1.0154708,1.0154708 0 0 0 0.404283,-0.0794 0.9284229,0.9284229 0 0 0 0.314325,-0.24157 0.34051875,0.34051875 0 0 0 0.07303,0.24157 0.27728333,0.27728333 0 0 0 0.213519,0.0794 0.45164374,0.45164374 0 0 0 0.129116,-0.0169 0.70352707,0.70352707 0 0 0 0.105834,-0.0392 v -0.26458 a 0.1539875,0.1539875 0 0 1 -0.05054,0.0169 0.238125,0.238125 0 0 1 -0.05054,0.006 c -0.0717,0 -0.105834,-0.0394 -0.105834,-0.11801 v -1.17977 a 0.49159583,0.49159583 0 0 0 -0.174095,-0.39317 0.90143541,0.90143541 0 0 0 -0.589757,-0.15161 1.0101792,1.0101792 0 0 0 -0.628914,0.1741 m 0.14605,1.11759 a 0.66992499,0.66992499 0 0 1 0.329406,-0.12303 c 0.148961,-0.0225 0.269611,-0.0394 0.359569,-0.0505 a 0.48418749,0.48418749 0 0 0 0.21881,-0.0841 v 0.35375 a 0.41671874,0.41671874 0 0 1 -0.168275,0.31432 0.68579999,0.68579999 0 0 1 -0.455083,0.1405 0.47624999,0.47624999 0 0 1 -0.291042,-0.0794 0.27675416,0.27675416 0 0 1 -0.101071,-0.22463 0.29474583,0.29474583 0 0 1 0.105834,-0.24712"
             data-name="Tracé 2333"
             id="Tracé_2333"
             inkscape:connector-curvature="0"
             style="fill:#ffffff;stroke-width:0.264583" />
          <path
             d="m -81.805727,109.91895 v 1.05012 h -0.0056 a 0.64293749,0.64293749 0 0 0 -0.280723,-0.23018 0.89243957,0.89243957 0 0 0 -0.381794,-0.0841 0.85275207,0.85275207 0 0 0 -0.68527,0.29766 1.1377083,1.1377083 0 0 0 -0.247121,0.76358 1.1427354,1.1427354 0 0 0 0.258498,0.78052 0.85672082,0.85672082 0 0 0 0.685006,0.29766 0.90884374,0.90884374 0 0 0 0.398727,-0.0841 0.53551666,0.53551666 0 0 0 0.252677,-0.24156 h 0.0056 v 0.27516 h 0.337079 v -2.82469 z m -1.084791,1.24115 a 0.52387499,0.52387499 0 0 1 0.449791,-0.21352 0.56647291,0.56647291 0 0 1 0.47625,0.21352 0.88185624,0.88185624 0 0 1 0.16854,0.56145 0.90117082,0.90117082 0 0 1 -0.162983,0.56171 0.54477708,0.54477708 0 0 1 -0.460375,0.21325 0.56144583,0.56144583 0 0 1 -0.46064,-0.21325 0.85063541,0.85063541 0 0 1 -0.168275,-0.54478 0.95461665,0.95461665 0 0 1 0.157162,-0.57838"
             data-name="Tracé 2334"
             id="Tracé_2334"
             inkscape:connector-curvature="0"
             style="fill:#ffffff;stroke-width:0.264583" />
          <path
             d="m -80.742366,110.82938 a 0.61647916,0.61647916 0 0 0 -0.235744,0.50561 h 0.331258 a 0.37438541,0.37438541 0 0 1 0.134673,-0.29104 0.61303958,0.61303958 0 0 1 0.376238,-0.0955 0.55562499,0.55562499 0 0 1 0.342635,0.0841 0.29765625,0.29765625 0 0 1 0.112448,0.25295 0.19182291,0.19182291 0 0 1 -0.07937,0.16827 0.69744166,0.69744166 0 0 1 -0.297392,0.0844 1.7131771,1.7131771 0 0 0 -0.83132,0.24686 0.55562499,0.55562499 0 0 0 -0.174096,0.43259 0.52387499,0.52387499 0 0 0 0.179916,0.42678 0.75088749,0.75088749 0 0 0 0.499798,0.1516 1.0154708,1.0154708 0 0 0 0.404284,-0.0794 0.9284229,0.9284229 0 0 0 0.314325,-0.24157 0.34051875,0.34051875 0 0 0 0.07303,0.24157 0.27728333,0.27728333 0 0 0 0.213518,0.0794 0.45164374,0.45164374 0 0 0 0.129117,-0.0169 0.70352707,0.70352707 0 0 0 0.105833,-0.0392 v -0.26458 a 0.1539875,0.1539875 0 0 1 -0.05053,0.0169 0.238125,0.238125 0 0 1 -0.05054,0.006 c -0.0717,0 -0.105834,-0.0394 -0.105834,-0.11801 v -1.17977 a 0.49159583,0.49159583 0 0 0 -0.174096,-0.39317 0.90143541,0.90143541 0 0 0 -0.589756,-0.15161 1.0101792,1.0101792 0 0 0 -0.628914,0.1741 m 0.14605,1.11759 a 0.66992499,0.66992499 0 0 1 0.331258,-0.12356 c 0.14896,-0.0225 0.26961,-0.0394 0.359569,-0.0505 a 0.48418749,0.48418749 0 0 0 0.21881,-0.0841 v 0.35375 a 0.41671874,0.41671874 0 0 1 -0.168275,0.31432 0.68579999,0.68579999 0 0 1 -0.455083,0.1405 0.47624999,0.47624999 0 0 1 -0.291042,-0.0794 0.27675416,0.27675416 0 0 1 -0.101071,-0.22463 0.29474583,0.29474583 0 0 1 0.105834,-0.24712"
             data-name="Tracé 2335"
             id="Tracé_2335"
             inkscape:connector-curvature="0"
             style="fill:#ffffff;stroke-width:0.264583" />
        </g>
      </g>
      <g
         inkscape:transform-center-y="0.26726953"
         inkscape:transform-center-x="0.13363476"
         transform="matrix(1.129582,0,0,1.129582,9.8217656,-8.0348654)"
         id="g10851">
        <path
           style="fill:#ffffff;stroke-width:0.264583"
           inkscape:connector-curvature="0"
           id="Tracé_2336"
           data-name="Tracé 2336"
           d="m -107.60827,95.061878 -0.54213,1.011502 c -0.0617,0.109802 -0.17198,0.09975 -0.28205,0.0381 l -0.39264,-0.2032 0.29263,1.553633 c 0.0614,0.283633 -0.136,0.283633 -0.23336,0.160867 l -0.68527,-0.767292 -0.11113,0.389467 a 0.13229166,0.13229166 0 0 1 -0.15399,0.09207 l -0.86571,-0.181769 0.22754,0.827352 c 0.0484,0.185208 0.0865,0.26035 -0.0495,0.308769 l -0.3085,0.145256 1.49119,1.211527 a 0.19473333,0.19473333 0 0 1 0.0677,0.202671 l -0.13203,0.428369 c 0.51356,-0.059 0.97367,-0.14817 1.48749,-0.20294 0.0452,-0.005 0.12118,0.0698 0.12118,0.1225 l -0.068,1.56925 h 0.24924 l -0.0392,-1.56581 c 0,-0.0529 0.0685,-0.13098 0.11377,-0.12594 0.51382,0.0548 0.97393,0.14393 1.48776,0.20294 l -0.13044,-0.428369 a 0.193675,0.193675 0 0 1 0.0677,-0.202671 l 1.49119,-1.211527 -0.30877,-0.145256 c -0.13599,-0.04842 -0.0979,-0.124619 -0.049,-0.308769 l 0.22728,-0.827352 -0.86624,0.182298 a 0.13229166,0.13229166 0 0 1 -0.15399,-0.09207 l -0.10954,-0.388673 -0.68527,0.767292 c -0.0974,0.122766 -0.29501,0.122766 -0.23336,-0.160867 l 0.29104,-1.553633 -0.39264,0.2032 c -0.11007,0.06165 -0.2204,0.0717 -0.28178,-0.0381" />
        <rect
           style="fill:#ffffff;stroke-width:0.264583"
           y="94.316811"
           x="-115.55609"
           id="Rectangle_1330"
           data-name="Rectangle 1330"
           width="3.9740417"
           height="7.9480834" />
        <rect
           style="fill:#ffffff;stroke-width:0.264583"
           y="94.316811"
           x="-103.63397"
           id="Rectangle_1331"
           data-name="Rectangle 1331"
           width="3.9740417"
           height="7.9480834" />
      </g>
    </g>
  </g>
</svg>
