<svg id="Groupe_632" data-name="Groupe 632" xmlns="http://www.w3.org/2000/svg" xmlns:xlink="http://www.w3.org/1999/xlink" width="362.13" height="30.04" viewBox="0 0 362.13 30.04">
  <defs>
    <clipPath id="clip-path">
      <rect id="Rectangle_1332" data-name="Rectangle 1332" width="362.13" height="30.04" transform="translate(0 0)" fill="none"/>
    </clipPath>
  </defs>
  <path id="Tracé_2292" data-name="Tracé 2292" d="M86.114.751V11.629h1.449V6.655h5V5.422h-5V1.984H93.25V.751Z" fill="#fff"/>
  <path id="Tracé_2293" data-name="Tracé 2293" d="M94.706,2.351H96V.751h-1.3Zm0,9.277H96V3.756h-1.3Z" fill="#fff"/>
  <g id="Groupe_631" data-name="Groupe 631">
    <g id="Groupe_630" data-name="Groupe 630" clip-path="url(#clip-path)">
      <path id="Tracé_2294" data-name="Tracé 2294" d="M98.522,4.189A1.872,1.872,0,0,0,97.7,5.811a1.8,1.8,0,0,0,.606,1.427,4.679,4.679,0,0,0,2.076.822,6,6,0,0,1,1.968.6.944.944,0,0,1,.475.822.991.991,0,0,1-.475.887,3.353,3.353,0,0,1-2.963-.087,1.392,1.392,0,0,1-.562-1.146h-1.3a2.487,2.487,0,0,0,.93,2.011,3.87,3.87,0,0,0,2.4.671,3.958,3.958,0,0,0,2.443-.671,2.129,2.129,0,0,0,.909-1.816A1.771,1.771,0,0,0,103.6,7.93a3.65,3.65,0,0,0-1.73-.778l-1.211-.281a3.768,3.768,0,0,1-1.211-.433.839.839,0,0,1-.389-.714.811.811,0,0,1,.432-.735,2.407,2.407,0,0,1,1.254-.281A2.116,2.116,0,0,1,102,5.054a1.3,1.3,0,0,1,.562.973h1.3A2.4,2.4,0,0,0,103,4.211a3.672,3.672,0,0,0-2.357-.628,3.559,3.559,0,0,0-2.119.606" fill="#fff"/>
      <path id="Tracé_2295" data-name="Tracé 2295" d="M105.637.751V11.629h1.3v-4.5A2.488,2.488,0,0,1,107.54,5.4a2.19,2.19,0,0,1,1.708-.692,1.573,1.573,0,0,1,1.19.455,1.48,1.48,0,0,1,.432,1.081v5.385h1.3V6.395a2.984,2.984,0,0,0-.649-2.076,2.649,2.649,0,0,0-2.076-.735,3.425,3.425,0,0,0-1.535.346,1.974,1.974,0,0,0-.952,1h-.021V.751Z" fill="#fff"/>
      <path id="Tracé_2296" data-name="Tracé 2296" d="M114.711,4.752a4.158,4.158,0,0,0-1.038,2.9,5.393,5.393,0,0,0,.411,2.054,3.264,3.264,0,0,0,1.276,1.557,3.772,3.772,0,0,0,2.1.562,3.406,3.406,0,0,0,2.206-.692,3.225,3.225,0,0,0,1.146-2.011h-1.276a1.889,1.889,0,0,1-.67,1.168,2.172,2.172,0,0,1-1.362.389,2.321,2.321,0,0,1-1.795-.692,2.539,2.539,0,0,1-.649-1.816V8.082h5.882V7.931a5.034,5.034,0,0,0-.93-3.136,3.142,3.142,0,0,0-2.638-1.211,3.428,3.428,0,0,0-2.66,1.168m1.038.562a2.186,2.186,0,0,1,1.535-.606,2.114,2.114,0,0,1,1.579.649,2.35,2.35,0,0,1,.714,1.579h-4.52a2.36,2.36,0,0,1,.692-1.622" fill="#fff"/>
      <path id="Tracé_2297" data-name="Tracé 2297" d="M124.6,4.016a3.517,3.517,0,0,0-1.1,1.406h-.043V3.756h-1.211v7.872h1.3V8.1a3.438,3.438,0,0,1,.692-2.379,2.718,2.718,0,0,1,2.141-.778V3.583a.307.307,0,0,0-.086-.021H126.2a2.771,2.771,0,0,0-1.6.454" fill="#fff"/>
      <path id="Tracé_2298" data-name="Tracé 2298" d="M127.419,2.351h1.3V.751h-1.3Zm0,9.277h1.3V3.756h-1.3Z" fill="#fff"/>
      <path id="Tracé_2299" data-name="Tracé 2299" d="M131.343,4.752a4.158,4.158,0,0,0-1.038,2.9,5.393,5.393,0,0,0,.411,2.054,3.264,3.264,0,0,0,1.276,1.557,3.772,3.772,0,0,0,2.1.562,3.406,3.406,0,0,0,2.206-.692,3.225,3.225,0,0,0,1.146-2.011h-1.276a1.889,1.889,0,0,1-.67,1.168,2.172,2.172,0,0,1-1.362.389,2.321,2.321,0,0,1-1.795-.692,2.539,2.539,0,0,1-.649-1.816V8.082h5.882V7.931a5.034,5.034,0,0,0-.93-3.136A3.142,3.142,0,0,0,134,3.584a3.428,3.428,0,0,0-2.66,1.168m1.038.562a2.186,2.186,0,0,1,1.535-.606,2.114,2.114,0,0,1,1.579.649,2.35,2.35,0,0,1,.714,1.579h-4.52a2.36,2.36,0,0,1,.692-1.622" fill="#fff"/>
      <path id="Tracé_2300" data-name="Tracé 2300" d="M139.413,4.189a1.872,1.872,0,0,0-.822,1.622,1.8,1.8,0,0,0,.606,1.427,4.679,4.679,0,0,0,2.076.822,6,6,0,0,1,1.968.6.944.944,0,0,1,.475.822.991.991,0,0,1-.475.887,3.353,3.353,0,0,1-2.963-.087,1.392,1.392,0,0,1-.562-1.146h-1.3a2.487,2.487,0,0,0,.93,2.011,3.87,3.87,0,0,0,2.4.671,3.958,3.958,0,0,0,2.443-.671,2.129,2.129,0,0,0,.909-1.816,1.771,1.771,0,0,0-.606-1.406,3.65,3.65,0,0,0-1.73-.778l-1.211-.281a3.768,3.768,0,0,1-1.211-.433.839.839,0,0,1-.389-.714.811.811,0,0,1,.432-.735,2.407,2.407,0,0,1,1.254-.281,2.116,2.116,0,0,1,1.255.346,1.3,1.3,0,0,1,.562.973h1.3a2.4,2.4,0,0,0-.866-1.816,3.672,3.672,0,0,0-2.357-.628,3.559,3.559,0,0,0-2.119.606" fill="#fff"/>
      <path id="Tracé_2301" data-name="Tracé 2301" d="M151.888,4.444a2.354,2.354,0,0,0-.9,1.928h1.264a1.429,1.429,0,0,1,.514-1.114,2.341,2.341,0,0,1,1.436-.364,2.12,2.12,0,0,1,1.306.321,1.134,1.134,0,0,1,.429.964.734.734,0,0,1-.3.643,2.668,2.668,0,0,1-1.136.321,6.514,6.514,0,0,0-3.17.943,2.112,2.112,0,0,0-.664,1.649,2,2,0,0,0,.686,1.628,2.861,2.861,0,0,0,1.906.579,3.863,3.863,0,0,0,1.542-.3,3.575,3.575,0,0,0,1.2-.921,1.3,1.3,0,0,0,.278.921,1.057,1.057,0,0,0,.814.3,1.742,1.742,0,0,0,.493-.065,2.71,2.71,0,0,0,.407-.15V10.721a.593.593,0,0,1-.193.064.917.917,0,0,1-.193.021c-.273,0-.407-.15-.407-.45v-4.5a1.869,1.869,0,0,0-.664-1.5,3.433,3.433,0,0,0-2.249-.579,3.852,3.852,0,0,0-2.4.664m.557,4.263a2.554,2.554,0,0,1,1.264-.471c.567-.086,1.028-.15,1.371-.193a1.855,1.855,0,0,0,.835-.321V9.071a1.59,1.59,0,0,1-.642,1.2,2.617,2.617,0,0,1-1.736.535,1.8,1.8,0,0,1-1.113-.3,1.056,1.056,0,0,1-.386-.856,1.126,1.126,0,0,1,.407-.943" fill="#fff"/>
      <path id="Tracé_2302" data-name="Tracé 2302" d="M161.489,4.123a2.8,2.8,0,0,0-1.05,1.071H160.4V3.952h-1.2v7.8h1.285V7.293a2.456,2.456,0,0,1,.6-1.713,2.165,2.165,0,0,1,1.692-.686,1.557,1.557,0,0,1,1.178.45,1.466,1.466,0,0,1,.429,1.071v5.334h1.285V6.565a2.953,2.953,0,0,0-.643-2.056,2.621,2.621,0,0,0-2.056-.729,3.043,3.043,0,0,0-1.478.343" fill="#fff"/>
      <path id="Tracé_2303" data-name="Tracé 2303" d="M172.926.862V4.868H172.9a2.452,2.452,0,0,0-1.071-.879,3.408,3.408,0,0,0-1.457-.321A3.249,3.249,0,0,0,167.764,4.8a4.343,4.343,0,0,0-.943,2.914,4.36,4.36,0,0,0,.986,2.977,3.268,3.268,0,0,0,2.613,1.135,3.47,3.47,0,0,0,1.521-.321,2.041,2.041,0,0,0,.964-.921h.021v1.05h1.285V.862ZM168.792,5.6a2,2,0,0,1,1.714-.814,2.158,2.158,0,0,1,1.82.814,3.363,3.363,0,0,1,.643,2.142,3.441,3.441,0,0,1-.621,2.142,2.08,2.08,0,0,1-1.757.814,2.14,2.14,0,0,1-1.756-.814,3.239,3.239,0,0,1-.643-2.078,3.639,3.639,0,0,1,.6-2.206" fill="#fff"/>
      <path id="Tracé_2304" data-name="Tracé 2304" d="M181.332,1.989a5.94,5.94,0,0,0-1.393,4.048,6.57,6.57,0,0,0,.622,2.892,4.862,4.862,0,0,0,1.8,2.035,5.557,5.557,0,0,0,5.462-.021,4.726,4.726,0,0,0,1.8-2.035,6.614,6.614,0,0,0,.621-2.871,6.422,6.422,0,0,0-.643-2.87,4.775,4.775,0,0,0-1.778-2.057A5.082,5.082,0,0,0,185.08.382a4.745,4.745,0,0,0-3.748,1.607m1.028.878A3.258,3.258,0,0,1,185.08,1.6a3.291,3.291,0,0,1,2.742,1.264,4.965,4.965,0,0,1,.986,3.17A4.971,4.971,0,0,1,187.8,9.229a3.279,3.279,0,0,1-2.721,1.242,3.458,3.458,0,0,1-1.992-.578A3.493,3.493,0,0,1,181.8,8.286a5.8,5.8,0,0,1-.428-2.249,5,5,0,0,1,.985-3.17" fill="#fff"/>
      <path id="Tracé_2305" data-name="Tracé 2305" d="M192.294,4.581a4.564,4.564,0,0,0-.939,3.042,4.315,4.315,0,0,0,.919,2.913,3.219,3.219,0,0,0,2.571,1.071,3.1,3.1,0,0,0,2.225-.793,3.689,3.689,0,0,0,1.041-2.249h-1.245a2.423,2.423,0,0,1-.633,1.414,1.933,1.933,0,0,1-1.408.493,1.9,1.9,0,0,1-1.592-.771,3.453,3.453,0,0,1-.572-2.078,3.791,3.791,0,0,1,.572-2.249,2.007,2.007,0,0,1,1.735-.814,1.8,1.8,0,0,1,1.2.407,1.838,1.838,0,0,1,.632,1.156h1.266a2.778,2.778,0,0,0-1-1.992,3.394,3.394,0,0,0-2.2-.685,3.154,3.154,0,0,0-2.572,1.135" fill="#fff"/>
      <path id="Tracé_2306" data-name="Tracé 2306" d="M199.982,4.825a4.117,4.117,0,0,0-1.028,2.87,5.328,5.328,0,0,0,.407,2.035,3.235,3.235,0,0,0,1.263,1.543,3.743,3.743,0,0,0,2.078.557,3.372,3.372,0,0,0,2.185-.686,3.2,3.2,0,0,0,1.135-1.992h-1.263a1.882,1.882,0,0,1-.664,1.157,2.151,2.151,0,0,1-1.35.385,2.3,2.3,0,0,1-1.778-.685,2.519,2.519,0,0,1-.642-1.8V8.124h5.826v-.15a4.993,4.993,0,0,0-.921-3.106,3.113,3.113,0,0,0-2.613-1.2,3.4,3.4,0,0,0-2.635,1.157m1.028.557a2.165,2.165,0,0,1,1.521-.6,2.092,2.092,0,0,1,1.564.643,2.324,2.324,0,0,1,.706,1.564h-4.476a2.336,2.336,0,0,1,.685-1.607" fill="#fff"/>
      <path id="Tracé_2307" data-name="Tracé 2307" d="M208.331,4.332a2.354,2.354,0,0,0-.9,1.928H208.7a1.429,1.429,0,0,1,.514-1.114,2.341,2.341,0,0,1,1.436-.364,2.12,2.12,0,0,1,1.306.321,1.134,1.134,0,0,1,.429.964.734.734,0,0,1-.3.643,2.668,2.668,0,0,1-1.136.321,6.514,6.514,0,0,0-3.17.943,2.112,2.112,0,0,0-.664,1.649,2,2,0,0,0,.686,1.628,2.861,2.861,0,0,0,1.906.579,3.863,3.863,0,0,0,1.542-.3,3.575,3.575,0,0,0,1.2-.921,1.3,1.3,0,0,0,.278.921,1.057,1.057,0,0,0,.814.3,1.742,1.742,0,0,0,.493-.065,2.71,2.71,0,0,0,.407-.15V10.609a.593.593,0,0,1-.193.064.917.917,0,0,1-.193.021c-.273,0-.407-.15-.407-.45v-4.5a1.869,1.869,0,0,0-.664-1.5,3.433,3.433,0,0,0-2.249-.579,3.852,3.852,0,0,0-2.4.664m.557,4.263a2.554,2.554,0,0,1,1.264-.471c.567-.086,1.028-.15,1.371-.193a1.856,1.856,0,0,0,.835-.321V8.959a1.59,1.59,0,0,1-.642,1.2,2.617,2.617,0,0,1-1.736.535,1.8,1.8,0,0,1-1.113-.3,1.056,1.056,0,0,1-.386-.856,1.126,1.126,0,0,1,.407-.943" fill="#fff"/>
      <path id="Tracé_2308" data-name="Tracé 2308" d="M218.378,3.788a2.8,2.8,0,0,0-1.05,1.071h-.042V3.617h-1.2v7.8h1.285V6.958a2.456,2.456,0,0,1,.6-1.713,2.165,2.165,0,0,1,1.692-.686,1.557,1.557,0,0,1,1.178.45,1.466,1.466,0,0,1,.429,1.071v5.334h1.285V6.23a2.953,2.953,0,0,0-.643-2.056,2.621,2.621,0,0,0-2.056-.729,3.042,3.042,0,0,0-1.478.343" fill="#fff"/>
      <path id="Tracé_2309" data-name="Tracé 2309" d="M224.967,4.045a1.854,1.854,0,0,0-.814,1.607,1.785,1.785,0,0,0,.6,1.413,4.632,4.632,0,0,0,2.056.814,5.944,5.944,0,0,1,1.949.6.934.934,0,0,1,.472.814.98.98,0,0,1-.472.878,3.325,3.325,0,0,1-2.934-.085,1.38,1.38,0,0,1-.557-1.136h-1.285a2.466,2.466,0,0,0,.921,1.993,3.834,3.834,0,0,0,2.377.664,3.929,3.929,0,0,0,2.421-.664,2.112,2.112,0,0,0,.9-1.8,1.753,1.753,0,0,0-.6-1.392,3.612,3.612,0,0,0-1.714-.771l-1.2-.279a3.72,3.72,0,0,1-1.2-.428.832.832,0,0,1-.385-.707.8.8,0,0,1,.428-.728,2.375,2.375,0,0,1,1.242-.279,2.1,2.1,0,0,1,1.243.343,1.291,1.291,0,0,1,.557.964h1.285a2.381,2.381,0,0,0-.857-1.8,3.645,3.645,0,0,0-2.335-.621,3.527,3.527,0,0,0-2.1.6" fill="#fff"/>
      <path id="Tracé_2310" data-name="Tracé 2310" d="M87.508,18.964a6.027,6.027,0,0,0-1.371,4.091,6.029,6.029,0,0,0,1.328,4.092,4.64,4.64,0,0,0,3.663,1.521,4.549,4.549,0,0,0,3.192-1.114,4.891,4.891,0,0,0,1.456-3.192H94.341a3.465,3.465,0,0,1-.942,2.271,2.93,2.93,0,0,1-2.164.835,3.262,3.262,0,0,1-2.72-1.221,5.239,5.239,0,0,1-.943-3.3,4.849,4.849,0,0,1,.964-3.127,3.571,3.571,0,0,1,4.67-.621,2.724,2.724,0,0,1,1.028,1.692h1.435a3.794,3.794,0,0,0-1.435-2.571,5.2,5.2,0,0,0-6.726.643" fill="#fff"/>
      <path id="Tracé_2311" data-name="Tracé 2311" d="M98.143,21.106a2.354,2.354,0,0,0-.9,1.928h1.264a1.429,1.429,0,0,1,.514-1.114,2.341,2.341,0,0,1,1.436-.364,2.12,2.12,0,0,1,1.306.321,1.134,1.134,0,0,1,.429.964.734.734,0,0,1-.3.643,2.668,2.668,0,0,1-1.136.321,6.514,6.514,0,0,0-3.17.943,2.112,2.112,0,0,0-.664,1.649,2,2,0,0,0,.686,1.628,2.861,2.861,0,0,0,1.906.579,3.863,3.863,0,0,0,1.542-.3,3.575,3.575,0,0,0,1.2-.921,1.3,1.3,0,0,0,.278.921,1.057,1.057,0,0,0,.814.3,1.742,1.742,0,0,0,.493-.065,2.71,2.71,0,0,0,.407-.15V27.383a.593.593,0,0,1-.193.064.917.917,0,0,1-.193.021c-.273,0-.407-.15-.407-.45v-4.5a1.869,1.869,0,0,0-.664-1.5,3.433,3.433,0,0,0-2.249-.579,3.852,3.852,0,0,0-2.4.664m.557,4.263a2.554,2.554,0,0,1,1.264-.471c.567-.086,1.028-.15,1.371-.193a1.855,1.855,0,0,0,.835-.321v1.349a1.59,1.59,0,0,1-.642,1.2,2.617,2.617,0,0,1-1.736.535,1.8,1.8,0,0,1-1.113-.3,1.056,1.056,0,0,1-.386-.856,1.126,1.126,0,0,1,.407-.943" fill="#fff"/>
      <path id="Tracé_2312" data-name="Tracé 2312" d="M107.743,20.785a2.8,2.8,0,0,0-1.05,1.071h-.042V20.614h-1.2v7.8h1.285V23.955a2.456,2.456,0,0,1,.6-1.713,2.165,2.165,0,0,1,1.692-.686,1.557,1.557,0,0,1,1.178.45,1.466,1.466,0,0,1,.429,1.071v5.334h1.285V23.227a2.953,2.953,0,0,0-.643-2.056,2.621,2.621,0,0,0-2.056-.729,3.043,3.043,0,0,0-1.478.343" fill="#fff"/>
      <path id="Tracé_2313" data-name="Tracé 2313" d="M114.632,21.106a2.354,2.354,0,0,0-.9,1.928H115a1.429,1.429,0,0,1,.514-1.114,2.341,2.341,0,0,1,1.436-.364,2.12,2.12,0,0,1,1.306.321,1.134,1.134,0,0,1,.429.964.734.734,0,0,1-.3.643,2.668,2.668,0,0,1-1.136.321,6.514,6.514,0,0,0-3.17.943,2.112,2.112,0,0,0-.664,1.649,2,2,0,0,0,.686,1.628A2.861,2.861,0,0,0,116,28.6a3.863,3.863,0,0,0,1.542-.3,3.575,3.575,0,0,0,1.2-.921,1.3,1.3,0,0,0,.278.921,1.057,1.057,0,0,0,.814.3,1.742,1.742,0,0,0,.493-.065,2.709,2.709,0,0,0,.407-.15V27.383a.593.593,0,0,1-.193.064.917.917,0,0,1-.193.021c-.273,0-.407-.15-.407-.45v-4.5a1.869,1.869,0,0,0-.664-1.5,3.433,3.433,0,0,0-2.249-.579,3.852,3.852,0,0,0-2.4.664m.557,4.263a2.554,2.554,0,0,1,1.264-.471c.567-.086,1.028-.15,1.371-.193a1.855,1.855,0,0,0,.835-.321v1.349a1.59,1.59,0,0,1-.642,1.2,2.617,2.617,0,0,1-1.736.535,1.8,1.8,0,0,1-1.113-.3,1.056,1.056,0,0,1-.386-.856,1.126,1.126,0,0,1,.407-.943" fill="#fff"/>
      <path id="Tracé_2314" data-name="Tracé 2314" d="M127.616,17.636v4.006H127.6a2.452,2.452,0,0,0-1.071-.879,3.408,3.408,0,0,0-1.457-.321,3.249,3.249,0,0,0-2.613,1.135,4.343,4.343,0,0,0-.943,2.914,4.361,4.361,0,0,0,.986,2.977A3.268,3.268,0,0,0,125.11,28.6a3.47,3.47,0,0,0,1.521-.321,2.041,2.041,0,0,0,.964-.921h.021v1.05H128.9V17.636Zm-4.134,4.734a2,2,0,0,1,1.714-.814,2.158,2.158,0,0,1,1.82.814,3.363,3.363,0,0,1,.643,2.142,3.441,3.441,0,0,1-.621,2.142,2.08,2.08,0,0,1-1.757.814,2.14,2.14,0,0,1-1.756-.814,3.239,3.239,0,0,1-.643-2.078,3.639,3.639,0,0,1,.6-2.206" fill="#fff"/>
      <path id="Tracé_2315" data-name="Tracé 2315" d="M131.673,21.106a2.354,2.354,0,0,0-.9,1.928h1.264a1.429,1.429,0,0,1,.514-1.114,2.341,2.341,0,0,1,1.436-.364,2.12,2.12,0,0,1,1.306.321,1.134,1.134,0,0,1,.429.964.734.734,0,0,1-.3.643,2.668,2.668,0,0,1-1.136.321,6.514,6.514,0,0,0-3.17.943,2.112,2.112,0,0,0-.664,1.649,2,2,0,0,0,.686,1.628,2.861,2.861,0,0,0,1.906.579,3.863,3.863,0,0,0,1.542-.3,3.575,3.575,0,0,0,1.2-.921,1.3,1.3,0,0,0,.278.921,1.057,1.057,0,0,0,.814.3,1.742,1.742,0,0,0,.493-.065,2.709,2.709,0,0,0,.407-.15V27.383a.593.593,0,0,1-.193.064.917.917,0,0,1-.193.021c-.273,0-.407-.15-.407-.45v-4.5a1.869,1.869,0,0,0-.664-1.5,3.433,3.433,0,0,0-2.249-.579,3.852,3.852,0,0,0-2.4.664m.557,4.263a2.554,2.554,0,0,1,1.264-.471c.567-.086,1.028-.15,1.371-.193a1.86,1.86,0,0,0,.835-.321v1.349a1.59,1.59,0,0,1-.642,1.2,2.617,2.617,0,0,1-1.736.535,1.8,1.8,0,0,1-1.113-.3,1.056,1.056,0,0,1-.386-.856,1.126,1.126,0,0,1,.407-.943" fill="#fff"/>
      <path id="Tracé_2316" data-name="Tracé 2316" d="M241.945,1.111V11.787h1.422V7.415h3.418a3.147,3.147,0,0,0,2.228-.786,3.011,3.011,0,0,0,.87-2.356,3.028,3.028,0,0,0-.87-2.356,3.273,3.273,0,0,0-2.335-.806Zm1.422,5.115v-3.9h2.844a2.536,2.536,0,0,1,1.677.488,1.806,1.806,0,0,1,.594,1.464,1.817,1.817,0,0,1-.594,1.486,2.442,2.442,0,0,1-1.592.467Z" fill="#fff"/>
      <path id="Tracé_2317" data-name="Tracé 2317" d="M252.01,5.037a4.083,4.083,0,0,0-1.018,2.844,5.3,5.3,0,0,0,.4,2.017,3.207,3.207,0,0,0,1.252,1.528,3.7,3.7,0,0,0,2.059.552,3.342,3.342,0,0,0,2.165-.68A3.173,3.173,0,0,0,258,9.325h-1.253a1.856,1.856,0,0,1-.658,1.146,2.133,2.133,0,0,1-1.337.382,2.279,2.279,0,0,1-1.761-.679,2.5,2.5,0,0,1-.637-1.783V8.306h5.773V8.157a4.944,4.944,0,0,0-.913-3.077,3.083,3.083,0,0,0-2.589-1.189,3.367,3.367,0,0,0-2.611,1.146m1.019.552a2.143,2.143,0,0,1,1.507-.594,2.069,2.069,0,0,1,1.549.637,2.3,2.3,0,0,1,.7,1.549H252.35a2.318,2.318,0,0,1,.679-1.592m.934-4.733-1.549,2.122h1.167l1.04-1.422,1.019,1.422h1.273L255.364.856Z" fill="#fff"/>
      <path id="Tracé_2318" data-name="Tracé 2318" d="M259.995,5.016a4.376,4.376,0,0,0-.977,3.014,4.144,4.144,0,0,0,.956,2.886,3.432,3.432,0,0,0,2.674,1.062,3.322,3.322,0,0,0,2.314-.786,3.588,3.588,0,0,0,1.082-2.228h-1.3a2.354,2.354,0,0,1-.658,1.4,2.071,2.071,0,0,1-1.465.488,2.013,2.013,0,0,1-1.655-.764,3.305,3.305,0,0,1-.6-2.059,3.629,3.629,0,0,1,.6-2.229,2.127,2.127,0,0,1,1.8-.806,1.925,1.925,0,0,1,1.252.4,1.8,1.8,0,0,1,.659,1.146H266a2.708,2.708,0,0,0-1.039-1.974,3.65,3.65,0,0,0-2.293-.679,3.352,3.352,0,0,0-2.674,1.125" fill="#fff"/>
      <path id="Tracé_2319" data-name="Tracé 2319" d="M267.469,1.111V11.787h1.273V7.372a2.438,2.438,0,0,1,.6-1.7,2.145,2.145,0,0,1,1.676-.679,1.545,1.545,0,0,1,1.168.446,1.452,1.452,0,0,1,.424,1.061v5.285h1.274V6.651a2.929,2.929,0,0,0-.637-2.038,2.6,2.6,0,0,0-2.037-.722,3.361,3.361,0,0,0-1.507.34,1.937,1.937,0,0,0-.934.976h-.022v-4.1Z" fill="#fff"/>
      <path id="Tracé_2320" data-name="Tracé 2320" d="M276.374,5.037a4.084,4.084,0,0,0-1.019,2.844,5.3,5.3,0,0,0,.4,2.017,3.207,3.207,0,0,0,1.252,1.528,3.7,3.7,0,0,0,2.059.552,3.342,3.342,0,0,0,2.165-.68,3.173,3.173,0,0,0,1.125-1.973h-1.253a1.86,1.86,0,0,1-.658,1.146,2.133,2.133,0,0,1-1.337.382,2.276,2.276,0,0,1-1.761-.68,2.492,2.492,0,0,1-.637-1.782V8.306h5.773V8.157a4.944,4.944,0,0,0-.913-3.077,3.083,3.083,0,0,0-2.589-1.189,3.367,3.367,0,0,0-2.611,1.146m1.019.552a2.141,2.141,0,0,1,1.507-.594,2.073,2.073,0,0,1,1.549.636,2.307,2.307,0,0,1,.7,1.55h-4.436a2.318,2.318,0,0,1,.679-1.592" fill="#fff"/>
      <path id="Tracé_2321" data-name="Tracé 2321" d="M284.3,4.485a1.837,1.837,0,0,0-.807,1.592,1.773,1.773,0,0,0,.6,1.4,4.6,4.6,0,0,0,2.037.806,5.9,5.9,0,0,1,1.932.594.928.928,0,0,1,.467.807.974.974,0,0,1-.467.87,3.3,3.3,0,0,1-2.908-.085,1.365,1.365,0,0,1-.552-1.125h-1.273a2.443,2.443,0,0,0,.912,1.974,3.8,3.8,0,0,0,2.356.658,3.888,3.888,0,0,0,2.4-.658,2.091,2.091,0,0,0,.891-1.783,1.737,1.737,0,0,0-.594-1.379,3.587,3.587,0,0,0-1.7-.764L286.4,7.117a3.693,3.693,0,0,1-1.188-.425.823.823,0,0,1-.382-.7.8.8,0,0,1,.424-.722,2.368,2.368,0,0,1,1.231-.276,2.074,2.074,0,0,1,1.231.34,1.276,1.276,0,0,1,.552.955h1.273a2.353,2.353,0,0,0-.849-1.783,3.611,3.611,0,0,0-2.313-.615,3.492,3.492,0,0,0-2.08.594" fill="#fff"/>
      <path id="Tracé_2322" data-name="Tracé 2322" d="M296.025,5.037a4.084,4.084,0,0,0-1.019,2.844,5.3,5.3,0,0,0,.4,2.017,3.207,3.207,0,0,0,1.252,1.528,3.7,3.7,0,0,0,2.059.552,3.342,3.342,0,0,0,2.165-.68,3.173,3.173,0,0,0,1.125-1.973h-1.253a1.86,1.86,0,0,1-.658,1.146,2.133,2.133,0,0,1-1.337.382,2.276,2.276,0,0,1-1.761-.68,2.492,2.492,0,0,1-.637-1.782V8.306h5.773V8.157a4.944,4.944,0,0,0-.913-3.077,3.083,3.083,0,0,0-2.589-1.189,3.367,3.367,0,0,0-2.611,1.146m1.019.552a2.141,2.141,0,0,1,1.507-.594,2.073,2.073,0,0,1,1.549.636,2.307,2.307,0,0,1,.7,1.55h-4.436a2.318,2.318,0,0,1,.679-1.592" fill="#fff"/>
      <path id="Tracé_2323" data-name="Tracé 2323" d="M303.945,1.747V4.06h-1.316V5.185h1.316v4.988a1.769,1.769,0,0,0,.361,1.252,1.988,1.988,0,0,0,1.4.361h1.061V10.661h-.36c-.287,0-.553-.005-.806-.021s-.383-.233-.383-.615V5.185h1.549V4.06h-1.549V1.747Z" fill="#fff"/>
      <path id="Tracé_2324" data-name="Tracé 2324" d="M313.034,2.448a5.888,5.888,0,0,0-1.379,4.011,6.517,6.517,0,0,0,.615,2.866,4.832,4.832,0,0,0,1.783,2.016,5.509,5.509,0,0,0,5.412-.021A4.684,4.684,0,0,0,321.248,9.3a6.538,6.538,0,0,0,.616-2.844,6.38,6.38,0,0,0-.637-2.844,4.73,4.73,0,0,0-1.762-2.037,5.022,5.022,0,0,0-2.717-.722,4.7,4.7,0,0,0-3.714,1.592m1.019.87a3.227,3.227,0,0,1,2.695-1.252,3.262,3.262,0,0,1,2.717,1.252,4.92,4.92,0,0,1,.977,3.141,4.926,4.926,0,0,1-1,3.163,3.249,3.249,0,0,1-2.7,1.231A3.39,3.39,0,0,1,313.5,8.688a5.76,5.76,0,0,1-.424-2.229,4.952,4.952,0,0,1,.976-3.141" fill="#fff"/>
      <path id="Tracé_2325" data-name="Tracé 2325" d="M324.175,5.016a4.524,4.524,0,0,0-.93,3.014,4.275,4.275,0,0,0,.91,2.886,3.19,3.19,0,0,0,2.547,1.062,3.07,3.07,0,0,0,2.2-.786,3.66,3.66,0,0,0,1.031-2.228H328.7a2.4,2.4,0,0,1-.627,1.4,1.912,1.912,0,0,1-1.395.488,1.88,1.88,0,0,1-1.576-.764,3.424,3.424,0,0,1-.566-2.059,3.764,3.764,0,0,1,.566-2.229,1.987,1.987,0,0,1,1.718-.806,1.778,1.778,0,0,1,1.192.4,1.82,1.82,0,0,1,.627,1.146h1.253a2.751,2.751,0,0,0-.99-1.974,3.359,3.359,0,0,0-2.183-.679,3.123,3.123,0,0,0-2.547,1.125" fill="#fff"/>
      <path id="Tracé_2326" data-name="Tracé 2326" d="M331.844,5.093a4.084,4.084,0,0,0-1.019,2.844,5.3,5.3,0,0,0,.4,2.017,3.207,3.207,0,0,0,1.252,1.528,3.7,3.7,0,0,0,2.059.552,3.342,3.342,0,0,0,2.165-.68,3.167,3.167,0,0,0,1.124-1.973h-1.252a1.86,1.86,0,0,1-.658,1.146,2.133,2.133,0,0,1-1.337.382,2.283,2.283,0,0,1-1.762-.679,2.5,2.5,0,0,1-.636-1.783V8.362h5.773V8.213a4.944,4.944,0,0,0-.913-3.077,3.083,3.083,0,0,0-2.589-1.189,3.367,3.367,0,0,0-2.611,1.146m1.019.552a2.141,2.141,0,0,1,1.507-.594,2.073,2.073,0,0,1,1.549.636,2.307,2.307,0,0,1,.7,1.55h-4.436a2.318,2.318,0,0,1,.679-1.592M335.049.912l-1.3,2.122h.955L336.683.912Z" fill="#fff"/>
      <path id="Tracé_2327" data-name="Tracé 2327" d="M340.508,4.549a2.33,2.33,0,0,0-.891,1.911h1.252a1.415,1.415,0,0,1,.509-1.1,2.317,2.317,0,0,1,1.422-.361,2.1,2.1,0,0,1,1.3.318,1.125,1.125,0,0,1,.425.956.725.725,0,0,1-.3.636,2.636,2.636,0,0,1-1.124.319,6.476,6.476,0,0,0-3.142.933,2.1,2.1,0,0,0-.658,1.635,1.98,1.98,0,0,0,.68,1.613,2.838,2.838,0,0,0,1.889.573,3.838,3.838,0,0,0,1.528-.3,3.509,3.509,0,0,0,1.188-.913,1.287,1.287,0,0,0,.276.913,1.048,1.048,0,0,0,.807.3,1.707,1.707,0,0,0,.488-.064,2.658,2.658,0,0,0,.4-.148v-1a.582.582,0,0,1-.191.064.9.9,0,0,1-.191.021c-.271,0-.4-.149-.4-.446V5.95a1.858,1.858,0,0,0-.658-1.486,3.407,3.407,0,0,0-2.229-.573,3.818,3.818,0,0,0-2.377.658m.552,4.224a2.532,2.532,0,0,1,1.252-.467c.563-.085,1.019-.149,1.359-.191A1.829,1.829,0,0,0,344.5,7.8V9.134a1.575,1.575,0,0,1-.636,1.188,2.592,2.592,0,0,1-1.72.531,1.8,1.8,0,0,1-1.1-.3,1.046,1.046,0,0,1-.382-.849,1.114,1.114,0,0,1,.4-.934" fill="#fff"/>
      <path id="Tracé_2328" data-name="Tracé 2328" d="M350.02,4.231a2.778,2.778,0,0,0-1.04,1.061h-.042V4.061h-1.189v7.726h1.273V7.372a2.438,2.438,0,0,1,.6-1.7,2.145,2.145,0,0,1,1.676-.679,1.545,1.545,0,0,1,1.168.446,1.452,1.452,0,0,1,.424,1.061v5.285h1.274V6.651a2.929,2.929,0,0,0-.637-2.038,2.6,2.6,0,0,0-2.038-.722,3.016,3.016,0,0,0-1.464.34" fill="#fff"/>
      <path id="Tracé_2329" data-name="Tracé 2329" d="M356.548,4.485a1.839,1.839,0,0,0-.807,1.592,1.776,1.776,0,0,0,.6,1.4,4.6,4.6,0,0,0,2.038.806,5.9,5.9,0,0,1,1.931.594.928.928,0,0,1,.467.807.974.974,0,0,1-.467.87,3.3,3.3,0,0,1-2.908-.085,1.371,1.371,0,0,1-.552-1.125h-1.273a2.443,2.443,0,0,0,.912,1.974,3.8,3.8,0,0,0,2.356.658,3.894,3.894,0,0,0,2.4-.658,2.093,2.093,0,0,0,.89-1.783,1.737,1.737,0,0,0-.594-1.379,3.588,3.588,0,0,0-1.7-.764l-1.189-.276a3.7,3.7,0,0,1-1.189-.425.823.823,0,0,1-.382-.7.8.8,0,0,1,.424-.722,2.373,2.373,0,0,1,1.231-.276,2.07,2.07,0,0,1,1.231.34,1.276,1.276,0,0,1,.552.955h1.273a2.353,2.353,0,0,0-.849-1.783,3.611,3.611,0,0,0-2.313-.615,3.492,3.492,0,0,0-2.08.594" fill="#fff"/>
      <path id="Tracé_2330" data-name="Tracé 2330" d="M243.72,19.219a5.974,5.974,0,0,0-1.358,4.054,5.973,5.973,0,0,0,1.316,4.054,4.594,4.594,0,0,0,3.629,1.507,4.5,4.5,0,0,0,3.162-1.1,4.85,4.85,0,0,0,1.444-3.162h-1.422a3.434,3.434,0,0,1-.934,2.249,2.9,2.9,0,0,1-2.144.828,3.231,3.231,0,0,1-2.695-1.21,5.183,5.183,0,0,1-.934-3.268,4.8,4.8,0,0,1,.955-3.1,3.539,3.539,0,0,1,4.627-.616,2.707,2.707,0,0,1,1.018,1.677h1.423a3.763,3.763,0,0,0-1.423-2.547,5.154,5.154,0,0,0-6.664.637" fill="#fff"/>
      <path id="Tracé_2331" data-name="Tracé 2331" d="M254.258,21.341a2.33,2.33,0,0,0-.891,1.911h1.252a1.415,1.415,0,0,1,.509-1.1,2.317,2.317,0,0,1,1.422-.361,2.1,2.1,0,0,1,1.3.318,1.125,1.125,0,0,1,.425.956.725.725,0,0,1-.3.636,2.636,2.636,0,0,1-1.124.319,6.476,6.476,0,0,0-3.142.933,2.1,2.1,0,0,0-.658,1.635,1.98,1.98,0,0,0,.68,1.613,2.838,2.838,0,0,0,1.889.573,3.838,3.838,0,0,0,1.528-.3,3.509,3.509,0,0,0,1.188-.913,1.287,1.287,0,0,0,.276.913,1.048,1.048,0,0,0,.807.3,1.707,1.707,0,0,0,.488-.064,2.658,2.658,0,0,0,.4-.148v-1a.582.582,0,0,1-.191.064.9.9,0,0,1-.191.021c-.271,0-.4-.149-.4-.446V22.742a1.858,1.858,0,0,0-.658-1.486,3.407,3.407,0,0,0-2.229-.573,3.818,3.818,0,0,0-2.377.658m.552,4.224a2.532,2.532,0,0,1,1.252-.467c.563-.085,1.019-.149,1.359-.191a1.829,1.829,0,0,0,.827-.318v1.337a1.575,1.575,0,0,1-.636,1.188,2.592,2.592,0,0,1-1.72.531,1.8,1.8,0,0,1-1.1-.3,1.046,1.046,0,0,1-.382-.849,1.114,1.114,0,0,1,.4-.934" fill="#fff"/>
      <path id="Tracé_2332" data-name="Tracé 2332" d="M263.77,21.023a2.778,2.778,0,0,0-1.04,1.061h-.042V20.853H261.5v7.726h1.273V24.164a2.438,2.438,0,0,1,.6-1.7,2.145,2.145,0,0,1,1.676-.679,1.545,1.545,0,0,1,1.168.446,1.452,1.452,0,0,1,.424,1.061v5.285h1.274V23.443a2.929,2.929,0,0,0-.637-2.038,2.6,2.6,0,0,0-2.037-.722,3.018,3.018,0,0,0-1.465.34" fill="#fff"/>
      <path id="Tracé_2333" data-name="Tracé 2333" d="M270.6,21.341a2.33,2.33,0,0,0-.891,1.911h1.252a1.415,1.415,0,0,1,.509-1.1,2.317,2.317,0,0,1,1.422-.361,2.1,2.1,0,0,1,1.3.318,1.125,1.125,0,0,1,.425.956.725.725,0,0,1-.3.636,2.636,2.636,0,0,1-1.124.319,6.476,6.476,0,0,0-3.142.933,2.1,2.1,0,0,0-.658,1.635,1.98,1.98,0,0,0,.68,1.613,2.838,2.838,0,0,0,1.889.573,3.838,3.838,0,0,0,1.528-.3,3.509,3.509,0,0,0,1.188-.913,1.287,1.287,0,0,0,.276.913,1.048,1.048,0,0,0,.807.3,1.707,1.707,0,0,0,.488-.064,2.659,2.659,0,0,0,.4-.148v-1a.582.582,0,0,1-.191.064.9.9,0,0,1-.191.021c-.271,0-.4-.149-.4-.446V22.742a1.858,1.858,0,0,0-.658-1.486,3.407,3.407,0,0,0-2.229-.573,3.818,3.818,0,0,0-2.377.658m.552,4.224A2.532,2.532,0,0,1,272.4,25.1c.563-.085,1.019-.149,1.359-.191a1.83,1.83,0,0,0,.827-.318v1.337a1.575,1.575,0,0,1-.636,1.188,2.592,2.592,0,0,1-1.72.531,1.8,1.8,0,0,1-1.1-.3,1.046,1.046,0,0,1-.382-.849,1.114,1.114,0,0,1,.4-.934" fill="#fff"/>
      <path id="Tracé_2334" data-name="Tracé 2334" d="M283.461,17.9v3.969h-.021a2.43,2.43,0,0,0-1.061-.87,3.373,3.373,0,0,0-1.443-.318,3.223,3.223,0,0,0-2.59,1.125,4.3,4.3,0,0,0-.934,2.886,4.319,4.319,0,0,0,.977,2.95,3.238,3.238,0,0,0,2.589,1.125,3.435,3.435,0,0,0,1.507-.318,2.024,2.024,0,0,0,.955-.913h.021v1.04h1.274V17.9Zm-4.1,4.691a1.98,1.98,0,0,1,1.7-.807,2.141,2.141,0,0,1,1.8.807,3.333,3.333,0,0,1,.637,2.122,3.406,3.406,0,0,1-.616,2.123,2.059,2.059,0,0,1-1.74.806,2.122,2.122,0,0,1-1.741-.806,3.215,3.215,0,0,1-.636-2.059,3.608,3.608,0,0,1,.594-2.186" fill="#fff"/>
      <path id="Tracé_2335" data-name="Tracé 2335" d="M287.48,21.341a2.33,2.33,0,0,0-.891,1.911h1.252a1.415,1.415,0,0,1,.509-1.1,2.317,2.317,0,0,1,1.422-.361,2.1,2.1,0,0,1,1.295.318,1.125,1.125,0,0,1,.425.956.725.725,0,0,1-.3.636,2.636,2.636,0,0,1-1.124.319,6.475,6.475,0,0,0-3.142.933,2.1,2.1,0,0,0-.658,1.635,1.98,1.98,0,0,0,.68,1.613,2.838,2.838,0,0,0,1.889.573,3.838,3.838,0,0,0,1.528-.3,3.509,3.509,0,0,0,1.188-.913,1.287,1.287,0,0,0,.276.913,1.048,1.048,0,0,0,.807.3,1.707,1.707,0,0,0,.488-.064,2.659,2.659,0,0,0,.4-.148v-1a.582.582,0,0,1-.191.064.9.9,0,0,1-.191.021c-.271,0-.4-.149-.4-.446V22.742a1.858,1.858,0,0,0-.658-1.486,3.407,3.407,0,0,0-2.229-.573,3.818,3.818,0,0,0-2.377.658m.552,4.224a2.532,2.532,0,0,1,1.252-.467c.563-.085,1.019-.149,1.359-.191a1.83,1.83,0,0,0,.827-.318v1.337a1.575,1.575,0,0,1-.636,1.188,2.592,2.592,0,0,1-1.72.531,1.8,1.8,0,0,1-1.1-.3,1.046,1.046,0,0,1-.382-.849,1.114,1.114,0,0,1,.4-.934" fill="#fff"/>
      <path id="Tracé_2336" data-name="Tracé 2336" d="M30.039,2.816,27.99,6.639c-.233.415-.65.377-1.066.144L25.44,6.015l1.106,5.872c.232,1.072-.514,1.072-.882.608l-2.59-2.9-.42,1.472a.5.5,0,0,1-.582.348L18.8,10.728l.86,3.127c.183.7.327.984-.187,1.167l-1.166.549,5.636,4.579a.736.736,0,0,1,.256.766L23.7,22.535c1.941-.223,3.68-.56,5.622-.767.171-.019.458.264.458.463l-.257,5.931h.942l-.148-5.918c0-.2.259-.495.43-.476,1.942.207,3.681.544,5.623.767l-.493-1.619a.732.732,0,0,1,.256-.766l5.636-4.579-1.167-.549c-.514-.183-.37-.471-.185-1.167l.859-3.127-3.274.689a.5.5,0,0,1-.582-.348L37.006,9.6l-2.59,2.9c-.368.464-1.115.464-.882-.608l1.1-5.872-1.484.768c-.416.233-.833.271-1.065-.144" fill="#fff"/>
      <rect id="Rectangle_1330" data-name="Rectangle 1330" width="15.02" height="30.04" transform="translate(0 0)" fill="#fff"/>
      <rect id="Rectangle_1331" data-name="Rectangle 1331" width="15.02" height="30.04" transform="translate(45.06 0)" fill="#fff"/>
    </g>
  </g>
</svg>
