<svg height="1.059742cm" viewBox="0 0 362.13013 30.039971" width="12.775146cm" xmlns="http://www.w3.org/2000/svg" xmlns:xlink="http://www.w3.org/1999/xlink"><symbol id="a" overflow="visible" transform="translate(.000007 .007437)"/><symbol id="b" overflow="visible" transform="translate(.000007 .007437)"><path d="m6.015625-7.859375v.890625h-4.109375v2.484375h3.609375v.890625h-3.609375v3.59375h-1.046875v-7.859375zm0 0"/></symbol><symbol id="c" overflow="visible" transform="translate(.000007 .007437)"><path d="m1.6875-7.859375v1.15625h-.9375v-1.15625zm0 2.171875v5.6875h-.9375v-5.6875zm0 0"/></symbol><symbol id="d" overflow="visible" transform="translate(.000007 .007437)"><path d="m2.59375-5.8125c.769531 0 1.335938.152344 1.703125.453125.375.292969.582031.730469.625 1.3125h-.9375c-.03125-.300781-.167969-.535156-.40625-.703125-.230469-.164062-.53125-.25-.90625-.25-.386719 0-.6875.070312-.90625.203125-.210937.125-.3125.304687-.3125.53125 0 .210937.09375.382813.28125.515625.195313.125.488281.230469.875.3125l.875.203125c.550781.117187.96875.304687 1.25.5625.289063.25.4375.589844.4375 1.015625 0 .554688-.21875.992188-.65625 1.3125-.429687.3242188-1.015625.484375-1.765625.484375-.730469 0-1.308594-.1601562-1.734375-.484375-.429687-.332031-.652344-.816406-.671875-1.453125h.9375c.00781.355469.144531.632813.40625.828125.269531.1875.640625.28125 1.109375.28125.457031 0 .800781-.070312 1.03125-.21875.226563-.144531.34375-.359375.34375-.640625 0-.25-.117187-.445313-.34375-.59375-.230469-.15625-.703125-.300781-1.421875-.4375-.710938-.144531-1.210938-.34375-1.5-.59375-.292969-.257813-.4375-.601563-.4375-1.03125 0-.5.195312-.890625.59375-1.171875.40625-.289062.914062-.4375 1.53125-.4375zm0 0"/></symbol><symbol id="e" overflow="visible" transform="translate(.000007 .007437)"><path d="m1.640625-7.859375v3.015625h.015625c.132812-.3125.363281-.550781.6875-.71875.332031-.164062.703125-.25 1.109375-.25.6875 0 1.1875.179688 1.5.53125.3125.34375.46875.84375.46875 1.5v3.78125h-.9375v-3.890625c0-.3125-.105469-.570313-.3125-.78125-.210937-.21875-.496094-.328125-.859375-.328125-.523438 0-.933594.167969-1.234375.5-.292969.324219-.4375.742188-.4375 1.25v3.25h-.9375v-7.859375zm0 0"/></symbol><symbol id="f" overflow="visible" transform="translate(.000007 .007437)"><path d="m3.0625-5.8125c.820312 0 1.457031.292969 1.90625.875.445312.585938.671875 1.339844.671875 2.265625v.109375h-4.25v.0625c0 .542969.15625.980469.46875 1.3125.3125.335938.742187.5 1.296875.5.414062 0 .742188-.09375.984375-.28125.25-.195312.410156-.476562.484375-.84375h.921875c-.125.636719-.402344 1.121094-.828125 1.453125-.417969.3359375-.949219.5-1.59375.5-.59375 0-1.101562-.13671875-1.515625-.40625-.417969-.269531-.726563-.644531-.921875-1.125-.199219-.488281-.296875-.984375-.296875-1.484375 0-.84375.25-1.539062.75-2.09375.507813-.5625 1.148437-.84375 1.921875-.84375zm-1.671875 2.421875h3.265625c-.03125-.457031-.203125-.835937-.515625-1.140625-.304687-.3125-.683594-.46875-1.140625-.46875-.429688 0-.796875.148438-1.109375.4375-.304687.292969-.46875.683594-.5 1.171875zm0 0"/></symbol><symbol id="g" overflow="visible" transform="translate(.000007 .007437)"><path d="m3.53125-5.828125h.0625c.019531 0 .039062.00781.0625.015625v.984375c-.699219 0-1.214844.1875-1.546875.5625-.335937.367187-.5.9375-.5 1.71875v2.546875h-.9375v-5.6875h.875v1.203125h.03125c.21875-.457031.484375-.796875.796875-1.015625.320312-.21875.707031-.328125 1.15625-.328125zm0 0"/></symbol><symbol id="h" overflow="visible" transform="translate(.000007 .007437)"/><symbol id="i" overflow="visible" transform="translate(.000007 .007437)"><path d="m3.03125-5.8125c.769531 0 1.316406.140625 1.640625.421875.320313.273437.484375.636719.484375 1.09375v3.28125c0 .21875.097656.328125.296875.328125.039063 0 .085937-.003906.140625-.015625.050781-.007813.097656-.023437.140625-.046875v.734375c-.085937.0390625-.183594.078125-.296875.109375-.105469.03125-.226562.046875-.359375.046875-.261719 0-.460937-.0742188-.59375-.21875-.136719-.144531-.203125-.367187-.203125-.671875-.25.292969-.542969.515625-.875.671875-.335938.1445312-.710938.21875-1.125.21875-.59375 0-1.058594-.140625-1.390625-.421875-.335937-.28125-.5-.675781-.5-1.1875 0-.507812.160156-.910156.484375-1.203125.332031-.300781 1.101562-.53125 2.3125-.6875.40625-.050781.679688-.128906.828125-.234375.144531-.101562.21875-.257812.21875-.46875 0-.3125-.105469-.546875-.3125-.703125-.199219-.15625-.515625-.234375-.953125-.234375-.46875 0-.820312.089844-1.046875.265625-.230469.179687-.355469.449219-.375.8125h-.921875c.019531-.625.238281-1.09375.65625-1.40625.414062-.320313 1-.484375 1.75-.484375zm-1.640625 4.28125c0 .261719.09375.46875.28125.625.195313.148438.46875.21875.8125.21875.53125 0 .953125-.128906 1.265625-.390625.3125-.269531.46875-.5625.46875-.875v-.984375c-.15625.117188-.359375.195312-.609375.234375-.25.03125-.585937.078125-1 .140625-.417969.0625-.726563.179688-.921875.34375-.199219.15625-.296875.386719-.296875.6875zm0 0"/></symbol><symbol id="j" overflow="visible" transform="translate(.000007 .007437)"><path d="m3.453125-5.8125c.6875 0 1.1875.179688 1.5.53125.3125.34375.46875.84375.46875 1.5v3.78125h-.9375v-3.890625c0-.3125-.105469-.570313-.3125-.78125-.210937-.21875-.496094-.328125-.859375-.328125-.523438 0-.933594.167969-1.234375.5-.292969.324219-.4375.742188-.4375 1.25v3.25h-.9375v-5.6875h.875v.90625h.03125c.207031-.351562.460937-.613281.765625-.78125.300781-.164062.660156-.25 1.078125-.25zm0 0"/></symbol><symbol id="k" overflow="visible" transform="translate(.000007 .007437)"><path d="m5.78125-7.859375v7.859375h-.9375v-.765625h-.015625c-.148437.292969-.382813.515625-.703125.671875-.324219.15625-.695312.234375-1.109375.234375-.792969 0-1.429687-.273437-1.90625-.828125-.480469-.550781-.71875-1.273438-.71875-2.171875 0-.875.226563-1.582031.6875-2.125.46875-.550781 1.101563-.828125 1.90625-.828125.375 0 .726563.078125 1.0625.234375.332031.148437.59375.359375.78125.640625h.015625v-2.921875zm-4.390625 5.0625c0 .617187.15625 1.121094.46875 1.515625.320313.398438.75.59375 1.28125.59375.550781 0 .976563-.195312 1.28125-.59375.300781-.394531.453125-.914062.453125-1.5625 0-.644531-.15625-1.164062-.46875-1.5625-.304688-.394531-.746094-.59375-1.328125-.59375-.542969 0-.960937.199219-1.25.59375-.292969.398438-.4375.933594-.4375 1.609375zm0 0"/></symbol><symbol id="l" overflow="visible" transform="translate(.000007 .007437)"><path d="m4.171875-8.046875c.769531 0 1.4375.179687 2 .53125.5625.355469.992187.855469 1.296875 1.5.3125.636719.46875 1.335937.46875 2.09375 0 .761719-.152344 1.460937-.453125 2.09375-.304687.636719-.742187 1.132813-1.3125 1.484375-.574219.3515625-1.242187.53125-2 .53125-.75 0-1.414063-.171875-1.984375-.515625-.5625-.351563-1-.847656-1.3125-1.484375-.304688-.632812-.453125-1.335938-.453125-2.109375 0-1.1875.335937-2.171875 1.015625-2.953125.6875-.78125 1.597656-1.171875 2.734375-1.171875zm-2.703125 4.125c0 .585937.101562 1.132813.3125 1.640625.207031.5.519531.890625.9375 1.171875.414062.28125.898438.421875 1.453125.421875.84375 0 1.503906-.300781 1.984375-.90625.488281-.613281.734375-1.390625.734375-2.328125s-.242187-1.707031-.71875-2.3125c-.480469-.613281-1.148437-.921875-2-.921875-.84375 0-1.507813.308594-1.984375.921875-.480469.617187-.71875 1.386719-.71875 2.3125zm0 0"/></symbol><symbol id="m" overflow="visible" transform="translate(.000007 .007437)"><path d="m3.078125-5.8125c.695313 0 1.257813.167969 1.6875.5.4375.324219.691406.808594.765625 1.453125h-.96875c-.074219-.375-.234375-.65625-.484375-.84375-.242187-.195313-.546875-.296875-.921875-.296875-.585938 0-1.027344.199219-1.328125.59375-.292969.386719-.4375.933594-.4375 1.640625 0 .625.144531 1.132813.4375 1.515625.300781.375.707031.5625 1.21875.5625.457031 0 .816406-.117188 1.078125-.359375.257812-.25.421875-.59375.484375-1.03125h.953125c-.105469.710937-.371094 1.257813-.796875 1.640625-.429687.3867188-.996094.578125-1.703125.578125-.835938 0-1.492188-.257813-1.96875-.78125-.46875-.519531-.703125-1.226563-.703125-2.125 0-.9375.238281-1.675781.71875-2.21875.476563-.550781 1.132813-.828125 1.96875-.828125zm0 0"/></symbol><symbol id="n" overflow="visible" transform="translate(.000007 .007437)"><path d="m4.1875-8.046875c.875 0 1.601562.230469 2.1875.6875.582031.449219.929688 1.074219 1.046875 1.875h-1.046875c-.117188-.539063-.367188-.953125-.75-1.234375-.386719-.289062-.871094-.4375-1.453125-.4375-.824219 0-1.476563.296875-1.953125.890625-.46875.585937-.703125 1.34375-.703125 2.28125 0 1.011719.226563 1.8125.6875 2.40625.46875.59375 1.128906.890625 1.984375.890625.644531 0 1.171875-.203125 1.578125-.609375s.632813-.957031.6875-1.65625h1.046875c-.117188 1.011719-.46875 1.789063-1.0625 2.328125-.59375.5429688-1.371094.8125-2.328125.8125-1.125 0-2.015625-.367188-2.671875-1.109375-.648438-.75-.96875-1.742187-.96875-2.984375 0-1.21875.332031-2.210938 1-2.984375.675781-.769531 1.582031-1.15625 2.71875-1.15625zm0 0"/></symbol><symbol id="o" overflow="visible" transform="translate(.000007 .007437)"><path d="m4.34375-7.859375c.726562 0 1.300781.199219 1.71875.59375.425781.386719.640625.964844.640625 1.734375 0 .773438-.214844 1.351562-.640625 1.734375-.417969.386719-.964844.578125-1.640625.578125h-2.515625v3.21875h-1.046875v-7.859375zm-.28125 3.765625c.5 0 .890625-.113281 1.171875-.34375.289063-.238281.4375-.601562.4375-1.09375 0-.476562-.148437-.835938-.4375-1.078125-.28125-.238281-.695313-.359375-1.234375-.359375h-2.09375v2.875zm0 0"/></symbol><symbol id="p" overflow="visible" transform="translate(.000007 .007437)"><path d="m3.0625-5.8125c.820312 0 1.457031.292969 1.90625.875.445312.585938.671875 1.339844.671875 2.265625v.109375h-4.25v.0625c0 .542969.15625.980469.46875 1.3125.3125.335938.742187.5 1.296875.5.414062 0 .742188-.09375.984375-.28125.25-.195312.410156-.476562.484375-.84375h.921875c-.125.636719-.402344 1.121094-.828125 1.453125-.417969.3359375-.949219.5-1.59375.5-.59375 0-1.101562-.13671875-1.515625-.40625-.417969-.269531-.726563-.644531-.921875-1.125-.199219-.488281-.296875-.984375-.296875-1.484375 0-.84375.25-1.539062.75-2.09375.507813-.5625 1.148437-.84375 1.921875-.84375zm-1.671875 2.421875h3.265625c-.03125-.457031-.203125-.835937-.515625-1.140625-.304687-.3125-.683594-.46875-1.140625-.46875-.429688 0-.796875.148438-1.109375.4375-.304687.292969-.46875.683594-.5 1.171875zm2.21875-4.65625 1.140625 1.5625h-.9375l-.75-1.046875-.765625 1.046875h-.859375l1.140625-1.5625zm0 0"/></symbol><symbol id="q" overflow="visible" transform="translate(.000007 .007437)"><path d="m2-7.390625v1.703125h1.140625v.828125h-1.140625v3.5625c0 .28125.09375.433594.28125.453125.1875.011719.382812.015625.59375.015625h.265625v.828125h-.78125c-.511719 0-.855469-.0859375-1.03125-.265625-.179687-.1875-.265625-.492187-.265625-.921875v-3.671875h-.96875v-.828125h.96875v-1.703125zm0 0"/></symbol><symbol id="r" overflow="visible" transform="translate(.000007 .007437)"><path d="m3.0625-5.8125c.820312 0 1.457031.292969 1.90625.875.445312.585938.671875 1.339844.671875 2.265625v.109375h-4.25v.0625c0 .542969.15625.980469.46875 1.3125.3125.335938.742187.5 1.296875.5.414062 0 .742188-.09375.984375-.28125.25-.195312.410156-.476562.484375-.84375h.921875c-.125.636719-.402344 1.121094-.828125 1.453125-.417969.3359375-.949219.5-1.59375.5-.59375 0-1.101562-.13671875-1.515625-.40625-.417969-.269531-.726563-.644531-.921875-1.125-.199219-.488281-.296875-.984375-.296875-1.484375 0-.84375.25-1.539062.75-2.09375.507813-.5625 1.148437-.84375 1.921875-.84375zm-1.671875 2.421875h3.265625c-.03125-.457031-.203125-.835937-.515625-1.140625-.304687-.3125-.683594-.46875-1.140625-.46875-.429688 0-.796875.148438-1.109375.4375-.304687.292969-.46875.683594-.5 1.171875zm3.3125-4.65625-1.453125 1.5625h-.703125l.953125-1.5625zm0 0"/></symbol><g transform="translate(-13.340558 -150.96454)"><use height="100%" width="100%" x="72.060455" xlink:href="#a" y="82.569267"/><use height="100%" width="100%" x="121.12177" xlink:href="#h" y="102.83627"/><use height="100%" width="100%" x="142.7271" xlink:href="#h" y="102.83627"/><use height="100%" width="100%" x="183.48206" xlink:href="#a" y="102.83627"/><use height="100%" width="100%" x="115.62044" xlink:href="#a" y="116.34761"/><use height="100%" width="100%" x="233.89005" xlink:href="#h" y="102.83627"/><use height="100%" width="100%" x="246.32036" xlink:href="#h" y="102.83627"/><use height="100%" width="100%" x="287.08069" xlink:href="#a" y="102.83627"/><use fill="#0f54ca" height="100%" width="100%" x="235.72119" xlink:href="#a" y="117.84887"/><use height="100%" width="100%" x="72.060455" xlink:href="#a" y="138.11588"/></g><g transform="translate(.000007 .007437)"><g transform="matrix(1.3840339 0 0 1.3840339 -22.08160168824 -130.70803306011)"><use height="100%" width="100%" x="77.314857" xlink:href="#b" y="102.83627"/><use height="100%" width="100%" x="83.63208" xlink:href="#c" y="102.83627"/><use height="100%" width="100%" x="86.076241" xlink:href="#d" y="102.83627"/><use height="100%" width="100%" x="91.57695" xlink:href="#e" y="102.83627"/><use height="100%" width="100%" x="97.695419" xlink:href="#f" y="102.83627"/><use height="100%" width="100%" x="103.60438" xlink:href="#g" y="102.83627"/><use height="100%" width="100%" x="107.26794" xlink:href="#c" y="102.83627"/><use height="100%" width="100%" x="109.7121" xlink:href="#f" y="102.83627"/><use height="100%" width="100%" x="115.62106" xlink:href="#d" y="102.83627"/></g><use height="100%" transform="matrix(1.370938 0 0 1.370938 -20.109017 -129.24087)" width="100%" x="124.17832" xlink:href="#i" y="102.83627"/><use height="100%" transform="matrix(1.370938 0 0 1.370938 -20.109017 -129.24087)" width="100%" x="130.08728" xlink:href="#j" y="102.83627"/><use height="100%" transform="matrix(1.370938 0 0 1.370938 -20.443895 -129.35249)" width="100%" x="136.20575" xlink:href="#k" y="102.83627"/><use height="100%" transform="matrix(1.370938 0 0 1.370938 -20.499708 -129.57575)" width="100%" x="145.78365" xlink:href="#l" y="102.83627"/><use height="100%" transform="matrix(1.3061881 0 0 1.370938 -10.493734 -129.57575)" width="100%" x="154.14214" xlink:href="#m" y="102.83627"/><use height="100%" transform="matrix(1.370938 0 0 1.370938 -21.002026 -129.35249)" width="100%" x="160.0511" xlink:href="#f" y="102.83627"/><use height="100%" transform="matrix(1.370938 0 0 1.370938 -20.946213 -129.35249)" width="100%" x="165.96007" xlink:href="#i" y="102.83627"/><use height="100%" transform="matrix(1.370938 0 0 1.370938 -20.499708 -129.57575)" width="100%" x="171.86903" xlink:href="#j" y="102.83627"/><use height="100%" transform="matrix(1.370938 0 0 1.370938 -20.499708 -129.57575)" width="100%" x="177.98749" xlink:href="#d" y="102.83627"/><g transform="matrix(1.370938 0 0 1.370938 -20.499708 -131.10244)"><use height="100%" width="100%" x="77.314857" xlink:href="#n" y="116.34761"/><use height="100%" width="100%" x="85.259735" xlink:href="#i" y="116.34761"/><use height="100%" width="100%" x="91.168694" xlink:href="#j" y="116.34761"/><use height="100%" width="100%" x="97.287163" xlink:href="#i" y="116.34761"/><use height="100%" width="100%" x="103.19612" xlink:href="#k" y="116.34761"/><use height="100%" width="100%" x="109.71747" xlink:href="#i" y="116.34761"/></g></g><g transform="translate(.000007 .007437)"><g transform="matrix(1.3583667 0 0 1.3583667 -27.384917 -127.91043)"><use height="100%" width="100%" x="197.41562" xlink:href="#o" y="102.83627"/><use height="100%" width="100%" x="204.54399" xlink:href="#p" y="102.83627"/><use height="100%" width="100%" x="210.45296" xlink:href="#m" y="102.83627"/><use height="100%" width="100%" x="216.36192" xlink:href="#e" y="102.83627"/><use height="100%" width="100%" x="222.48036" xlink:href="#f" y="102.83627"/><use height="100%" width="100%" x="228.38933" xlink:href="#d" y="102.83627"/><use height="100%" width="100%" x="236.94659" xlink:href="#f" y="102.83627"/><use height="100%" width="100%" x="242.85556" xlink:href="#q" y="102.83627"/></g><use height="100%" transform="matrix(1.3583667 0 0 1.3583667 -27.663982 -127.91043)" width="100%" x="249.37689" xlink:href="#l" y="102.83627"/><use height="100%" transform="matrix(1.2936168 0 0 1.3583667 -10.671295 -127.91043)" width="100%" x="257.73538" xlink:href="#m" y="102.83627"/><use height="100%" transform="matrix(1.3583667 0 0 1.3583667 -27.831421 -127.85462)" width="100%" x="263.64435" xlink:href="#r" y="102.83627"/><use height="100%" transform="matrix(1.3583667 0 0 1.3583667 -27.384917 -127.91043)" width="100%" x="269.55331" xlink:href="#i" y="102.83627"/><use height="100%" transform="matrix(1.3583667 0 0 1.3583667 -27.384917 -127.91043)" width="100%" x="275.46228" xlink:href="#j" y="102.83627"/><use height="100%" transform="matrix(1.3583667 0 0 1.3583667 -27.384917 -127.91043)" width="100%" x="281.58075" xlink:href="#d" y="102.83627"/><use height="100%" transform="matrix(1.3583667 0 0 1.3583667 -26.437738 -131.51082)" width="100%" x="197.41562" xlink:href="#n" y="117.84887"/><use height="100%" transform="matrix(1.3583667 0 0 1.3583667 -26.437738 -131.51082)" width="100%" x="205.3605" xlink:href="#i" y="117.84887"/><use height="100%" transform="matrix(1.3583667 0 0 1.3583667 -26.437738 -131.51082)" width="100%" x="211.26947" xlink:href="#j" y="117.84887"/><use height="100%" transform="matrix(1.3583667 0 0 1.3583667 -26.437738 -131.51082)" width="100%" x="217.38791" xlink:href="#i" y="117.84887"/><use height="100%" transform="matrix(1.3583667 0 0 1.3583667 -26.437738 -131.51082)" width="100%" x="223.29688" xlink:href="#k" y="117.84887"/><use height="100%" transform="matrix(1.3583667 0 0 1.3583667 -26.437738 -131.51082)" width="100%" x="229.81822" xlink:href="#i" y="117.84887"/></g><g transform="matrix(.06007994 0 0 .06007994 -.000195 0)"><path d="m250 0h500v500h-500z" fill="#fff"/><g fill="#f00"><path d="m499.99228 46.875016-34.11312 63.625294c-3.87086 6.91501-10.80627 6.27363-17.74169 2.41138l-24.69699-12.78858 18.40705 97.72711c3.87086 17.85419-8.54859 17.85419-14.67765 10.13435l-43.10105-48.25099-6.99738 24.503c-.80692 3.21777-4.35481 6.59744-9.67748 5.79261l-54.50177-11.45912 14.31524 52.04475c3.06451 11.58054 5.4549 16.37528-3.09375 19.42959l-19.42619 9.13025 93.82127 76.20838c3.7135 2.88151 5.58971 8.067 4.26768 12.7621l-8.21136 26.94707c32.30405-3.72371 61.24898-9.32594 93.56939-12.77619 2.85323-.30459 7.62988 4.40408 7.61029 7.71058l-4.28024 98.72346h15.70639l-2.47237-98.51174c-.0197-3.3065 4.31372-8.22689 7.16695-7.9223 32.32041 3.45026 61.26538 9.05248 93.56942 12.77619l-8.21134-26.94707c-1.32203-4.6951.55417-9.88059 4.26767-12.7621l93.82125-76.20838-19.42617-9.13025c-8.54867-3.05431-6.15828-7.84905-3.09377-19.42959l14.31527-52.04475-54.5018 11.45912c-5.32267.80483-8.87056-2.57484-9.6775-5.79261l-6.99737-24.503-43.10103 48.25099c-6.12908 7.71984-18.54854 7.71984-14.67768-10.13435l18.40702-97.72711-24.69694 12.78858c-6.93559 3.86225-13.87083 4.50363-17.7417-2.41138"/><g stroke-width=".5"><path d="m.00003 0h249.99997v500h-249.99997z"/><path d="m750 0h250v500h-250z"/></g></g></g></svg>