<?xml version="1.0" encoding="UTF-8" standalone="no"?>
<!-- Created with Inkscape (http://www.inkscape.org/) -->

<svg
   width="51.711773mm"
   height="21.969381mm"
   viewBox="0 0 51.711773 21.969381"
   version="1.1"
   id="svg2828"
   inkscape:version="0.92.4 (5da689c313, 2019-01-14)"
   sodipodi:docname="obon_logo.svg"
   xmlns:inkscape="http://www.inkscape.org/namespaces/inkscape"
   xmlns:sodipodi="http://sodipodi.sourceforge.net/DTD/sodipodi-0.dtd"
   xmlns="http://www.w3.org/2000/svg"
   xmlns:svg="http://www.w3.org/2000/svg"
   xmlns:rdf="http://www.w3.org/1999/02/22-rdf-syntax-ns#"
   xmlns:cc="http://creativecommons.org/ns#"
   xmlns:dc="http://purl.org/dc/elements/1.1/">
  <title
     id="title3379">OBON logo</title>
  <defs
     id="defs2822" />
  <sodipodi:namedview
     id="base"
     pagecolor="#ffffff"
     bordercolor="#666666"
     borderopacity="1.0"
     inkscape:pageopacity="0.0"
     inkscape:pageshadow="2"
     inkscape:zoom="0.35"
     inkscape:cx="-64.285714"
     inkscape:cy="560"
     inkscape:document-units="mm"
     inkscape:current-layer="layer1"
     showgrid="false"
     inkscape:pagecheckerboard="true"
     inkscape:window-width="1366"
     inkscape:window-height="745"
     inkscape:window-x="-8"
     inkscape:window-y="-8"
     inkscape:window-maximized="1"
     inkscape:showpageshadow="2"
     inkscape:deskcolor="#d1d1d1" />
  <metadata
     id="metadata2825">
    <rdf:RDF>
      <cc:Work
         rdf:about="">
        <dc:format>image/svg+xml</dc:format>
        <dc:type
           rdf:resource="http://purl.org/dc/dcmitype/StillImage" />
        <dc:title>OBON logo</dc:title>
      </cc:Work>
    </rdf:RDF>
  </metadata>
  <g
     inkscape:label="Layer 1"
     inkscape:groupmode="layer"
     id="layer1"
     transform="translate(-8.8015568,-12.728371)">
    <path
       inkscape:connector-curvature="0"
       id="path1971"
       d="m 10.090769,33.324113 c -0.04833,-1.09457 0.720033,-1.68959 1.533842,-1.70917 0.835326,-0.0201 1.521577,0.66708 1.484765,1.68413 -0.03116,0.8608 -0.798701,1.37048 -1.566929,1.37 -0.764135,-3.97e-4 -1.419827,-0.62358 -1.451678,-1.34496 z m 2.543515,-0.10582 c 0.0074,-0.72347 -0.520265,-1.18355 -0.96677,-1.15889 -0.848188,0.0469 -1.083882,0.59036 -1.098078,1.14029 -0.01675,0.64774 0.515314,1.09352 1.071965,1.04116 0.705,-0.0663 0.988259,-0.56962 0.992883,-1.02256 z m 1.069491,1.38108 0.0196,-2.92847 c 0,0 0.231699,-0.005 1.343702,0.0224 0.617783,0.0154 1.066315,0.4451 0.806617,1.02781 -0.112106,0.25154 -0.388135,0.34401 -0.388135,0.34401 0,0 0.441583,0.18766 0.528947,0.41025 0.291241,0.74198 -0.418565,1.11179 -0.898231,1.12126 -0.68867,0.0136 -1.412478,0.003 -1.412478,0.003 z m 1.464988,-0.41532 c 0.850102,-0.10978 0.492096,-0.91943 -0.142616,-0.92145 -0.609987,-0.003 -0.817326,-0.005 -0.817326,-0.005 l -0.007,0.92817 c 0,0 0.678058,0.0359 0.966994,-9e-4 z m -0.206995,-2.10738 c -0.400308,-0.0243 -0.791462,0.004 -0.791462,0.004 4.23e-4,-0.0108 0.0099,0.8158 0.0099,0.8158 0,0 0.592438,0.0571 0.91553,-0.006 0.623624,-0.12334 0.491703,-0.77457 -0.133931,-0.8126 z m 2.162195,2.46662 c -0.221986,-0.0989 -0.595153,-0.34863 -0.595153,-0.34863 l 0.301495,-0.33422 c 0,0 0.493298,0.3287 0.716491,0.36583 1.013725,0.16861 0.822775,-0.83644 0.02582,-0.89382 -0.446044,-0.032 -0.985081,-0.46049 -0.985081,-0.85262 0,-0.47341 0.415449,-0.87467 0.955003,-0.87467 0.610107,0 1.083645,0.38208 1.083645,0.38208 l -0.228103,0.29135 c 0,0 -0.975091,-0.52279 -1.271091,-0.0714 -0.200667,0.30601 1.45e-4,0.65592 0.813058,0.76934 0.946084,0.13201 0.856177,0.98842 0.701156,1.25621 -0.344911,0.5958 -1.157199,0.47089 -1.517247,0.31054 z m 2.154169,0.12965 0.03065,-2.9601 h 2.145699 l -0.0076,0.38866 -1.682925,-0.009 -0.01684,0.809149 1.446806,0.007 -0.0084,0.48666 -1.43335,-0.007 -0.01051,0.733551 1.669322,0.0173 0.01187,0.54317 z m 2.73097,-0.01 0.01701,-2.94331 c 0,0 0.489421,-0.0118 1.185032,-0.0168 0.972153,-0.007 1.37553,0.73595 1.113374,1.33414 -0.115847,0.26433 -0.617553,0.47871 -0.617553,0.47871 l 0.832899,1.15502 -0.4816,-0.003 -0.825872,-1.12569 -0.705082,0.0132 -0.01067,1.10891 z m 1.464068,-1.53891 c 0.861134,-0.21971 0.590375,-1.04196 -0.285269,-1.04519 -0.530294,-0.003 -0.678542,0.0143 -0.678542,0.0143 l 0.0046,1.04478 c 0,0 0.699429,0.0525 0.959022,-0.0138 z m 2.561413,1.55492 -1.255812,-3.03371 0.517387,-0.006 0.950089,2.38366 0.928967,-2.37865 h 0.439998 l -1.182634,3.02638 z m 2.123202,-3.02897 h 0.445546 l -0.03802,3.02471 -0.433289,-0.01 z m 1.223576,9e-4 0.434637,-9e-4 1.629151,2.12022 0.0046,-2.11239 0.466639,0.002 0.0062,2.97577 -0.33591,0.01 -1.733735,-2.19598 0.01958,2.19598 -0.489433,0.01 z m 3.687402,2.67244 c -0.463665,-0.35357 -0.5689,-0.81885 -0.546666,-1.26662 0.03003,-0.60485 0.591529,-1.36456 1.33601,-1.41242 0.93467,-0.0601 1.226168,0.37645 1.226168,0.37645 l -0.242758,0.29378 c 0,0 -0.817819,-0.51062 -1.431285,-0.0275 -0.328865,0.25899 -0.634159,0.89372 -0.350038,1.38062 0.186177,0.31906 0.469191,0.55202 0.970777,0.56632 0.401836,0.0114 0.765517,-0.21759 0.765517,-0.21759 l 0.0059,-0.61591 -0.787015,0.003 0.0023,-0.38236 1.237288,0.0189 -0.02797,1.13145 c 0,0 -0.261836,0.43426 -0.890772,0.49872 -0.49936,0.0512 -0.955375,-0.10772 -1.267515,-0.34575 z m 3.977153,-2.60392 0.470702,-9e-4 1.611643,2.0517 0.02545,-2.07324 0.505793,0.003 -0.04276,2.98556 -0.368374,0.003 -1.720853,-2.15954 v 2.14703 l -0.489437,0.01 z m 3.247906,-0.0403 h 2.12656 l 0.01,0.39742 -1.654747,-0.003 -1.8e-5,0.821229 1.40938,0.0131 0.01169,0.44049 -1.431107,-0.01 -0.0117,0.85945 1.645383,0.004 -0.0035,0.47197 -2.143702,0.0197 z m 3.473032,0.41552 -0.88098,-0.0222 -0.0024,-0.40767 2.317801,0.0271 -2.65e-4,0.42674 -0.954937,-0.009 -0.01958,2.55514 h -0.47965 z m 1.717506,-0.39883 0.523428,-0.003 0.72459,2.186861 0.760272,-2.18287 0.411877,-0.004 0.741016,2.10585 0.725599,-2.08627 0.464703,0.005 -0.983048,2.9469 -0.40436,0.005 -0.730735,-2.17923 -0.785857,2.20772 -0.411126,-0.007 z m 4.751276,1.4802 c -0.01982,-0.7756 0.59468,-1.58108 1.524669,-1.58108 0.87865,0 1.582256,0.74123 1.534459,1.57556 -0.05566,0.97099 -0.770601,1.53778 -1.531551,1.52174 -0.956884,-0.0201 -1.508458,-0.76719 -1.527577,-1.51622 z m 2.58245,0.0817 c 0.02278,-0.50785 -0.155311,-1.18783 -1.038992,-1.20617 -0.717328,-0.0148 -1.0608,0.5662 -1.064221,1.15075 -0.0035,0.52795 0.555178,1.05236 1.055222,1.04152 0.451334,-0.01 1.021339,-0.39217 1.047991,-0.9861 z m 1.040916,-1.55878 c 0,0 0.69638,-0.0152 1.240615,-0.003 1.367711,0.0306 1.228143,1.13615 1.032058,1.41549 -0.196086,0.27934 -0.593458,0.3936 -0.593458,0.3936 l 0.758177,1.15729 -0.487482,0.0105 -0.7336,-1.11288 -0.740709,-0.0127 -0.0013,1.13745 h -0.5061 z m 1.291325,0.42013 c -0.236966,-0.0163 -0.797975,5.82e-4 -0.797975,5.82e-4 l -0.01958,1.03929 0.769851,-0.004 c 0.866447,-0.004 1.048125,-0.96744 0.04772,-1.03629 z m 1.706798,-0.42013 h 0.50428 l 0.0057,1.45549 1.495271,-1.48094 0.559091,-0.0108 -1.271971,1.26795 1.275339,1.752449 -0.502949,0.004 -1.094896,-1.44683 -0.481653,0.44182 -0.01638,0.98347 -0.482741,0.01 z M 9.8420015,30.195953 c -0.501118,-0.19471 -0.7396,-0.60701 -0.827147,-0.79739 -0.22354,-0.48608 -0.130574,-1.03521 0.0837,-1.43393 0.235706,-0.43861 0.712771,-0.66894 1.2386015,-0.66894 1.166501,0 1.595421,0.99614 1.526673,1.80324 -0.04581,0.53774 -0.591042,0.92284 -0.750858,1.02755 -0.33229,0.21773 -0.927729,0.20285 -1.2709705,0.0695 z m 1.4683115,-0.81983 c 0.206791,-0.34358 0.160491,-0.8518 -0.02967,-1.20711 -0.166002,-0.31018 -0.773586,-0.65696 -1.3173255,-0.39238 -0.739128,0.35965 -0.803342,1.39778 -0.269899,1.85727 0.5343985,0.46032 1.3101525,0.25185 1.6168885,-0.25778 z m 1.845571,0.76814 c -1.346538,-0.74733 -0.798697,-2.85042 0.728425,-2.84816 0.488106,5.82e-4 0.93232,0.27092 1.091166,0.47152 -0.124586,0.12867 -0.124462,0.12602 -0.283884,0.25661 -0.436291,-0.38163 -0.840585,-0.30985 -0.840585,-0.30985 -0.875569,-0.0249 -1.349791,1.25597 -0.713309,1.89245 0.302112,0.30212 0.785665,0.32091 1.15219,0.16872 0.198799,-0.087 0.464372,-0.24919 0.464372,-0.24919 0.209705,0.2549 0.119859,0.18114 0.271532,0.33957 -0.821109,0.56915 -1.515088,0.47525 -1.869907,0.27833 z m 2.394055,0.12292 c 1.91e-4,-1.41575 0.01545,-1.50292 0.03062,-2.94993 1.173079,0.0145 2.011716,0.0311 2.011716,0.0311 l 0.01102,0.41811 -1.59522,-0.0194 0.01231,0.78717 1.371732,0.0201 -0.0058,0.42337 -1.384263,-0.0148 -0.02768,0.86879 1.667254,0.0271 -0.0078,0.39867 c -0.931454,0.0257 -1.028781,0.012 -2.083874,0.01 z m 2.550843,-0.044 c 0,0 0.261637,-0.67639 0.579378,-1.4244 0.460443,-1.08396 0.632062,-1.48976 0.632062,-1.48976 l 0.495872,-0.005 c 0,0 0.274327,0.69109 0.57619,1.36895 0.32713,0.7346 0.654145,1.5333 0.654145,1.5333 l -0.490688,-9e-4 -0.348354,-0.71539 c -0.300157,5.82e-4 -1.297421,-0.008 -1.297421,-0.008 l -0.328321,0.73527 z m 1.980942,-1.14413 c 0.04498,0.0103 -0.550176,-1.08621 -0.550176,-1.08621 l -0.490649,1.06946 z m 1.484218,1.1247 0.0066,-2.87687 0.465976,5.82e-4 1.654799,2.16272 -0.05674,-2.15102 0.455644,0.004 -0.0046,2.85792 -0.413642,-0.005 -1.647749,-2.16444 c -0.0161,-0.0138 -0.02164,2.16547 -0.02164,2.16547 z m 4.449067,0.0578 -0.02769,-2.94505 c 0,0 0.84213,-0.0699 1.743891,0.0508 0.499559,0.10683 0.686871,0.73204 0.451249,1.0456 -0.09393,0.30605 -0.552323,0.17505 0.04007,0.53394 0.390647,0.43166 0.162885,1.09204 -0.449193,1.26203 -0.556907,0.15465 -1.758329,0.0527 -1.758329,0.0527 z m 1.518344,-1.28242 c -0.559464,-0.0747 -1.091174,-0.0129 -1.091174,-0.0129 l 0.004,0.90065 c 0,0 0.910707,0.0738 1.225752,-0.0571 0.315044,-0.131 0.421028,-0.75593 -0.138436,-0.8306 z m 0.03151,-0.47046 c 0.353388,-0.19852 0.221146,-0.72113 -0.05646,-0.76493 -0.495313,-0.0781 -1.085191,0.006 -1.085191,0.006 l 0.01102,0.80173 c 0,0 0.836022,0.12275 1.130654,-0.0428 z m 1.386901,1.72271 0.02792,-2.91596 0.438599,5.82e-4 -0.0096,2.90124 z m 1.961543,-0.0811 c -1.064012,-0.50443 -1.09159,-2.15753 -0.023,-2.66462 1.095632,-0.51992 2.328963,0.20982 2.173122,1.37349 -0.17191,1.28369 -1.381181,1.65568 -2.15014,1.29113 z m 1.104112,-0.35958 c 0.593623,-0.2359 0.746678,-0.92867 0.566662,-1.38023 -0.193751,-0.48603 -0.905123,-0.93557 -1.594981,-0.4798 -0.680951,0.4499 -0.419109,1.40906 -0.163148,1.60557 0.175473,0.13473 0.597848,0.49037 1.191467,0.25446 z m 1.682022,0.44057 -0.03202,-2.90542 0.565909,-0.002 0.941423,1.39483 0.871996,-1.37318 0.513284,-0.0259 -0.0278,2.90535 -0.425172,-0.008 0.0051,-2.10666 -0.939635,1.3853 -1.00855,-1.35426 0.01998,2.08953 z m 3.802548,-0.42982 c -0.439907,-0.48299 -0.535551,-1.77224 0.389067,-2.32266 0.930177,-0.55373 2.262476,-0.01 2.340483,1.11781 0.06921,1.00047 -0.462134,1.55996 -1.23449,1.7032 -0.472046,0.0875 -1.055153,-0.0154 -1.49506,-0.49835 z m 2.292144,-0.90489 c 0.03065,-0.39192 -0.316529,-1.00242 -0.71096,-1.12037 -0.557416,-0.16668 -1.188921,0.0492 -1.366369,0.66376 -0.147426,0.51057 -0.0076,1.25982 0.919988,1.43132 0.431036,0.0797 1.101604,-0.26197 1.157341,-0.97471 z m 1.025726,1.3686 0.01405,-2.94971 0.480139,0.002 -0.02768,2.54124 1.554842,-0.005 0.01125,0.42467 z m 2.53779,-0.007 0.02387,-2.94591 2.13582,0.008 -5.29e-4,0.404321 -1.642857,0.0169 5.3e-4,0.84239 1.428956,0.0186 -0.0024,0.4115 -1.438939,0.0117 v 0.77854 l 1.628843,0.0352 -0.0059,0.44049 z m 2.622299,-1.31418 c -0.06546,-0.65329 0.399833,-1.59399 1.415272,-1.65746 0.600067,-0.0375 1.175888,0.43293 1.175888,0.43293 l -0.245271,0.30331 c 0,0 -0.880486,-0.7591 -1.594313,0.067 -0.566725,0.79135 -0.121402,1.69851 0.700399,1.76961 0.589606,0.051 0.93412,-0.38551 0.93412,-0.38551 l 0.307205,0.332831 c 0,0 -0.573479,0.522739 -1.156473,0.546809 -0.507381,0.0209 -1.440635,-0.44963 -1.536827,-1.40957 z m 3.350212,0.83552 c -0.0761,-0.11434 -0.156964,-0.35662 -0.171714,-0.5381 -0.06513,-0.80156 -0.05075,-1.90518 -0.05075,-1.90518 l 0.499052,0.003 c 0,0 -0.06993,1.05452 0.0058,1.84993 0.0622,0.6531 0.576009,0.65994 0.808252,0.69741 0.251074,0.0405 0.699286,-0.18504 0.74037,-0.66514 0.05183,-0.60587 0.01786,-1.88572 0.01786,-1.88572 l 0.432234,0.002 c 0,0 0.01651,0.908669 9.2e-5,1.70644 -0.0046,0.215499 -0.02125,0.38534 -0.07236,0.54445 -0.06619,0.206149 -0.169203,0.416579 -0.360391,0.536789 -0.345289,0.217101 -0.82319,0.25062 -0.791914,0.21845 0,0 -0.355386,-7e-5 -0.67111,-0.17395 -0.152154,-0.0838 -0.254805,-0.19407 -0.385464,-0.39038 z m 2.916122,0.47063 0.03454,-2.92054 0.528643,-0.004 -0.05657,2.49805 1.513329,0.005 0.0024,0.42689 z m 2.337919,0.0326 1.332277,-2.97427 0.351253,-8.99e-4 1.354265,2.93199 -0.466969,0.002 -0.351123,-0.69916 -1.435917,0.0117 -0.313926,0.72923 z m 1.525167,-2.36893 -0.520555,1.19252 1.053034,-2.2e-4 z m 1.964272,2.32379 0.02815,-2.91551 c 0,0 0.788762,-0.0314 1.420428,0.0441 0.848993,0.0391 1.030171,0.90654 0.836182,1.29516 -0.190498,0.38163 -0.609505,0.46912 -0.609505,0.46912 l 0.764439,1.113261 -0.566189,-0.012 -0.64265,-1.05443 -0.73715,-0.0133 0.01535,1.073671 z m 1.538501,-1.469079 c 0.545981,-0.0694 0.540676,-0.87177 -0.02262,-0.99178 -0.431313,-0.0919 -1.03234,-0.0346 -1.03234,-0.0346 l -0.0051,1.00433 c 0,0 0.525299,0.0902 1.060337,0.0221 z M 13.909442,25.528293 c -1.842746,-0.33417 -3.568898,-1.56606 -4.3828805,-3.234129 -0.763844,-1.59517 -0.904314,-3.539212 -0.514502,-4.965682 0.427013,-1.525374 1.6738805,-3.098316 3.2214385,-3.835697 0.452236,-0.215483 1.007254,-0.425554 1.233375,-0.466825 0.589552,-0.257771 1.892847,-0.297588 1.892847,-0.297588 0,0 2.007725,0.192488 2.777151,0.635099 1.931455,0.915553 2.948875,2.140022 3.480009,4.39333 0.212069,0.879551 0.284801,1.947885 -0.209884,3.844793 -0.716173,1.703089 -2.225303,3.546249 -4.794602,3.974399 -0.889047,0.14816 -1.707044,0.1329 -2.702952,-0.0477 z m 3.202578,-2.16427 c 1.681943,-0.772619 2.782957,-2.79863 2.466559,-4.70801 -0.253461,-1.529614 -1.064108,-2.792607 -2.367846,-3.434436 -0.661579,-0.325695 -1.002746,-0.493691 -1.959457,-0.492655 -0.900053,10e-4 -1.434718,0.207564 -1.975266,0.459944 -0.878308,0.41008 -1.673155,1.581721 -1.673155,1.581721 0,0 -0.657088,1.145217 -0.656115,2.343104 8.57e-4,1.056432 0.180086,1.472823 0.390102,1.996613 0.439477,1.09605 1.505959,2.072739 2.68215,2.456339 0.752158,0.2453 2.333314,0.14637 3.093028,-0.20262 z m 21.785802,1.96043 c -0.669819,-0.28621 -1.232548,-0.64885 -1.855801,-1.25826 -2.44235,-2.388119 -2.017668,-7.210241 1.35703,-8.984286 0.784966,-0.412645 1.894686,-0.750438 2.886218,-0.838663 0.908473,-0.07438 1.090821,-0.06362 1.090821,-0.06362 l -1.308994,0.371477 c -1.36176,0.386455 -1.97702,0.897711 -2.611422,1.452677 -0.630883,0.55188 -1.292307,1.375448 -1.349306,2.498852 0.04065,0.355904 0.267012,-0.453852 0.605205,-0.956038 0.575186,-0.854102 1.211919,-1.445576 1.852092,-1.78145 0.771223,-0.404637 1.375455,-0.425604 1.375455,-0.425604 0,0 -1.209249,0.624049 -1.448843,0.847453 -0.561776,0.523814 -1.836459,1.693926 -1.432793,2.930472 0.03408,0.298443 0.182883,-0.08532 0.439608,-0.751014 0.157493,-0.408359 0.398704,-0.760011 0.701665,-1.156358 0.453845,-0.593739 1.416727,-1.015909 1.525622,-0.907014 0.03213,0.03217 -0.639025,0.474591 -0.899354,0.746287 -1.135493,1.185061 -0.913913,2.659843 0.632876,4.212379 0.87834,0.881591 1.824889,1.36735 2.907662,1.63972 0.438748,0.11036 1.235274,0.0258 1.235274,0.0258 0,0 -1.063504,0.34483 -1.921423,0.25251 -0.49131,-0.0528 -1.296654,-0.412991 -1.08888,-0.0994 0.245449,0.295731 1.902791,0.876141 3.121875,0.938661 1.170646,0.06 1.553075,-0.0865 1.201063,-0.378681 -0.25385,-0.21068 -0.283203,-0.631559 -0.09675,-1.014189 0.09523,-0.19545 0.493366,-0.68504 0.941988,-1.0606 0.712566,-0.59651 0.929275,-0.81733 0.881777,-0.94112 -0.03722,-0.097 -0.666829,-0.32985 -1.047527,-0.502467 -0.38543,-0.17476 -0.830782,-0.43703 -1.004941,-0.64401 -0.290563,-0.345318 -0.319225,-0.466271 -0.249809,-1.045769 0.06274,-0.523756 0.496745,-0.54344 -0.166156,-0.886796 -0.629941,-0.591801 -0.778859,-1.924968 -0.184938,-2.617741 0.143883,-0.16783 0.204814,-0.237019 -0.152593,-0.44734 -1.644682,-0.967843 -4.062659,-1.293068 -6.261304,-0.09362 -0.630198,0.343796 -1.378468,0.960828 -1.809229,1.449222 -0.822465,0.932501 -1.568402,2.480528 -1.568402,2.437679 0,-0.103607 0.6585,-1.982929 1.615662,-3.007583 0.736455,-0.827959 2.222752,-1.711981 3.345088,-1.945016 1.393888,-0.289419 3.769637,0.139308 4.638431,0.852541 0.243369,0.169693 0.445905,0.361764 0.703871,0.494503 0.534845,0.229643 0.881092,0.556494 1.097077,0.772481 0.522226,0.522227 0.413694,0.928945 -0.101754,1.653937 -0.224885,0.269153 -0.383717,0.572217 -0.383717,0.61195 0,0.03973 0.396356,0.250044 0.783092,0.404999 1.082424,0.43369 1.658517,1.297928 1.291993,2.19285 -0.222819,0.54406 -0.133612,0.37466 -0.0363,0.88029 0.05303,0.33174 -0.06635,0.55904 -0.246702,0.93159 -0.27169,0.56122 -1.131404,1.47025 -1.765539,1.82265 -0.08679,0.0483 -0.16188,0.12385 -0.29147,0.20913 -1.061021,0.69821 -2.28696,0.84433 -3.802835,0.460999 -0.503849,-0.127409 -1.3076,-0.490779 -1.329293,-0.469089 -0.113488,0.11351 0.187227,0.697689 1.818651,1.05724 0.952119,0.20983 1.566116,0.0499 1.274788,0.1656 -1.104077,0.43858 -3.473069,-0.0919 -5.279278,-1.541351 -0.417775,-0.335259 -1.11555,-0.9989 -1.12708,-0.98332 -0.10245,0.13843 0.08177,0.472321 0.117017,0.560831 0.152278,0.3823 1.223034,1.51381 1.987523,1.83651 0.404554,0.170749 1.515809,0.49332 1.515809,0.51993 -0.44019,0.1967 -1.438055,-0.13812 -2.122808,-0.4307 z m 8.201499,-2.52485 c -0.837473,-0.135449 -0.978816,-0.185629 -1.109065,-0.0554 -0.07927,0.0793 -0.139075,0.48018 -0.04008,0.59949 0.123846,0.14921 0.280931,0.24958 0.481263,0.11657 0.126974,-0.0843 0.240065,-0.23577 0.354629,-0.32786 z m 0.503407,-0.599399 c 0.180112,-0.22924 -0.925894,-0.300881 -1.149155,-0.0525 -0.310554,0.34536 -0.372586,0.32667 0.15943,0.3952 0.353841,0.0587 0.666692,0.0685 0.666692,0.0685 z m 0.249899,-0.509 c 0.07831,-0.249761 0.109407,-0.97661 -0.08672,-0.73039 -0.205796,0.18356 -1.014172,0.80666 -0.860976,0.81211 0.685737,0.0244 0.869384,0.16551 0.947698,-0.0818 z m 0.11059,-1.697847 c 0.04133,-0.411711 -0.136467,-0.991877 -0.290081,-0.941103 -0.06818,0.02249 -0.256694,0.459342 -0.347139,0.623733 -0.151487,0.275319 -0.225999,0.319429 0.116883,0.496307 0.380981,0.19652 0.45032,0.278059 0.520337,-0.178937 z m -0.895882,-0.538734 c 0.382953,-0.630514 0.545465,-0.606385 0.132197,-0.886034 -0.434346,-0.29391 -0.793951,0.74237 -0.89684,1.015552 0.40708,0.346196 0.569968,0.272886 0.764643,-0.129518 z m -0.794983,-0.539161 c 0.420839,-0.696536 0.474025,-0.599269 0.05611,-0.769077 -0.341419,-0.138719 -0.542283,-0.389481 -0.679035,0.484603 0.01953,0.897444 0.311563,0.79985 0.622943,0.284474 z m -0.307168,-1.677996 c 0.355627,-0.395033 0.952606,-0.96379 0.331206,-0.686468 0,0 -1.093827,0.384884 -1.022072,0.571883 0.3562,0.381265 0.323937,0.537584 0.690866,0.114585 z m -0.101621,-0.804713 c 0.555152,-0.25846 0.910916,-0.441708 0.638987,-0.658604 -0.124804,-0.09955 -1.40571,0.402734 -1.519668,0.582325 -0.178885,0.404824 0.01855,0.500794 0.880681,0.07628 z m -0.35279,-0.656179 c 0.7058,-0.317653 0.757068,-0.292802 0.262554,-0.668834 -0.508355,-0.279128 -0.649515,0.101298 -0.717897,0.418322 -0.10991,0.510828 -0.03642,0.45598 0.455343,0.250512 z m -21.853436,9.675019 c 0.004,-4.92426 0.004,-4.87331 0,-12.344724 0.09558,-0.09558 0.897685,-0.130967 2.932692,-0.129389 3.956002,0.0031 4.722232,0.148141 5.740675,1.086909 0.705526,0.650332 0.992,1.378932 0.927905,2.359964 -0.06239,0.955058 -0.336228,1.519209 -1.039797,2.142203 -0.424539,0.375915 -0.687597,0.373539 -0.554698,0.454009 0.09045,0.05473 0.710887,0.258461 1.040363,0.452649 0.41013,0.241722 0.787072,0.66157 1.014943,1.030779 0.292519,0.557011 0.282124,0.629311 0.315918,1.483491 0.03454,0.872929 -0.129588,1.170849 -0.390711,1.704569 -0.676601,0.87606 -1.398734,1.44605 -2.849838,1.6804 -1.052556,0.16998 -0.99151,0.051 -7.137452,0.0791 z m 6.910135,-1.97979 c 0.804945,-0.23904 1.319249,-0.868919 1.319249,-1.598869 0,-0.791051 -0.234127,-1.19314 -0.927175,-1.51043 -0.564807,-0.258577 -0.789584,-0.348908 -2.953698,-0.320107 l -2.232587,0.0297 -0.0306,1.713637 c -0.02066,1.027209 0,0 0.0403,1.754969 1.606009,-0.04 3.29168,0.0513 4.784518,-0.0689 z m -0.293387,-5.433258 c 0.679753,-0.350012 1.040688,-0.89546 0.976251,-1.63067 -0.06184,-0.705514 -0.603802,-1.269277 -1.437004,-1.447967 -0.787672,-0.168926 -3.991013,-0.04576 -3.991013,-0.04576 -0.02078,1.778043 -0.02078,0.794361 -0.02078,1.778043 0,1.264928 0.02574,1.544392 0.02574,1.544392 0.125004,0.0778 0.892286,0.105701 2.046726,0.08009 0.77558,-0.05321 1.838179,0.0067 2.400114,-0.278126 z m 19.260638,7.416938 c 5.29e-4,-10.465105 0.0065,-0.12819 0.0059,-12.475868 0.962814,-0.0036 1.176139,-0.0054 1.971339,0.0073 0.110334,0.0017 1.26224,1.608213 2.637124,3.387015 1.37488,1.778805 2.829567,3.639827 3.214867,4.135623 0.385305,0.49579 0.901893,1.196531 0.936884,1.146651 0.01302,-4.813432 0.01204,-7.668118 0.01318,-8.682886 0.429483,0.01048 1.764824,0.0365 2.049545,0.03418 0,0 0.03408,1.456395 0.0117,6.333568 l 0.02061,6.099137 c -0.914345,0.005 -0.842264,-5.56e-4 -1.789539,-0.0242 -0.08715,-0.0487 -1.559856,-1.94767 -3.356411,-4.267629 -1.796553,-2.319962 -3.491998,-4.639541 -3.552296,-4.640168 -0.07031,-7.41e-4 -0.07056,2.00243 -0.10572,4.744418 l -0.02712,4.192639 c -0.936127,0.018 -1.282517,0.006 -2.030087,0.0102 z"
       style="display:inline;fill:#ffffff;fill-opacity:1;stroke:none;stroke-width:0.109633;stroke-opacity:1"
       sodipodi:nodetypes="ssssssssssscsscsscscsccscsssccssccssssccssssscccccccccccccccssccccccccsccscccccccccccccccccccccccccsssccsssccccccssscccccccccccccccccccccccccccccccccccccccccccccccsssssssssscszcccccccccccsscccccccccccsccsccsccszsccszccccsccszcscsccccsccszcssccsccszcsscssccsccszcssccscssccscsccscccscccsccccccccccccscssccscccccscccscccscccccscccccscccccsccccscccsccccscssscccccsccccscscccscssccccscsscsscsccccscsscscsscsccccscsscscccscsscsccccscsccssscscssssscsccscssscssssssscssscsccsccsccccscsscscccccccccccccccccccccccccccccccccccccccccccccccccccccccccccccccccccccccccccccccccccccccccccc"
       inkscape:export-xdpi="300"
       inkscape:export-ydpi="300"
       inkscape:export-filename="C:\Users\Melissa\footer_logo.png" />
  </g>
</svg>
