<?xml version="1.0" encoding="UTF-8"?><svg id="b" xmlns="http://www.w3.org/2000/svg" viewBox="0 0 200.5 202.17"><defs><style>.d{fill:#75f9c6;}.d,.e,.f,.g{stroke-width:0px;}.e{fill:#36dfd2;}.f{fill:#20e062;}.g{fill:#2241a7;}</style></defs><g id="c"><rect class="d" x="0" y="2.17" width="3" height="200"/><rect class="d" x="98.5" y="100.67" width="3" height="200" transform="translate(300.67 100.67) rotate(90)"/><rect class="f" x="23.05" y="44.74" width="11.33" height="11.63" rx="5.67" ry="5.67" transform="translate(79.27 21.84) rotate(90)"/><rect class="e" x="23.05" y="108.08" width="11.33" height="11.63" rx="5.67" ry="5.67" transform="translate(142.61 85.18) rotate(90)"/><rect class="g" x="23.05" y="167.36" width="11.33" height="11.63" rx="5.67" ry="5.67" transform="translate(201.89 144.46) rotate(90)"/><rect class="f" x="56.24" y="25.41" width="11.33" height="11.63" rx="5.67" ry="5.67" transform="translate(93.13 -30.68) rotate(90)"/><rect class="e" x="56.24" y="76.13" width="11.33" height="11.63" rx="5.67" ry="5.67" transform="translate(143.86 20.04) rotate(90)"/><rect class="g" x="56.24" y="128.28" width="11.33" height="11.63" rx="5.67" ry="5.67" transform="translate(196.01 72.19) rotate(90)"/><rect class="f" x="89.44" y="12.54" width="11.33" height="11.63" rx="5.67" ry="5.67" transform="translate(113.46 -76.75) rotate(90)"/><rect class="e" x="89.44" y="51.74" width="11.33" height="11.63" rx="5.67" ry="5.67" transform="translate(152.66 -37.55) rotate(90)"/><rect class="g" x="89.44" y="99.57" width="11.33" height="11.63" rx="5.67" ry="5.67" transform="translate(200.48 10.28) rotate(90)"/><rect class="f" x="122.63" y="5.41" width="11.33" height="11.63" rx="5.67" ry="5.67" transform="translate(139.52 -117.07) rotate(90)"/><rect class="e" x="122.63" y="31.74" width="11.33" height="11.63" rx="5.67" ry="5.67" transform="translate(165.86 -90.74) rotate(90)"/><rect class="g" x="122.63" y="76.41" width="11.33" height="11.63" rx="5.67" ry="5.67" transform="translate(210.52 -46.07) rotate(90)"/><rect class="f" x="155.83" y=".85" width="11.33" height="11.63" rx="5.67" ry="5.67" transform="translate(168.16 -154.83) rotate(90)"/><rect class="e" x="155.83" y="17.08" width="11.33" height="11.63" rx="5.67" ry="5.67" transform="translate(184.39 -138.6) rotate(90)"/><rect class="g" x="155.83" y="59.74" width="11.33" height="11.63" rx="5.67" ry="5.67" transform="translate(227.05 -95.94) rotate(90)"/><rect class="f" x="189.02" y="-.15" width="11.33" height="11.63" rx="5.67" ry="5.67" transform="translate(200.36 -189.02) rotate(90)"/><rect class="e" x="189.02" y="6.74" width="11.33" height="11.63" rx="5.67" ry="5.67" transform="translate(207.25 -182.13) rotate(90)"/><rect class="g" x="188.04" y="48.43" width="11.33" height="11.63" rx="5.67" ry="5.67" transform="translate(247.95 -139.46) rotate(90)"/></g></svg>