<?xml version="1.0" encoding="UTF-8"?><svg id="b" xmlns="http://www.w3.org/2000/svg" viewBox="0 0 211.5 203"><defs><style>.d{fill:none;stroke:#75f9c6;stroke-miterlimit:10;stroke-width:3px;}.e{fill:#2c62cb;opacity:.47;}.e,.f,.g,.h{stroke-width:0px;}.f{fill:#36dfd2;}.g{fill:#20e062;}.h{fill:#2241a7;}</style></defs><g id="c"><circle class="d" cx="110" cy="101.5" r="100"/><circle class="d" cx="110" cy="101.5" r="74.12"/><circle class="d" cx="110" cy="101.5" r="47.4"/><circle class="d" cx="110" cy="101.5" r="21.91"/><line class="d" x1="110" y1="1.5" x2="110" y2="201.5"/><line class="d" x1="60" y1="14.9" x2="160" y2="188.1"/><line class="d" x1="23.4" y1="51.5" x2="196.6" y2="151.5"/><line class="d" x1="10" y1="101.5" x2="210" y2="101.5"/><line class="d" x1="23.4" y1="151.5" x2="196.6" y2="51.5"/><line class="d" x1="60" y1="188.1" x2="160" y2="14.9"/><line class="d" x1="23.4" y1="151.5" x2="196.6" y2="51.5"/><ellipse class="e" cx="81.85" cy="129.48" rx="53.78" ry="38.11" transform="translate(-66.07 89.69) rotate(-42.65)"/><rect class="h" x="13.4" y="141.5" width="20" height="20" rx="10" ry="10" transform="translate(174.9 128.12) rotate(90.01)"/><rect class="h" x="99.98" y="138.9" width="20" height="20" rx="10" ry="10" transform="translate(258.9 38.94) rotate(90.01)"/><rect class="f" x="100" y="44.1" width="20" height="20" rx="10" ry="10" transform="translate(164.12 -55.89) rotate(90.01)"/><rect class="g" x="0" y="91.5" width="20" height="20" rx="10" ry="10" transform="translate(111.5 91.52) rotate(90.01)"/><rect class="g" x="100" y="113.41" width="20" height="20" rx="10" ry="10" transform="translate(233.43 13.43) rotate(90.01)"/><rect class="g" x="81.09" y="80.58" width="20" height="20" rx="10" ry="10" transform="translate(181.68 -.49) rotate(90.01)"/><rect class="g" x="62.98" y="155.62" width="20" height="20" rx="10" ry="10" transform="translate(238.61 92.67) rotate(90.01)"/><rect class="f" x="118.92" y="102.42" width="20" height="20" rx="10" ry="10" transform="translate(241.36 -16.48) rotate(90.01)"/><rect class="h" x="99.98" y="91.47" width="20" height="20" rx="10" ry="10" transform="translate(211.47 -8.5) rotate(90.01)"/><rect class="f" x="50" y="178.1" width="20" height="20" rx="10" ry="10" transform="translate(248.11 128.13) rotate(90.01)"/><rect class="g" x="118.91" y="80.59" width="20" height="20" rx="10" ry="10" transform="translate(219.51 -38.31) rotate(90.01)"/><rect class="f" x="25.88" y="91.46" width="20" height="20" rx="10" ry="10" transform="translate(137.35 65.6) rotate(90.01)"/><rect class="g" x="58.92" y="115.22" width="20" height="20" rx="10" ry="10" transform="translate(194.15 56.31) rotate(90.01)"/></g></svg>