<?xml version="1.0" encoding="UTF-8"?><svg id="b" xmlns="http://www.w3.org/2000/svg" viewBox="0 0 200.26 200"><defs><style>.d{fill:#75f9c6;}.d,.e,.f,.g,.h,.i,.j{stroke-width:0px;}.e{fill:#2c62cb;}.f{fill:#2f9ae6;}.g{fill:#36dfd2;}.h{fill:#20e062;}.i{fill:#2241a7;}.j{fill:#31b4db;}</style></defs><g id="c"><rect class="h" width="33.25" height="33.43"/><rect class="d" x="33.4" width="33.25" height="33.43"/><rect class="g" x="66.8" width="33.25" height="33.43"/><rect class="j" x="100.2" width="33.25" height="33.43"/><rect class="g" x="133.61" width="33.25" height="33.43"/><rect class="d" x="167.01" width="33.25" height="33.43"/><rect class="d" y="33.26" width="33.25" height="33.43"/><rect class="g" x="33.4" y="33.26" width="33.25" height="33.43"/><rect class="j" x="66.8" y="33.26" width="33.25" height="33.43"/><rect class="f" x="100.2" y="33.26" width="33.25" height="33.43"/><rect class="f" x="133.61" y="33.26" width="33.25" height="33.43"/><rect class="g" x="167.01" y="33.26" width="33.25" height="33.43"/><rect class="g" y="66.37" width="33.25" height="33.43"/><rect class="j" x="33.4" y="66.37" width="33.25" height="33.43"/><rect class="f" x="66.8" y="66.37" width="33.25" height="33.43"/><rect class="e" x="100.2" y="66.37" width="33.25" height="33.43"/><rect class="i" x="133.61" y="66.37" width="33.25" height="33.43"/><rect class="j" x="167.01" y="66.37" width="33.25" height="33.43"/><rect class="j" y="99.89" width="33.25" height="33.43"/><rect class="f" x="33.4" y="99.89" width="33.25" height="33.43"/><rect class="e" x="66.8" y="99.89" width="33.25" height="33.43"/><rect class="i" x="100.2" y="99.89" width="33.25" height="33.43"/><rect class="j" x="133.61" y="99.89" width="33.25" height="33.43"/><rect class="g" x="167.01" y="99.89" width="33.25" height="33.43"/><rect class="g" y="133.32" width="33.25" height="33.43"/><rect class="j" x="33.4" y="133.32" width="33.25" height="33.43"/><rect class="e" x="66.8" y="133.32" width="33.25" height="33.43"/><rect class="f" x="100.2" y="133.32" width="33.25" height="33.43"/><rect class="g" x="133.61" y="133.32" width="33.25" height="33.43"/><rect class="d" x="167.01" y="133.32" width="33.25" height="33.43"/><rect class="d" y="166.57" width="33.25" height="33.43"/><rect class="g" x="33.4" y="166.57" width="33.25" height="33.43"/><rect class="j" x="66.8" y="166.57" width="33.25" height="33.43"/><rect class="g" x="100.2" y="166.57" width="33.25" height="33.43"/><rect class="d" x="133.61" y="166.57" width="33.25" height="33.43"/><rect class="h" x="167.01" y="166.57" width="33.25" height="33.43"/></g></svg>