<?xml version="1.0" encoding="UTF-8"?><svg id="b" xmlns="http://www.w3.org/2000/svg" viewBox="0 0 200 193.61"><defs><style>.d{fill:#75f9c6;}.d,.e,.f,.g{stroke-width:0px;}.e{fill:#36dfd2;}.f{fill:#20e062;}.g{fill:#2241a7;}</style></defs><g id="c"><rect class="d" x="0" width="3" height="193.61"/><rect class="d" x="98.5" y="92.11" width="3" height="200" transform="translate(292.11 92.11) rotate(90)"/><rect class="f" x="94.54" y="66.62" width="8" height="7.8" rx="3.9" ry="3.9"/><rect class="e" x="81.49" y="103.96" width="8" height="7.8" rx="3.9" ry="3.9"/><rect class="g" x="150.25" y="136.33" width="18.2" height="17.74" rx="8.87" ry="8.87"/><rect class="f" x="136.29" y="54.13" width="30.19" height="29.43" rx="14.71" ry="14.71"/><rect class="e" x="63.82" y="80.79" width="17.24" height="16.8" rx="8.4" ry="8.4"/><rect class="g" x="139.43" y="150.63" width="8" height="7.8" rx="3.9" ry="3.9"/><rect class="f" x="131.47" y="29.28" width="8" height="7.8" rx="3.9" ry="3.9"/><rect class="e" x="127.49" y="38.61" width="8" height="7.8" rx="3.9" ry="3.9"/><rect class="g" x="115.56" y="159.97" width="8" height="7.8" rx="3.9" ry="3.9"/><rect class="f" x="175.24" y="1.27" width="8" height="7.8" rx="3.9" ry="3.9"/><rect class="e" x="48.86" y="75.95" width="8" height="7.8" rx="3.9" ry="3.9"/><rect class="g" x="42.33" y="57.28" width="8" height="7.8" rx="3.9" ry="3.9"/><rect class="f" x="32.11" y="7.01" width="15.39" height="15" rx="7.5" ry="7.5"/><rect class="e" x="29.27" y="113.29" width="8" height="7.8" rx="3.9" ry="3.9"/><rect class="g" x="187.18" y="122.63" width="8" height="7.8" rx="3.9" ry="3.9"/><rect class="f" x="183.2" y="47.95" width="8" height="7.8" rx="3.9" ry="3.9"/><rect class="e" x="22.75" y="131.96" width="8" height="7.8" rx="3.9" ry="3.9"/><rect class="g" x="107.6" y="94.62" width="8" height="7.8" rx="3.9" ry="3.9"/></g></svg>