<?xml version="1.0" encoding="UTF-8"?><svg id="b" xmlns="http://www.w3.org/2000/svg" viewBox="0 0 203.03 203.03"><defs><style>.d{fill:none;stroke:#75f9c6;stroke-miterlimit:10;stroke-width:3px;}.e{fill:#75f9c6;}.e,.f,.g,.h{stroke-width:0px;}.f{fill:#2f9ae6;}.g{fill:#36dfd2;}.h{fill:#2241a7;}</style></defs><g id="c"><circle class="d" cx="101.52" cy="101.52" r="100" transform="translate(-42.05 101.52) rotate(-45)"/><circle class="d" cx="101.52" cy="101.52" r="74.12" transform="translate(-42.05 101.52) rotate(-45)"/><circle class="d" cx="101.52" cy="101.52" r="47.4" transform="translate(-42.05 101.52) rotate(-45)"/><circle class="d" cx="101.52" cy="101.52" r="21.91"/><line class="d" x1="151.35" y1="188.21" x2="51.68" y2="14.82"/><line class="d" x1="188.02" y1="151.68" x2="15.01" y2="51.35"/><line class="d" x1="201.52" y1="101.71" x2="1.52" y2="101.33"/><line class="d" x1="188.21" y1="51.68" x2="14.82" y2="151.35"/><line class="d" x1="151.68" y1="15.01" x2="51.35" y2="188.02"/><line class="d" x1="101.71" y1="1.52" x2="101.33" y2="201.52"/><line class="d" x1="151.68" y1="15.01" x2="51.35" y2="188.02"/><path class="h" d="m2.42,74.81l99.1,26.71L29.12,29.12C15.28,40.84,4.94,59.67,2.42,74.81Z"/><path class="g" d="m108.74,73.68l-7.22,27.84,20.48-20.53c-3.43-3.83-8.89-6.66-13.26-7.31Z"/><path class="e" d="m94.76,77.88l6.75,23.64,6.21-23.63c-4.2-1.44-9.46-1.31-12.96,0Z"/><path class="e" d="m123.55,106.91l-22.03-5.39,14.87,17.57c2.78-2.94,6.69-8.44,7.16-12.18Z"/><path class="e" d="m111.72,91.25l-10.21,10.27,14.16-3.67c-.47-2.57-2.28-5.18-3.96-6.6Z"/><path class="e" d="m105.47,115.73l-3.95-14.21-3.9,14.35c2.53.82,5.72.69,7.84-.14Z"/><path class="g" d="m124.11,123.73l-22.6-22.21,7.93,30.31c5.66-1.01,11.53-4.45,14.67-8.1Z"/><path class="e" d="m81.94,121.05l19.58-19.53-27.11,7.12c1.01,4.82,4.2,9.78,7.53,12.41Z"/><path class="g" d="m95.65,124.34l5.87-22.82-16.72,16.57c2.81,3.22,7.28,5.64,10.85,6.25Z"/><path class="f" d="m46.28,46.36l55.24,55.16-19.37-75.62c-13.63,3.23-26.58,11.24-35.87,20.46Z"/><path class="f" d="m16.02,126.32l85.46-24.81L15.68,78.26c-4.76,14.74-3.86,34.14.35,48.06Z"/><path class="g" d="m128.87,94.07l-27.35,7.45,27.59,7.46c1.6-4.81,1.34-10.86-.24-14.92Z"/></g></svg>